<svg width="14" height="15" viewBox="0 0 14 15" fill="none" xmlns="http://www.w3.org/2000/svg">
<path d="M6.52856 1C2.92235 1 0 3.92235 0 7.52856C0 11.1348 2.92235 14.0571 6.52856 14.0571C10.1348 14.0571 13.0571 11.1348 13.0571 7.52856C13.0571 3.92235 10.1348 1 6.52856 1ZM9.99196 10.992C9.06572 11.9149 7.83672 12.425 6.52856 12.425C5.2204 12.425 3.9914 11.9149 3.06516 10.992C2.14218 10.0657 1.63214 8.83672 1.63214 7.52856C1.63214 6.2204 2.14218 4.9914 3.06516 4.06516C3.9914 3.14218 5.2204 2.63214 6.52856 2.63214C7.83672 2.63214 9.06572 3.14218 9.99196 4.06516C10.9149 4.9914 11.425 6.2204 11.425 7.52856C11.425 8.83672 10.9149 10.0657 9.99196 10.992ZM8.8005 5.0118L5.72555 8.42869L4.29416 7.01607L3.14677 8.17652L5.7941 10.7928L10.0124 6.10289L8.8005 5.0118Z" fill="white"/>
</svg>
