<svg width="48" height="42" viewBox="0 0 48 42" fill="none" xmlns="http://www.w3.org/2000/svg">
<rect width="48" height="42" rx="8" fill="#1B2459"/>
<path d="M36.9698 8.03C36.0498 7.11 34.7098 6.78 33.4698 7.16L12.4698 13.62C11.0198 14.06 10.0598 15.33 10.0098 16.84C9.95984 18.35 10.8398 19.68 12.2498 20.22L15.9198 21.63L15.3298 26.32C15.2098 27.24 15.5298 28.15 16.1798 28.81C16.7498 29.38 17.4998 29.69 18.2998 29.69C18.4298 29.69 18.5498 29.69 18.6798 29.67L23.3698 29.08L24.7798 32.75C25.3098 34.12 26.5698 34.99 28.0298 34.99H28.1598C29.6698 34.94 30.9298 33.97 31.3798 32.53L37.8398 11.52C38.2198 10.28 37.8898 8.94 36.9698 8.02V8.03ZM18.4298 27.69C18.1198 27.73 17.8198 27.62 17.5998 27.4C17.3798 27.18 17.2798 26.88 17.3098 26.57L17.8298 22.37L21.2898 23.7L22.6198 27.16L18.4198 27.68L18.4298 27.69ZM35.9298 10.94L29.4698 31.95C29.2398 32.7 28.6098 32.99 28.0898 33C27.5898 33.01 26.9298 32.78 26.6498 32.04L23.2398 23.17L27.7098 18.7C28.0998 18.31 28.0998 17.68 27.7098 17.29C27.3198 16.9 26.6898 16.9 26.2998 17.29L21.8298 21.76L12.9698 18.35C12.2398 18.07 11.9998 17.42 12.0098 16.91C12.0198 16.4 12.3098 15.76 13.0598 15.53L34.0698 9.07C34.6098 8.9 35.1698 9.04 35.5698 9.44C35.9698 9.84 36.1098 10.4 35.9398 10.93L35.9298 10.94Z" fill="white"/>
</svg>
