<svg id="em3ebjPKLsA1" xmlns="http://www.w3.org/2000/svg" xmlns:xlink="http://www.w3.org/1999/xlink" viewBox="0 0 64 64" shape-rendering="geometricPrecision" text-rendering="geometricPrecision" width="64" height="64">
<style><![CDATA[
#em3ebjPKLsA3 {animation: em3ebjPKLsA3_c_o 2000ms linear infinite normal forwards}@keyframes em3ebjPKLsA3_c_o { 0% {opacity: 0} 16.666667% {opacity: 0;animation-timing-function: cubic-bezier(0.42,0,0.58,1)} 33.333333% {opacity: 1} 100% {opacity: 1}} #em3ebjPKLsA4 {animation: em3ebjPKLsA4_c_o 2000ms linear infinite normal forwards}@keyframes em3ebjPKLsA4_c_o { 0% {opacity: 0;animation-timing-function: cubic-bezier(0.42,0,0.58,1)} 16.666667% {opacity: 1} 100% {opacity: 1}} #em3ebjPKLsA5 {animation: em3ebjPKLsA5_c_o 2000ms linear infinite normal forwards}@keyframes em3ebjPKLsA5_c_o { 0% {opacity: 0;animation-timing-function: cubic-bezier(0.42,0,0.58,1)} 16.666667% {opacity: 1} 100% {opacity: 1}} #em3ebjPKLsA6_ts {animation: em3ebjPKLsA6_ts__ts 2000ms linear infinite normal forwards}@keyframes em3ebjPKLsA6_ts__ts { 0% {transform: translate(26.28px,5.704822px) scale(-0.12204,-0.12204)} 66.666667% {transform: translate(26.28px,5.704822px) scale(-0.12204,-0.12204);animation-timing-function: cubic-bezier(0.42,0,0.58,1)} 83.333333% {transform: translate(26.28px,5.704822px) scale(1,1)} 100% {transform: translate(26.28px,5.704822px) scale(1,1)}} #em3ebjPKLsA6 {animation: em3ebjPKLsA6_c_o 2000ms linear infinite normal forwards}@keyframes em3ebjPKLsA6_c_o { 0% {opacity: 0} 66.666667% {opacity: 0;animation-timing-function: cubic-bezier(0.42,0,0.58,1)} 83.333333% {opacity: 1} 100% {opacity: 1}} #em3ebjPKLsA7_ts {animation: em3ebjPKLsA7_ts__ts 2000ms linear infinite normal forwards}@keyframes em3ebjPKLsA7_ts__ts { 0% {transform: translate(13.96px,27.764696px) scale(0.111421,0.111421)} 50% {transform: translate(13.96px,27.764696px) scale(0.111421,0.111421);animation-timing-function: cubic-bezier(0.42,0,0.58,1)} 66.666667% {transform: translate(13.96px,27.764696px) scale(1,1)} 100% {transform: translate(13.96px,27.764696px) scale(1,1)}} #em3ebjPKLsA7 {animation: em3ebjPKLsA7_c_o 2000ms linear infinite normal forwards}@keyframes em3ebjPKLsA7_c_o { 0% {opacity: 0} 50% {opacity: 0;animation-timing-function: cubic-bezier(0.42,0,0.58,1)} 66.666667% {opacity: 1} 100% {opacity: 1}} #em3ebjPKLsA8_ts {animation: em3ebjPKLsA8_ts__ts 2000ms linear infinite normal forwards}@keyframes em3ebjPKLsA8_ts__ts { 0% {transform: translate(30.670001px,30.79px) scale(0.079808,0.079808)} 33.333333% {transform: translate(30.670001px,30.79px) scale(0.079808,0.079808);animation-timing-function: cubic-bezier(0.42,0,0.58,1)} 50% {transform: translate(30.670001px,30.79px) scale(0.884698,0.884698)} 100% {transform: translate(30.670001px,30.79px) scale(0.884698,0.884698)}} #em3ebjPKLsA8 {animation: em3ebjPKLsA8_c_o 2000ms linear infinite normal forwards}@keyframes em3ebjPKLsA8_c_o { 0% {opacity: 0} 33.333333% {opacity: 0;animation-timing-function: cubic-bezier(0.42,0,0.58,1)} 50% {opacity: 1} 100% {opacity: 1}}
]]></style>
<g transform="matrix(.770006 0 0 0.770007 13.003954 10.361433)"><path id="em3ebjPKLsA3" d="M16.2,49.65l28.16,1.13c1.321722.067879,2.614696-.401782,3.584724-1.302118s1.534607-2.154773,1.565276-3.477882l1.4-35.11c.049255-1.60236-.672805-3.13117-1.941632-4.110998s-2.930537-1.291838-4.468368-.839002l-2.93.71c-.521781.10902-.88144.588564-.84,1.12.011953.345072.173194.66794.441874.884803s.618303.306336.958126.245197l1.53-.42c1.191694-.364359,2.485929-.132579,3.477111.622702s1.558026,1.941643,1.522889,3.187298L47.42,44.86c-.118311,2.105248-1.89237,3.732947-4,3.67l-26.07-1c-2.121832-.144543-3.734262-1.966322-3.62-4.09l.14-3.24c0-.552285-.447715-1-1-1h-.27c-.552285,0-1,.447715-1,1l-.14,4.37c-.056773,1.305324.413341,2.578714,1.304695,3.534005s2.129181,1.512352,3.435305,1.545995Z" transform="translate(-7-4.26)" opacity="0" fill="#bf1b39"/><path id="em3ebjPKLsA4" d="M10.62,47.68v0c.701031,1.982301,2.503817,3.365744,4.6,3.53l31,1.41c4.6-.15,5.44-4.52,5.57-6.35v-.7l1.4-35.12c.148979-3.008313-2.018153-5.634877-5-6.06s8.15-1.39,8.15,4.94L54.53,53.18c.005384.294452-.157655.566185-.42.7-.217054.219628-.523398.326664-.83.29L48.82,54c-.252793-.037071-.498626.101661-.597562.337224s-.025889.508224.177562.662776l2,2.4h-8.27l-4.19-3.24c-.757311-.295721-1.551199-.487466-2.36-.57L12.3,52.47c0,0-2.37,0-1.68-4.79Z" transform="translate(-7-4.26)" opacity="0" fill="#1b2459"/><path id="em3ebjPKLsA5" d="M51.61,58.82L24.7,60.65c-1.001644.017936-1.996059-.172774-2.92-.56l-3.35-1.83c-.3082-.276506-.427187-.707155-.304664-1.102668s.464125-.683479.874664-.737332l32.62.71c.150838-.018041.301698.033472.41.14.277409.215206.398275.576064.306451.914941s-.378342.589349-.726451.635059Z" transform="translate(-7-4.26)" opacity="0" fill="#1b2459"/><g id="em3ebjPKLsA6_ts" transform="translate(26.28,5.704822) scale(-0.12204,-0.12204)"><path id="em3ebjPKLsA6" d="M30.28,4.53h6c1.30043.047242,2.339119,1.099078,2.37,2.4v6.07c-.030881,1.300922-1.06957,2.352758-2.37,2.4h-6c-1.30043-.047242-2.339119-1.099078-2.37-2.4v-6.21c.038127-1.275096,1.094532-2.28247,2.37-2.26Z" transform="translate(-33.28,-9.964822)" opacity="0" fill="#bf1b39"/></g><g id="em3ebjPKLsA7_ts" transform="translate(13.96,27.764696) scale(0.111421,0.111421)"><path id="em3ebjPKLsA7" d="M24,30.33v3.38c-.015421.725872-.594442,1.313666-1.32,1.34h-3.43c-.72732-.026077-1.309372-.612505-1.33-1.34v-3.38c.020897-.725707.604293-1.309103,1.33-1.33h3.33c.758497-.022481,1.392839.571656,1.42,1.33Z" transform="translate(-20.96,-32.024696)" opacity="0" fill="#bf1b39"/></g><g id="em3ebjPKLsA8_ts" transform="translate(30.670001,30.79) scale(0.079808,0.079808)"><path id="em3ebjPKLsA8" d="M9.37,4.39h8.22c1.316061.026369,2.378159,1.08406,2.41,2.4v6.77c.023599.628945.271966,1.228573.7,1.69l6.27,6.34c.437529.459083,1.045846.71617,1.68.71h6.65c1.30043.047242,2.339119,1.099078,2.37,2.4v8.3c-.036071,1.297025-1.073324,2.343031-2.37,2.39h-8.23c-1.296676-.046969-2.333929-1.092975-2.37-2.39v-6.75c-.021975-.63038-.266416-1.232626-.69-1.7l-6.28-6.34c-.435831-.455546-1.039551-.712218-1.67-.71h-6.69C8.071179,17.457941,7.031144,16.409129,7,15.11v-8.32c.030881-1.300922,1.06957-2.352758,2.37-2.4Z" transform="translate(-37.670001,-35.05)" opacity="0" fill="#1b2459"/></g></g></svg>
