<svg width="5000" height="4000" viewBox="0 0 5000 4000" fill="none" xmlns="http://www.w3.org/2000/svg">
<g clip-path="url(#clip0_3547_224)">
<g opacity="0.2">
<path d="M1284.18 1141.94C1228.88 1115.93 1137.42 1158.21 1108.26 1220.09C1052.59 1338.21 1232.63 1509.28 1298.11 1490.92C1371.28 1470.41 1385.72 1189.68 1284.18 1141.94Z" stroke="#0F31AC" stroke-width="20" stroke-miterlimit="10" stroke-linecap="round" stroke-dasharray="50 50 50 50 50 50"/>
<path d="M1007.56 1409.48C987.826 1398.07 778.758 1277.13 660.441 1372.84C577.365 1440.05 576.57 1583.7 639 1664.43C762.648 1824.34 1146.07 1752.65 1185.85 1638.23C1212.64 1561.18 1086.86 1455.35 1007.56 1409.48Z" stroke="#0F31AC" stroke-width="20" stroke-miterlimit="10" stroke-linecap="round" stroke-dasharray="50 50 50 50 50 50"/>
<path d="M1276.57 3384C1785.46 3257.69 2363.69 3129.1 3261.57 3151C3763.72 3163.25 3877.51 3007.42 4258.08 2813.67C4597.29 2640.99 4763.89 2297.61 4661.57 2103C4558.27 1906.53 4243.63 1984.75 3985.95 1692.29C3868.6 1559.09 3889.25 1465.73 3821.5 1318.02C3606.95 850.309 2802.82 484.739 2406.29 678.209C1882.42 933.799 2330.28 2038.17 1744.69 2339.85C1374.28 2530.69 1094.31 2164.34 728.575 2444C547.355 2582.57 325.716 2776.95 308.575 2988C308.575 2988 284.575 3504 1276.57 3384Z" stroke="#0F31AC" stroke-width="20" stroke-miterlimit="10" stroke-linecap="round" stroke-dasharray="50 50 50 50 50 50"/>
<path d="M4088.14 2809.3C4088.14 2809.3 3995.96 2931.52 3903.76 3099.21C3820.64 3250.43 3757.43 3454.19 3743.47 3624.31C3704.32 3622.46 3661.32 3620.72 3614.83 3619.07C3339.49 3609.3 2941.99 3603.18 2500 3603.18C1997.52 3603.18 1552.55 3611.1 1279.2 3623.28C1269.79 3623.7 1260.58 3624.12 1251.58 3624.55C910.306 3201.56 223.096 2464.63 855.516 2161.47C855.516 2161.47 901.846 2147.36 971.306 2117.05C1191.15 2021.1 1642.91 1762.91 1592.66 1276.1C1592.66 1276.1 1575.54 1185.26 1575.54 1058.86C1575.54 763.299 1669.11 273.379 2293.79 295.739C2672.08 309.299 3020.47 501.799 3231.1 809.919C3437.7 1112.13 3768.04 1483.96 4037.06 1271.68C4099.16 1222.66 4181.27 1204.5 4257.93 1226.05C4451.57 1280.44 4671.55 1562.01 4088.14 2809.3Z" fill="#ACBCF8"/>
</g>
<path opacity="0.15" d="M4590.47 3640.77C4590.47 3660.77 3654.54 3676.99 2500 3676.99C1848.57 3676.99 1266.73 3671.83 883.339 3663.73C795.032 3661.87 717.265 3659.85 651.6 3657.7C608.347 3656.29 570.345 3654.81 538.039 3653.29C454.92 3649.4 409.523 3645.18 409.523 3640.77C409.523 3635.16 483.205 3629.84 614.714 3625.1C668.571 3623.16 732.119 3621.31 804.279 3619.59C1183.97 3610.48 1802.04 3604.55 2500 3604.55C3113.94 3604.55 3666.07 3609.13 4048.52 3616.44C4385.27 3622.87 4590.47 3631.41 4590.47 3640.77Z" fill="#040C2B"/>
<path d="M3172.42 981.063L3035.48 1237.69C3030.29 1247.41 3018.2 1251.09 3008.48 1245.9L2781.55 1124.8C2771.83 1119.61 2768.16 1107.53 2773.35 1097.81L2935.5 793.949C2940.68 784.228 2952.77 780.552 2962.49 785.74L3141 881.002L3141.57 882.788L3172.42 981.063Z" fill="#E3E9F7"/>
<path opacity="0.1" d="M3172.42 981.065L3121.91 954.113C3114 949.89 3111.01 940.052 3115.23 932.138L3141.56 882.789L3172.42 981.065Z" fill="black"/>
<path d="M2950.56 1031.18L2954.86 1023.12C2958.58 1016.15 2963.3 1010.89 2969.03 1007.32C2974.76 1003.75 2983.13 1001.18 2994.14 999.592C3004.67 998.215 3012.06 996.47 3016.32 994.355C3020.57 992.241 3023.82 989.078 3026.07 984.867C3028.58 980.148 3028.76 975.625 3026.59 971.296C3024.42 966.969 3020.22 963.137 3013.97 959.806C3003.08 953.994 2988.77 950.928 2971.03 950.603L2971.89 920.419C2992.92 919.983 3012.52 924.608 3030.67 934.294C3045.62 942.275 3055.59 952.213 3060.58 964.108C3065.56 976.003 3064.86 987.94 3058.47 999.919C3054.21 1007.91 3048.71 1013.83 3041.98 1017.7C3035.25 1021.58 3024.87 1024.43 3010.83 1026.27C3001.11 1027.7 2994.61 1029.27 2991.32 1030.97C2988.04 1032.66 2985.23 1035.69 2982.91 1040.05L2979.42 1046.58L2950.56 1031.18ZM2927.2 1066.57C2930.46 1060.47 2934.55 1056.73 2939.48 1055.35C2944.41 1053.97 2950 1054.95 2956.25 1058.28C2962.27 1061.5 2966.08 1065.58 2967.69 1070.54C2969.28 1075.5 2968.49 1080.96 2965.32 1086.91C2962.26 1092.64 2958.17 1096.27 2953.07 1097.79C2947.97 1099.31 2942.44 1098.49 2936.49 1095.31C2930.39 1092.05 2926.53 1087.92 2924.92 1082.91C2923.3 1077.9 2924.06 1072.45 2927.2 1066.57Z" fill="#CDD7FB"/>
<path d="M1307.03 2343.98L1145.14 2592.37C1139.01 2601.78 1126.41 2604.44 1117 2598.31L897.352 2455.16C887.943 2449.03 885.286 2436.43 891.418 2427.02L1083.1 2132.9C1089.23 2123.49 1101.83 2120.84 1111.24 2126.97L1284.03 2239.58L1284.44 2241.44L1307.03 2343.98Z" fill="#E3E9F7"/>
<path opacity="0.1" d="M1307.03 2343.98L1258.14 2312.12C1250.48 2307.12 1248.32 2296.87 1253.31 2289.21L1284.44 2241.44L1307.03 2343.98Z" fill="black"/>
<path d="M1131.22 2459.94L1101.93 2440.85L1103.62 2376.77L1045.67 2404.19L1018.2 2386.29L1098.98 2350.06L1099.6 2267L1127.89 2285.44L1125.59 2345.95L1179.52 2319.09L1207.15 2337.1L1130.08 2372.33L1131.22 2459.94Z" fill="#CDD7FB"/>
<path d="M4120.95 1557.34L4227.14 1834.16C4231.16 1844.65 4225.93 1856.41 4215.44 1860.43L3970.66 1954.34C3960.17 1958.36 3948.41 1953.12 3944.38 1942.64L3818.64 1614.87C3814.62 1604.38 3819.86 1592.62 3830.35 1588.59L4022.91 1514.72L4024.66 1515.48L4120.95 1557.34Z" fill="#E3E9F7"/>
<path opacity="0.1" d="M4120.95 1557.34L4066.47 1578.24C4057.93 1581.52 4048.36 1577.25 4045.08 1568.72L4024.66 1515.48L4120.95 1557.34Z" fill="black"/>
<path d="M4096.13 1795.83L4075.4 1803.78L4046.43 1787.79L4035.59 1819.06L4016.15 1826.51L4032.19 1783.4L3994 1763.34L4014.02 1755.66L4041.09 1771.06L4050.55 1741.64L4070.11 1734.14L4055.12 1775.43L4096.13 1795.83Z" fill="#CDD7FB"/>
<path d="M4087.2 1609.83L3897.99 1682.42C3895.73 1683.28 3893.19 1682.15 3892.32 1679.89C3891.46 1677.63 3892.59 1675.09 3894.85 1674.23L4084.06 1601.64C4086.32 1600.77 4088.86 1601.9 4089.72 1604.16C4090.59 1606.43 4089.46 1608.96 4087.2 1609.83Z" fill="#CDD7FB"/>
<path d="M4095.37 1630.28L3906.16 1702.87C3903.9 1703.74 3901.36 1702.61 3900.49 1700.35C3899.63 1698.08 3900.76 1695.55 3903.02 1694.68L4092.23 1622.09C4094.49 1621.23 4097.03 1622.36 4097.9 1624.62C4098.76 1626.88 4097.63 1629.42 4095.37 1630.28Z" fill="#CDD7FB"/>
<path d="M4103.54 1650.74L3914.33 1723.33C3912.07 1724.19 3909.54 1723.06 3908.67 1720.8C3907.8 1718.54 3908.93 1716 3911.19 1715.14L4100.4 1642.55C4102.66 1641.68 4105.2 1642.81 4106.07 1645.07C4106.94 1647.34 4105.81 1649.87 4103.54 1650.74Z" fill="#CDD7FB"/>
<path d="M4111.71 1671.19L3922.5 1743.78C3920.24 1744.65 3917.7 1743.52 3916.83 1741.26C3915.96 1738.99 3917.09 1736.46 3919.36 1735.59L4108.57 1663C4110.83 1662.14 4113.36 1663.27 4114.23 1665.53C4115.1 1667.79 4113.97 1670.33 4111.71 1671.19Z" fill="#CDD7FB"/>
<path d="M4118.34 1692.32L3929.13 1764.91C3926.87 1765.78 3924.33 1764.65 3923.46 1762.38C3922.6 1760.12 3923.73 1757.59 3925.99 1756.72L4115.2 1684.13C4117.46 1683.26 4120 1684.39 4120.86 1686.66C4121.73 1688.92 4120.6 1691.45 4118.34 1692.32Z" fill="#CDD7FB"/>
<path d="M1350.71 3070.48L1470.14 3341.86C1474.66 3352.14 1470 3364.14 1459.72 3368.66L1219.75 3474.27C1209.47 3478.8 1197.47 3474.13 1192.95 3463.85L1051.53 3142.53C1047.01 3132.25 1051.67 3120.25 1061.95 3115.73L1250.73 3032.65L1252.51 3033.32L1350.71 3070.48Z" fill="#E3E9F7"/>
<path opacity="0.1" d="M1350.71 3070.48L1297.3 3093.99C1288.93 3097.67 1279.16 3093.87 1275.48 3085.51L1252.52 3033.32L1350.71 3070.48Z" fill="black"/>
<path d="M1337.43 3309.9L1317.11 3318.84L1287.4 3304.26L1278.08 3336.01L1259.03 3344.4L1272.96 3300.56L1233.85 3282.37L1253.48 3273.73L1281.26 3287.81L1289.29 3257.96L1308.46 3249.53L1295.49 3291.5L1337.43 3309.9Z" fill="#CDD7FB"/>
<path d="M1319.53 3124.54L1134.04 3206.18C1131.83 3207.15 1129.24 3206.15 1128.26 3203.93C1127.29 3201.71 1128.29 3199.12 1130.51 3198.15L1316 3116.51C1318.22 3115.54 1320.8 3116.54 1321.78 3118.76C1322.75 3120.98 1321.75 3123.57 1319.53 3124.54Z" fill="#CDD7FB"/>
<path d="M1328.68 3144.58L1143.19 3226.21C1140.98 3227.19 1138.39 3226.18 1137.41 3223.96C1136.44 3221.75 1137.44 3219.16 1139.66 3218.18L1325.15 3136.55C1327.36 3135.57 1329.95 3136.58 1330.93 3138.8C1331.9 3141.01 1330.9 3143.6 1328.68 3144.58Z" fill="#CDD7FB"/>
<path d="M1337.83 3164.61L1152.34 3246.25C1150.12 3247.22 1147.54 3246.22 1146.56 3244C1145.58 3241.78 1146.59 3239.19 1148.81 3238.22L1334.3 3156.58C1336.51 3155.61 1339.1 3156.61 1340.08 3158.83C1341.05 3161.05 1340.05 3163.64 1337.83 3164.61Z" fill="#CDD7FB"/>
<path d="M1346.98 3184.65L1161.49 3266.28C1159.27 3267.26 1156.68 3266.25 1155.71 3264.03C1154.73 3261.82 1155.74 3259.23 1157.96 3258.25L1343.44 3176.62C1345.66 3175.64 1348.25 3176.65 1349.22 3178.87C1350.2 3181.08 1349.19 3183.67 1346.98 3184.65Z" fill="#CDD7FB"/>
<path d="M1354.61 3205.44L1169.12 3287.07C1166.91 3288.05 1164.32 3287.04 1163.34 3284.82C1162.37 3282.61 1163.37 3280.02 1165.59 3279.04L1351.08 3197.41C1353.29 3196.43 1355.88 3197.44 1356.86 3199.66C1357.83 3201.87 1356.83 3204.46 1354.61 3205.44Z" fill="#CDD7FB"/>
<path d="M2179.71 1111.49L2299.14 1382.86C2303.66 1393.14 2299 1405.14 2288.72 1409.66L2048.75 1515.27C2038.47 1519.8 2026.47 1515.13 2021.95 1504.85L1880.53 1183.53C1876.01 1173.25 1880.67 1161.25 1890.95 1156.73L2079.73 1073.65L2081.51 1074.32L2179.71 1111.49Z" fill="#E3E9F7"/>
<path opacity="0.1" d="M2179.7 1111.49L2126.3 1134.99C2117.93 1138.68 2108.16 1134.88 2104.47 1126.51L2081.51 1074.32L2179.7 1111.49Z" fill="black"/>
<path d="M2166.43 1350.9L2146.11 1359.84L2116.4 1345.26L2107.08 1377.01L2088.03 1385.4L2101.96 1341.56L2062.85 1323.37L2082.48 1314.73L2110.26 1328.81L2118.29 1298.96L2137.46 1290.53L2124.49 1332.5L2166.43 1350.9Z" fill="#CDD7FB"/>
<path d="M2148.53 1165.54L1963.04 1247.18C1960.83 1248.15 1958.24 1247.15 1957.26 1244.93C1956.29 1242.71 1957.29 1240.12 1959.51 1239.15L2145 1157.51C2147.22 1156.54 2149.8 1157.54 2150.78 1159.76C2151.75 1161.98 2150.75 1164.57 2148.53 1165.54Z" fill="#CDD7FB"/>
<path d="M2157.68 1185.58L1972.19 1267.21C1969.98 1268.19 1967.39 1267.18 1966.41 1264.96C1965.44 1262.75 1966.44 1260.16 1968.66 1259.18L2154.15 1177.55C2156.36 1176.57 2158.95 1177.58 2159.93 1179.8C2160.9 1182.01 2159.9 1184.6 2157.68 1185.58Z" fill="#CDD7FB"/>
<path d="M2166.83 1205.61L1981.34 1287.25C1979.12 1288.22 1976.54 1287.22 1975.56 1285C1974.58 1282.78 1975.59 1280.19 1977.81 1279.22L2163.3 1197.58C2165.51 1196.61 2168.1 1197.61 2169.08 1199.83C2170.05 1202.05 2169.05 1204.64 2166.83 1205.61Z" fill="#CDD7FB"/>
<path d="M2175.98 1225.65L1990.49 1307.29C1988.27 1308.26 1985.68 1307.25 1984.71 1305.04C1983.73 1302.82 1984.74 1300.23 1986.96 1299.26L2172.44 1217.62C2174.66 1216.65 2177.25 1217.65 2178.22 1219.87C2179.2 1222.09 2178.19 1224.68 2175.98 1225.65Z" fill="#CDD7FB"/>
<path d="M2183.61 1246.44L1998.12 1328.07C1995.91 1329.05 1993.32 1328.04 1992.34 1325.82C1991.37 1323.61 1992.37 1321.02 1994.59 1320.04L2180.08 1238.41C2182.29 1237.43 2184.88 1238.44 2185.86 1240.66C2186.83 1242.87 2185.83 1245.46 2183.61 1246.44Z" fill="#CDD7FB"/>
<path d="M3427.56 1868.86H1572.45V3215H3427.56V1868.86Z" fill="#E3E9F7"/>
<path d="M3427.53 1699.88H1573.13V1869.23H3427.53V1699.88Z" fill="#ACBCF8"/>
<path d="M1658.9 1803.75C1674.64 1803.75 1687.4 1791.62 1687.4 1776.65C1687.4 1761.69 1674.64 1749.55 1658.9 1749.55C1643.17 1749.55 1630.41 1761.69 1630.41 1776.65C1630.41 1791.62 1643.17 1803.75 1658.9 1803.75Z" fill="#E3E9F7"/>
<path d="M1742.02 1803.75C1757.76 1803.75 1770.52 1791.62 1770.52 1776.65C1770.52 1761.69 1757.76 1749.55 1742.02 1749.55C1726.28 1749.55 1713.52 1761.69 1713.52 1776.65C1713.52 1791.62 1726.28 1803.75 1742.02 1803.75Z" fill="#E3E9F7"/>
<path d="M1825.15 1803.75C1840.89 1803.75 1853.64 1791.62 1853.64 1776.65C1853.64 1761.69 1840.89 1749.55 1825.15 1749.55C1809.41 1749.55 1796.65 1761.69 1796.65 1776.65C1796.65 1791.62 1809.41 1803.75 1825.15 1803.75Z" fill="#E3E9F7"/>
<path d="M3371.74 1939.73H1628.27V3144.13H3371.74V1939.73Z" fill="#F4F6FC"/>
<path d="M2770.45 2235.87V2765.42C2770.45 2785.48 2754.19 2801.74 2734.13 2801.74H2265.87C2245.81 2801.74 2229.55 2785.48 2229.55 2765.42V2138.4C2229.55 2118.34 2245.81 2102.08 2265.87 2102.08H2634.23L2636.67 2104.47L2770.45 2235.87Z" fill="#ACBCF8"/>
<path opacity="0.15" d="M2770.45 2235.87H2666.23C2649.9 2235.87 2636.66 2222.63 2636.66 2206.3V2104.47L2770.45 2235.87Z" fill="black"/>
<path d="M2348.39 2980.86H2330.22L2300.9 2929.87H2300.49C2301.07 2938.88 2301.36 2945.3 2301.36 2949.14V2980.86H2288.59V2913.46H2306.62L2335.89 2963.94H2336.22C2335.76 2955.18 2335.53 2948.99 2335.53 2945.36V2913.46H2348.39L2348.39 2980.86Z" fill="black"/>
<path d="M2426.53 2947.07C2426.53 2958.22 2423.77 2966.8 2418.24 2972.79C2412.7 2978.79 2404.77 2981.78 2394.45 2981.78C2384.12 2981.78 2376.19 2978.79 2370.66 2972.79C2365.13 2966.8 2362.36 2958.19 2362.36 2946.98C2362.36 2935.76 2365.13 2927.19 2370.68 2921.27C2376.23 2915.36 2384.18 2912.4 2394.54 2912.4C2404.9 2912.4 2412.82 2915.38 2418.31 2921.34C2423.79 2927.31 2426.53 2935.88 2426.53 2947.07ZM2377.34 2947.07C2377.34 2954.6 2378.77 2960.27 2381.63 2964.08C2384.49 2967.89 2388.76 2969.8 2394.45 2969.8C2405.85 2969.8 2411.55 2962.22 2411.55 2947.07C2411.55 2931.88 2405.88 2924.29 2394.54 2924.29C2388.85 2924.29 2384.56 2926.21 2381.68 2930.03C2378.79 2933.86 2377.34 2939.54 2377.34 2947.07Z" fill="black"/>
<path d="M2520.95 2946.52C2520.95 2957.61 2517.8 2966.11 2511.48 2972.01C2505.16 2977.91 2496.04 2980.86 2484.12 2980.86H2465.03V2913.46H2486.19C2497.19 2913.46 2505.74 2916.37 2511.83 2922.17C2517.91 2927.98 2520.95 2936.1 2520.95 2946.52ZM2506.11 2946.89C2506.11 2932.41 2499.72 2925.17 2486.93 2925.17H2479.32V2969.06H2485.46C2499.22 2969.06 2506.11 2961.67 2506.11 2946.89Z" fill="black"/>
<path d="M2576.18 2980.86L2571.3 2964.82H2546.72L2541.84 2980.86H2526.44L2550.23 2913.18H2567.7L2591.58 2980.86H2576.18ZM2567.88 2952.83C2563.37 2938.29 2560.82 2930.07 2560.25 2928.17C2559.69 2926.26 2559.28 2924.75 2559.03 2923.65C2558.02 2927.58 2555.11 2937.31 2550.32 2952.83H2567.88Z" fill="black"/>
<path d="M2626.06 2980.86H2611.77V2925.35H2593.47V2913.46H2644.37V2925.35H2626.06V2980.86Z" fill="black"/>
<path d="M2696 2980.86L2691.12 2964.82H2666.54L2661.66 2980.86H2646.26L2670.05 2913.18H2687.52L2711.4 2980.86H2696ZM2687.7 2952.83C2683.19 2938.29 2680.64 2930.07 2680.07 2928.17C2679.51 2926.26 2679.1 2924.75 2678.85 2923.65C2677.84 2927.58 2674.93 2937.31 2670.14 2952.83H2687.7Z" fill="black"/>
<path d="M3681.85 2619.77H3738.19C3780.61 2619.77 3815 2585.38 3815 2542.96C3815 2500.54 3780.61 2466.16 3738.19 2466.16H3681.85C3639.43 2466.16 3605.05 2500.54 3605.05 2542.96C3605.05 2585.38 3639.43 2619.77 3681.85 2619.77Z" fill="white"/>
<path d="M3685.66 2607.38H3734.38C3734.38 2607.38 3730.02 2646.61 3685.66 2666.1C3685.66 2666.1 3709 2631.74 3685.66 2607.38Z" fill="white"/>
<path d="M3698.02 2558.24V2553.59C3698.02 2549.56 3698.88 2546.06 3700.59 2543.09C3702.31 2540.11 3705.45 2536.95 3710.02 2533.6C3714.42 2530.45 3717.32 2527.9 3718.73 2525.93C3720.13 2523.96 3720.83 2521.76 3720.83 2519.33C3720.83 2516.61 3719.83 2514.53 3717.82 2513.11C3715.81 2511.68 3713 2510.97 3709.39 2510.97C3703.11 2510.97 3695.94 2513.02 3687.9 2517.13L3681.05 2503.36C3690.39 2498.13 3700.3 2495.51 3710.78 2495.51C3719.41 2495.51 3726.27 2497.58 3731.36 2501.73C3736.45 2505.88 3739 2511.41 3739 2518.32C3739 2522.93 3737.95 2526.91 3735.86 2530.27C3733.76 2533.62 3729.78 2537.39 3723.91 2541.58C3719.89 2544.56 3717.35 2546.82 3716.28 2548.37C3715.21 2549.92 3714.67 2551.95 3714.67 2554.47V2558.24H3698.02ZM3696.01 2579.73C3696.01 2576.21 3696.95 2573.55 3698.83 2571.75C3700.72 2569.95 3703.46 2569.05 3707.07 2569.05C3710.55 2569.05 3713.24 2569.97 3715.15 2571.81C3717.05 2573.66 3718.01 2576.3 3718.01 2579.73C3718.01 2583.04 3717.04 2585.65 3715.11 2587.56C3713.19 2589.46 3710.5 2590.42 3707.07 2590.42C3703.55 2590.42 3700.83 2589.49 3698.9 2587.62C3696.97 2585.76 3696.01 2583.13 3696.01 2579.73Z" fill="#ACBCF8"/>
<path opacity="0.67" d="M3529.4 3583.47L3555.75 3593.72L3548.06 3630.89L3503.05 3616.79L3529.4 3583.47Z" fill="#050505"/>
<path d="M3162.19 3501.13C3162.19 3501.13 3091.93 3492.8 3076.56 3530.6C3076.56 3530.6 3075.47 3624.8 3119.38 3631.21C3119.38 3631.21 3156.7 3635.05 3180.85 3618.39L3321.37 3602.37L3416.87 3595.96L3162.19 3501.13Z" fill="#040C2B"/>
<path d="M3584.29 3546.3C3584.29 3546.3 3621.16 3605.61 3599.34 3629.19C3595.96 3632.84 3600.67 3637.27 3607.78 3637.25L3756.09 3636.98C3756.09 3636.98 3840.62 3652.36 3857.08 3587.64C3857.08 3587.64 3866.97 3519.07 3759.38 3507.54C3651.8 3496 3758.29 3503.69 3758.29 3503.69C3758.29 3503.69 3633.14 3512.66 3584.29 3546.3Z" fill="#040C2B"/>
<path d="M3643.02 3549.19L3642.61 3552.98L3634.24 3631.21L3477.8 3617.43L3529.29 3550.05L3529.95 3549.19C3643.02 3551.75 3643.02 3549.19 3643.02 3549.19Z" fill="#DE995F"/>
<path opacity="0.38" d="M3643.02 3549.19L3642.61 3552.98L3560.14 3555.28L3529.29 3550.05L3529.95 3549.19C3643.02 3551.75 3643.02 3549.19 3643.02 3549.19Z" fill="#050505"/>
<path d="M3883.06 3414.18L3700.89 3449.57L3461.89 3496L3272.04 3451.81L2972.26 3382.03C2958.56 3279.09 3174.27 3338.36 3174.27 3338.36L3314.71 3354.11H3314.73L3397.12 3363.35L3583.74 3388.99L3643.02 3365.53L3713.28 3337.72C3902.64 3321.38 3883.06 3414.18 3883.06 3414.18Z" fill="#081956"/>
<path opacity="0.3" d="M3700.89 3449.57L3461.88 3496L3272.04 3451.81L3220.38 3421.03L3314.71 3354.12H3314.73L3397.12 3363.36L3583.74 3388.99L3643.02 3365.53L3700.89 3449.57Z" fill="black"/>
<path d="M3195.12 3531.24L3453.1 3463.96C3453.1 3463.96 3637.53 3395.4 3669.36 3399.24C3669.36 3399.24 3897.7 3281.97 3882.33 3425.51C3882.33 3425.51 3908.68 3538.29 3501.4 3555.59L3195.12 3531.24Z" fill="#081956"/>
<path opacity="0.13" d="M3372.42 3484.79L3400.96 3476.46C3422.56 3490.85 3463.16 3502.83 3489.88 3514.91C3520.12 3528.56 3556.85 3541.18 3591.98 3549.51C3568.92 3552.29 3545.87 3555.06 3522.82 3557.84L3372.42 3484.79Z" fill="black"/>
<path d="M3572.21 3551.43C3572.21 3551.43 3497.01 3611.35 3547.51 3631.21C3547.51 3631.21 3255.69 3598.45 3022.25 3468.04C3004.56 3458.16 2992.01 3445.55 2986.11 3431.68C2964.73 3381.4 2935.19 3267.01 3165.49 3364.64C3165.49 3364.64 3344.38 3425.42 3403.34 3477.71C3414.63 3487.72 3428.03 3496.86 3443.58 3504.69C3480.48 3523.28 3543.04 3552.3 3572.21 3551.43Z" fill="#081956"/>
<path d="M3393.82 2886.36L3529.95 2886.6L3573.86 2969.27C3573.86 2969.27 3488.23 3098.71 3365.28 2983.36C3370.75 2964.78 3388.91 2937.54 3394.37 2918.96C3403.15 2899.74 3402.06 2901.02 3393.82 2886.36Z" fill="#CC8B5B"/>
<path d="M3747 3021.58L3716.57 3265.31L3247.82 3260.83C3247.82 3260.83 3280 3136.71 3273.58 3116.56C3273.19 3115.33 3272.66 3114.49 3271.97 3114.08L3142.43 3109.6C3142.43 3109.6 3143.42 3091.82 3147.65 3068.36C3154.81 3028.77 3171.22 2973.01 3207.75 2959.33C3213.77 2957.08 3231.35 2950.04 3231.35 2950.04C3231.35 2950.04 3391.08 2908.07 3394.37 2918.96C3394.37 2918.96 3385.59 3046.48 3559.04 2940.75C3559.04 2940.75 3759.87 2990.59 3747 3021.58Z" fill="white"/>
<path d="M3651.8 3277.49L3661.4 3358.25L3769.62 3325.41C3794.15 3317.97 3810.95 3303.92 3813.98 3287.88C3816.67 3273.6 3814.96 3253.27 3802.19 3224.94L3778.04 3117.93C3778.04 3117.93 3789.57 3043.92 3733.58 3002.27C3733.58 3002.27 3713.27 3124.98 3677.05 3145.48L3669.36 3248.01L3651.8 3277.49Z" fill="white"/>
<path opacity="0.1" d="M3348.3 2978.88L3273.58 3116.56C3273.19 3115.33 3272.66 3114.49 3271.97 3114.08L3142.43 3109.6C3142.43 3109.6 3143.42 3091.82 3147.65 3068.36L3279.14 2945.55C3279.14 2945.55 3335.13 2978.23 3348.3 2978.88Z" fill="black"/>
<path d="M3372.64 2897C3369.43 2918.43 3365.64 2925 3354.31 2959.01L3336.74 2992.33L3287.34 2959.01L3300.52 2945.56L3293.93 2884.68L3310.6 2843.9C3316.53 2829.41 3331.23 2820.16 3346.8 2821.84C3364.25 2823.71 3381.3 2839.04 3372.64 2897Z" fill="#DE995F"/>
<path opacity="0.13" d="M3240.14 3103.83L3274.42 3126.06L3263.74 3194.5L3354.31 2991.05L3321.92 2982.34L3240.14 3103.83Z" fill="black"/>
<path d="M3285.15 2945.55C3285.15 2945.55 3341.13 2978.24 3354.31 2978.88L3248.92 3173.04C3248.92 3173.04 3181.18 3256.95 3111.62 3193.84C3068.78 3154.97 3082.59 3103.16 3145.24 3074.9C3146.13 3074.5 3147.02 3074.11 3147.92 3073.71L3285.15 2945.55Z" fill="white"/>
<path opacity="0.13" d="M3393.27 2917.04C3393.27 2917.04 3458.42 3011.08 3543.86 2912.8L3517.32 2874.11L3409.19 2886.39L3393.27 2917.04Z" fill="black"/>
<path d="M3365.28 2753.32C3365.28 2753.32 3490.43 2684.75 3540.92 2744.99C3540.92 2744.99 3645.21 2850.72 3482.74 2945.56C3482.74 2945.56 3377.36 2992.34 3365.28 2753.32Z" fill="#DE995F"/>
<path d="M3378.85 2853.25L3346.23 2798.67C3338.75 2786.15 3335.36 2772.92 3336.33 2759.67C3339.35 2718.17 3364.68 2638.48 3520.07 2673.22C3520.07 2673.22 3656.19 2732.81 3580.44 2809.07L3555.19 2864.17C3555.19 2864.17 3558.49 2764.85 3520.07 2759.72C3520.07 2759.72 3432.24 2778.95 3375.16 2777.67C3375.16 2777.67 3373.52 2845.91 3378.85 2853.25Z" fill="black"/>
<path d="M3409.19 2841.74C3425.56 2841.74 3438.83 2834 3438.83 2824.44C3438.83 2814.89 3425.56 2807.14 3409.19 2807.14C3392.83 2807.14 3379.55 2814.89 3379.55 2824.44C3379.55 2834 3392.83 2841.74 3409.19 2841.74Z" stroke="black" stroke-width="2.0633" stroke-miterlimit="10"/>
<path d="M3499.21 2839.18C3515.58 2839.18 3528.85 2831.44 3528.85 2821.88C3528.85 2812.32 3515.58 2804.58 3499.21 2804.58C3482.84 2804.58 3469.57 2812.32 3469.57 2821.88C3469.57 2831.44 3482.84 2839.18 3499.21 2839.18Z" stroke="black" stroke-width="2.0633" stroke-miterlimit="10"/>
<path d="M3438.51 2821.88C3438.51 2821.88 3452.01 2830.85 3469.57 2821.88" stroke="black" stroke-width="2.0633" stroke-miterlimit="10"/>
<path d="M3379.55 2824.44L3364.73 2814.51" stroke="black" stroke-width="2.0633" stroke-miterlimit="10"/>
<path d="M3528.85 2821.88L3566.18 2817.39" stroke="black" stroke-width="2.0633" stroke-miterlimit="10"/>
<path opacity="0.13" d="M3661.13 3274.61C3661.13 3274.61 3694.07 3248.97 3733.59 3246.41C3733.59 3246.41 3724.8 3240.64 3700.65 3246.41C3700.65 3246.41 3722.61 3232.96 3747.86 3238.08C3747.86 3238.08 3695.16 3218.22 3661.13 3274.61Z" fill="black"/>
<path d="M3225.6 3195.32L3665.51 3189.84C3671.86 3189.77 3677.05 3194.89 3677.05 3201.24V3384.21C3677.05 3390.45 3672.02 3395.53 3665.78 3395.6L3234.65 3400.4C3228.52 3400.47 3223.44 3395.68 3223.14 3389.55L3214.36 3207.27C3214.05 3200.82 3219.15 3195.4 3225.6 3195.32Z" fill="#829CF8"/>
<path opacity="0.13" d="M3234.1 3389.95C3234.1 3389.95 3160.57 3344.07 3026.62 3330.36C3026.62 3330.36 3093.58 3325.87 3240.68 3376.49L3234.1 3389.95Z" fill="black"/>
<path opacity="0.13" d="M3677.6 3395.71C3677.6 3395.71 3810.49 3327.69 3863.43 3364.11C3863.43 3364.11 3835.68 3323.95 3661.13 3391.87L3677.6 3395.71Z" fill="black"/>
<path opacity="0.13" d="M3676.5 3145.16C3676.5 3145.16 3750.05 3090.05 3747.85 3061.86C3747.85 3061.86 3728.1 3086.85 3722.61 3091.34C3722.61 3091.34 3750.05 3057.37 3739.07 3043.92C3739.07 3043.92 3723.75 3086.58 3712.2 3087.35L3676.5 3145.16Z" fill="black"/>
<path opacity="0.13" d="M3675.95 3144.84C3675.95 3144.84 3730.84 3037.19 3719.86 3031.42C3719.86 3031.42 3717.67 3052.57 3675.95 3144.84Z" fill="black"/>
<path d="M2589.9 2542.07L2544.65 2542.76L2500.1 2472.74L2457.72 2544.09L2415.28 2544.74L2475.81 2447.41L2416.39 2357.8L2460.1 2357.13L2501.4 2423.75L2539.87 2355.91L2582.56 2355.26L2525.31 2448.83L2589.9 2542.07Z" fill="#F4F6FC"/>
</g>
<defs>
<clipPath id="clip0_3547_224">
<rect width="5000" height="4000" fill="white"/>
</clipPath>
</defs>
</svg>