<svg width="20" height="20" viewBox="0 0 20 20" fill="none" xmlns="http://www.w3.org/2000/svg">
<path fill-rule="evenodd" clip-rule="evenodd" d="M4.99967 3.33334C4.99967 1.95264 6.11897 0.833344 7.49967 0.833344H13.476C14.139 0.833344 14.7749 1.09674 15.2438 1.56558L18.4341 4.75594C18.9029 5.22478 19.1663 5.86066 19.1663 6.5237V16.6667C19.1663 18.0474 18.0471 19.1667 16.6663 19.1667H7.49967C6.11897 19.1667 4.99967 18.0474 4.99967 16.6667V15.8333C4.99967 15.3731 5.37277 15 5.83301 15C6.29324 15 6.66634 15.3731 6.66634 15.8333V16.6667C6.66634 17.1269 7.03944 17.5 7.49967 17.5H16.6663C17.1266 17.5 17.4997 17.1269 17.4997 16.6667V7.50001H14.9997C13.6189 7.50001 12.4997 6.38072 12.4997 5.00001V2.50001H7.49967C7.03944 2.50001 6.66634 2.87311 6.66634 3.33334V9.16668C6.66634 9.62693 6.29324 10 5.83301 10C5.37277 10 4.99967 9.62693 4.99967 9.16668V3.33334ZM14.1663 2.84519L17.1545 5.83334H14.9997C14.5394 5.83334 14.1663 5.46024 14.1663 5.00001V2.84519ZM12.2556 13.0893L9.75568 15.5893C9.43026 15.9147 8.90259 15.9147 8.57718 15.5893C8.2517 15.2638 8.2517 14.7362 8.57709 14.4108L9.65451 13.3333H1.66634C1.2061 13.3333 0.833008 12.9603 0.833008 12.5C0.833008 12.0398 1.2061 11.6667 1.66634 11.6667H9.65451L8.57709 10.5893C8.2517 10.2638 8.2517 9.73618 8.57718 9.41076C8.90259 9.08534 9.43026 9.08534 9.75568 9.41076L12.2556 11.9108C12.581 12.2362 12.581 12.7638 12.2556 13.0893Z" fill="white"/>
</svg>
