<svg width="430" height="430" viewBox="0 0 430 430" fill="none" xmlns="http://www.w3.org/2000/svg">
<path d="M209.854 359.334C286.973 359.334 349.49 296.816 349.49 219.698C349.49 142.579 286.973 80.062 209.854 80.062C132.735 80.062 70.2178 142.579 70.2178 219.698C70.2178 296.816 132.734 359.334 209.854 359.334Z" fill="url(#paint0_linear_17479_4)"/>
<path d="M285.186 112.555H130.499C120.857 112.555 113.04 120.372 113.04 130.014H302.644C302.644 120.371 294.828 112.555 285.186 112.555Z" fill="url(#paint1_linear_17479_4)"/>
<path d="M113.041 129.536H302.645V273.941C302.645 280.362 300.095 286.519 295.555 291.059C291.015 295.599 284.858 298.149 278.437 298.149H137.248C130.827 298.149 124.671 295.599 120.13 291.059C115.59 286.519 113.04 280.362 113.04 273.941L113.041 129.536Z" fill="url(#paint2_linear_17479_4)"/>
<path d="M270.052 147.775H145.693C143.104 147.775 141.004 149.873 141.004 152.46C141.004 155.047 143.104 157.145 145.693 157.145H270.052C272.643 157.145 274.741 155.047 274.741 152.46C274.741 149.873 272.643 147.775 270.052 147.775Z" fill="url(#paint3_linear_17479_4)"/>
<path d="M270.052 187.579H145.693C143.104 187.579 141.004 189.677 141.004 192.264C141.004 194.851 143.104 196.949 145.693 196.949H270.052C272.643 196.949 274.741 194.851 274.741 192.264C274.742 189.676 272.643 187.579 270.052 187.579Z" fill="url(#paint4_linear_17479_4)"/>
<path d="M270.052 227.381H145.693C143.104 227.381 141.004 229.479 141.004 232.066C141.004 234.653 143.104 236.751 145.693 236.751H270.052C272.643 236.751 274.741 234.653 274.741 232.066C274.742 229.479 272.643 227.381 270.052 227.381Z" fill="url(#paint5_linear_17479_4)"/>
<path d="M270.052 267.185H145.693C143.104 267.185 141.004 269.283 141.004 271.87C141.004 274.457 143.104 276.553 145.693 276.553H270.052C272.643 276.553 274.741 274.457 274.741 271.87C274.742 269.283 272.643 267.185 270.052 267.185Z" fill="url(#paint6_linear_17479_4)"/>
<path d="M144.852 218.845H78.632C73.312 218.845 69 223.157 69 228.477V323.127C69 328.447 73.313 332.759 78.632 332.759H144.852C150.171 332.759 154.484 328.447 154.484 323.127V228.477C154.484 223.157 150.171 218.845 144.852 218.845Z" fill="url(#paint7_linear_17479_4)"/>
<path d="M333.357 71H260.215C256.806 71 254.044 73.763 254.044 77.171V111.55C254.044 114.957 256.806 117.721 260.215 117.721H333.357C336.765 117.721 339.528 114.958 339.528 111.55V77.171C339.528 73.764 336.764 71 333.357 71Z" fill="url(#paint8_linear_17479_4)"/>
<path d="M137.463 266.194H86.0217C84.2897 266.194 82.8857 267.599 82.8857 269.331V269.341C82.8857 271.073 84.2897 272.477 86.0217 272.477H137.463C139.195 272.477 140.599 271.073 140.599 269.341V269.331C140.599 267.599 139.195 266.194 137.463 266.194Z" fill="url(#paint9_linear_17479_4)"/>
<path d="M137.492 310.404H86.4928C84.7758 310.404 83.3838 311.765 83.3838 313.443V313.453C83.3838 315.132 84.7758 316.492 86.4928 316.492H137.492C139.209 316.492 140.601 315.132 140.601 313.453V313.443C140.601 311.765 139.208 310.404 137.492 310.404Z" fill="url(#paint10_linear_17479_4)"/>
<path d="M137.492 287.273H86.4928C84.7758 287.273 83.3838 288.634 83.3838 290.312V290.322C83.3838 292.001 84.7758 293.361 86.4928 293.361H137.492C139.209 293.361 140.601 292.001 140.601 290.322V290.312C140.601 288.634 139.208 287.273 137.492 287.273Z" fill="url(#paint11_linear_17479_4)"/>
<path d="M104.831 233.461H89.798C86.468 233.461 83.769 236.16 83.769 239.49V243.662C83.769 246.992 86.468 249.692 89.798 249.692H104.831C108.161 249.692 110.86 246.992 110.86 243.662V239.49C110.859 236.16 108.16 233.461 104.831 233.461Z" fill="url(#paint12_linear_17479_4)"/>
<path d="M272.095 101.451C276.014 101.451 279.19 98.274 279.19 94.356C279.19 90.437 276.014 87.261 272.095 87.261C268.176 87.261 265 90.437 265 94.356C265 98.273 268.176 101.451 272.095 101.451Z" fill="#81D5E7"/>
<path d="M297.45 101.451C301.369 101.451 304.545 98.274 304.545 94.356C304.545 90.437 301.369 87.261 297.45 87.261C293.531 87.261 290.355 90.437 290.355 94.356C290.355 98.273 293.531 101.451 297.45 101.451Z" fill="#81D5E7"/>
<path d="M322.804 101.451C326.723 101.451 329.899 98.274 329.899 94.356C329.899 90.437 326.723 87.261 322.804 87.261C318.885 87.261 315.709 90.437 315.709 94.356C315.709 98.273 318.886 101.451 322.804 101.451Z" fill="#81D5E7"/>
<path d="M303.568 270.673L285.598 290.482L336.248 336.424L354.217 316.613L303.568 270.673Z" fill="url(#paint13_linear_17479_4)"/>
<path fill-rule="evenodd" clip-rule="evenodd" d="M322.557 237.884C322.557 279.328 288.961 312.924 247.518 312.924C206.074 312.924 172.478 279.328 172.478 237.884C172.478 196.442 206.074 162.845 247.518 162.845C288.961 162.845 322.557 196.441 322.557 237.884ZM311.047 237.884C311.047 272.97 282.604 301.414 247.517 301.414C212.43 301.414 183.987 272.971 183.987 237.884C183.987 202.798 212.43 174.354 247.517 174.354C282.604 174.354 311.047 202.797 311.047 237.884Z" fill="url(#paint14_linear_17479_4)"/>
<path d="M247.519 301.413C282.605 301.413 311.049 272.97 311.049 237.883C311.049 202.797 282.606 174.353 247.519 174.353C212.432 174.353 183.989 202.796 183.989 237.883C183.989 272.97 212.432 301.413 247.519 301.413Z" fill="url(#paint15_linear_17479_4)" fill-opacity="0.2"/>
<path d="M262.783 237.884L280.953 219.675C282.655 217.873 283.587 215.479 283.552 213.001C283.517 210.522 282.517 208.156 280.764 206.403C279.012 204.651 276.644 203.65 274.167 203.616C271.688 203.581 269.295 204.513 267.493 206.215L249.283 224.425L231.115 206.215C230.241 205.29 229.19 204.55 228.024 204.037C226.859 203.524 225.603 203.252 224.329 203.234C223.057 203.217 221.793 203.454 220.614 203.933C219.434 204.411 218.363 205.122 217.463 206.022C216.562 206.923 215.852 207.994 215.373 209.174C214.895 210.352 214.657 211.616 214.675 212.889C214.693 214.162 214.966 215.419 215.478 216.584C215.989 217.749 216.729 218.8 217.655 219.675L235.855 237.884L217.655 256.094C216.73 256.968 215.99 258.019 215.478 259.185C214.965 260.35 214.693 261.606 214.675 262.88C214.657 264.152 214.894 265.416 215.373 266.595C215.853 267.775 216.562 268.846 217.463 269.746C218.363 270.647 219.434 271.357 220.614 271.836C221.794 272.314 223.057 272.552 224.329 272.534C225.602 272.516 226.859 272.243 228.024 271.731C229.19 271.22 230.241 270.48 231.115 269.553L249.325 251.344L267.534 269.553C269.353 271.155 271.713 272.004 274.136 271.924C276.557 271.846 278.858 270.847 280.57 269.13C282.28 267.415 283.273 265.11 283.344 262.688C283.415 260.267 282.56 257.909 280.953 256.095L262.783 237.884Z" fill="url(#paint16_linear_17479_4)"/>
<path d="M249.619 279.571C274.284 279.571 294.279 276.617 294.279 272.973C294.279 269.329 274.284 266.375 249.619 266.375C224.954 266.375 204.959 269.329 204.959 272.973C204.959 276.617 224.954 279.571 249.619 279.571Z" fill="#EC5575" fill-opacity="0.56"/>
<path d="M200.491 306.497L200.508 329.502C200.509 330.914 201.652 332.057 203.063 332.059L226.069 332.075L203.063 332.092C201.652 332.092 200.509 333.236 200.508 334.647L200.491 357.653L200.475 334.647C200.474 333.236 199.331 332.092 197.918 332.092L174.913 332.075L197.918 332.059C199.33 332.058 200.473 330.915 200.475 329.502L200.491 306.497Z" fill="url(#paint17_linear_17479_4)"/>
<path d="M99.4481 72.758L99.4641 95.763C99.4651 97.174 100.609 98.318 102.02 98.32L125.026 98.336L102.02 98.352C100.609 98.353 99.4651 99.498 99.4641 100.909L99.4481 123.914L99.4321 100.909C99.4311 99.498 98.2871 98.354 96.8761 98.352L73.8701 98.336L96.8761 98.32C98.2871 98.319 99.4311 97.174 99.4321 95.763L99.4481 72.758Z" fill="url(#paint18_linear_17479_4)"/>
<path fill-rule="evenodd" clip-rule="evenodd" d="M204.287 84.48C206.641 84.48 208.55 82.572 208.55 80.218C208.55 77.864 206.641 75.955 204.287 75.955C201.933 75.955 200.024 77.864 200.024 80.218C200.023 82.573 201.932 84.48 204.287 84.48ZM204.287 87.678C208.407 87.678 211.747 84.337 211.747 80.218C211.747 76.097 208.406 72.758 204.287 72.758C200.166 72.758 196.827 76.097 196.827 80.218C196.826 84.338 200.166 87.678 204.287 87.678Z" fill="url(#paint19_linear_17479_4)"/>
<path d="M336.843 201.866C336.438 200.276 337.906 198.843 339.486 199.288L350.148 202.284C351.728 202.728 352.235 204.715 351.06 205.862L343.134 213.597C341.96 214.743 339.986 214.189 339.58 212.599L336.843 201.866Z" fill="url(#paint20_linear_17479_4)"/>
<path d="M86.9107 183.563C88.5017 183.16 89.9317 184.629 89.4857 186.208L86.4757 196.866C86.0297 198.445 84.0417 198.949 82.8967 197.774L75.1707 189.838C74.0257 188.662 74.5837 186.689 76.1737 186.284L86.9107 183.563Z" fill="url(#paint21_linear_17479_4)"/>
<path d="M290.216 330.867C291.806 330.464 293.236 331.933 292.791 333.512L289.782 344.171C289.335 345.75 287.347 346.254 286.203 345.078L278.477 337.142C277.333 335.966 277.89 333.993 279.48 333.59L290.216 330.867Z" fill="url(#paint22_linear_17479_4)"/>
<path fill-rule="evenodd" clip-rule="evenodd" d="M346.721 146.567C349.075 146.567 350.984 144.659 350.984 142.305C350.984 139.951 349.075 138.042 346.721 138.042C344.367 138.042 342.458 139.951 342.458 142.305C342.458 144.659 344.367 146.567 346.721 146.567ZM346.721 149.765C350.841 149.765 354.181 146.424 354.181 142.305C354.181 138.184 350.84 134.845 346.721 134.845C342.6 134.845 339.261 138.184 339.261 142.305C339.261 146.425 342.6 149.765 346.721 149.765Z" fill="url(#paint23_linear_17479_4)"/>
<path d="M336.244 336.427L354.213 316.616L356.919 319.071C359.545 321.452 361.118 324.781 361.291 328.322C361.463 331.862 360.222 335.327 357.84 337.953C355.459 340.579 352.13 342.152 348.589 342.325C345.049 342.497 341.584 341.256 338.958 338.874L336.251 336.42L336.244 336.427Z" fill="#65C8DE"/>
<defs>
<linearGradient id="paint0_linear_17479_4" x1="208.774" y1="34.5928" x2="211.634" y2="524.974" gradientUnits="userSpaceOnUse">
<stop stop-color="white" stop-opacity="0"/>
<stop offset="1" stop-color="#8EE2F4"/>
</linearGradient>
<linearGradient id="paint1_linear_17479_4" x1="112.925" y1="115.184" x2="302.838" y2="128.576" gradientUnits="userSpaceOnUse">
<stop stop-color="#90E3F5"/>
<stop offset="1" stop-color="#65C8DE"/>
</linearGradient>
<linearGradient id="paint2_linear_17479_4" x1="108.132" y1="211.856" x2="382.046" y2="216.726" gradientUnits="userSpaceOnUse">
<stop stop-color="white"/>
<stop offset="1" stop-color="#BCF3FF"/>
</linearGradient>
<linearGradient id="paint3_linear_17479_4" x1="135.348" y1="152.459" x2="282.652" y2="152.459" gradientUnits="userSpaceOnUse">
<stop stop-color="#65C8DE"/>
<stop offset="1" stop-color="#D2F7FF"/>
</linearGradient>
<linearGradient id="paint4_linear_17479_4" x1="135.348" y1="192.263" x2="282.652" y2="192.263" gradientUnits="userSpaceOnUse">
<stop stop-color="#65C8DE"/>
<stop offset="1" stop-color="#D2F7FF"/>
</linearGradient>
<linearGradient id="paint5_linear_17479_4" x1="135.348" y1="232.066" x2="282.652" y2="232.066" gradientUnits="userSpaceOnUse">
<stop stop-color="#65C8DE"/>
<stop offset="1" stop-color="#D2F7FF"/>
</linearGradient>
<linearGradient id="paint6_linear_17479_4" x1="135.348" y1="271.869" x2="282.652" y2="271.869" gradientUnits="userSpaceOnUse">
<stop stop-color="#65C8DE"/>
<stop offset="1" stop-color="#D2F7FF"/>
</linearGradient>
<linearGradient id="paint7_linear_17479_4" x1="69.059" y1="272.296" x2="232.903" y2="285.752" gradientUnits="userSpaceOnUse">
<stop stop-color="white"/>
<stop offset="1" stop-color="#BCF3FF"/>
</linearGradient>
<linearGradient id="paint8_linear_17479_4" x1="251.853" y1="93.0608" x2="375.283" y2="96.6314" gradientUnits="userSpaceOnUse">
<stop stop-color="white"/>
<stop offset="1" stop-color="#BCF3FF"/>
</linearGradient>
<linearGradient id="paint9_linear_17479_4" x1="147.297" y1="269.336" x2="77.9049" y2="269.336" gradientUnits="userSpaceOnUse">
<stop stop-color="#D2F7FF"/>
<stop offset="1" stop-color="#65C8DE"/>
</linearGradient>
<linearGradient id="paint10_linear_17479_4" x1="147.241" y1="313.447" x2="78.4462" y2="313.447" gradientUnits="userSpaceOnUse">
<stop stop-color="#D2F7FF"/>
<stop offset="1" stop-color="#65C8DE"/>
</linearGradient>
<linearGradient id="paint11_linear_17479_4" x1="147.241" y1="290.317" x2="78.4462" y2="290.317" gradientUnits="userSpaceOnUse">
<stop stop-color="#D2F7FF"/>
<stop offset="1" stop-color="#65C8DE"/>
</linearGradient>
<linearGradient id="paint12_linear_17479_4" x1="129.645" y1="241.576" x2="80.3401" y2="241.576" gradientUnits="userSpaceOnUse">
<stop offset="0.2438" stop-color="#D2F7FF"/>
<stop offset="1" stop-color="#6BCBE0"/>
</linearGradient>
<linearGradient id="paint13_linear_17479_4" x1="310.839" y1="313.496" x2="328.978" y2="293.602" gradientUnits="userSpaceOnUse">
<stop stop-color="#90E3F5"/>
<stop offset="1" stop-color="#65C8DE"/>
</linearGradient>
<linearGradient id="paint14_linear_17479_4" x1="172.049" y1="237.395" x2="323.114" y2="238.375" gradientUnits="userSpaceOnUse">
<stop stop-color="#90E3F5"/>
<stop offset="1" stop-color="#65C8DE"/>
</linearGradient>
<linearGradient id="paint15_linear_17479_4" x1="226.202" y1="182.569" x2="290.218" y2="348.686" gradientUnits="userSpaceOnUse">
<stop stop-color="white"/>
<stop offset="1" stop-color="#D2F7FF"/>
</linearGradient>
<linearGradient id="paint16_linear_17479_4" x1="215.847" y1="206.994" x2="284.831" y2="271.444" gradientUnits="userSpaceOnUse">
<stop stop-color="#FF698D"/>
<stop offset="1" stop-color="#FF3868"/>
</linearGradient>
<linearGradient id="paint17_linear_17479_4" x1="174.767" y1="331.908" x2="226.259" y2="332.242" gradientUnits="userSpaceOnUse">
<stop stop-color="#90E3F5"/>
<stop offset="1" stop-color="#65C8DE"/>
</linearGradient>
<linearGradient id="paint18_linear_17479_4" x1="73.7234" y1="98.1682" x2="125.215" y2="98.503" gradientUnits="userSpaceOnUse">
<stop stop-color="#90E3F5"/>
<stop offset="1" stop-color="#65C8DE"/>
</linearGradient>
<linearGradient id="paint19_linear_17479_4" x1="196.784" y1="80.1696" x2="211.803" y2="80.267" gradientUnits="userSpaceOnUse">
<stop stop-color="#90E3F5"/>
<stop offset="1" stop-color="#65C8DE"/>
</linearGradient>
<linearGradient id="paint20_linear_17479_4" x1="334.559" y1="212.213" x2="350.011" y2="197.328" gradientUnits="userSpaceOnUse">
<stop stop-color="#90E3F5"/>
<stop offset="1" stop-color="#65C8DE"/>
</linearGradient>
<linearGradient id="paint21_linear_17479_4" x1="76.566" y1="181.265" x2="91.4318" y2="196.736" gradientUnits="userSpaceOnUse">
<stop stop-color="#90E3F5"/>
<stop offset="1" stop-color="#65C8DE"/>
</linearGradient>
<linearGradient id="paint22_linear_17479_4" x1="279.871" y1="328.57" x2="294.736" y2="344.04" gradientUnits="userSpaceOnUse">
<stop stop-color="#90E3F5"/>
<stop offset="1" stop-color="#65C8DE"/>
</linearGradient>
<linearGradient id="paint23_linear_17479_4" x1="339.219" y1="142.256" x2="354.238" y2="142.354" gradientUnits="userSpaceOnUse">
<stop stop-color="#90E3F5"/>
<stop offset="1" stop-color="#65C8DE"/>
</linearGradient>
</defs>
</svg>
