<svg width="40" height="40" viewBox="0 0 40 40" fill="none" xmlns="http://www.w3.org/2000/svg">
<g id="check 1">
<g id="Group">
<g id="Group_2">
<path id="Vector" d="M28.4375 39.6875H4.6875C2.9375 39.6875 1.5625 38.3125 1.5625 36.5625V10.3125C1.5625 8.5625 2.9375 7.1875 4.6875 7.1875H28.4375C30.1875 7.1875 31.5625 8.5625 31.5625 10.3125V36.5625C31.5625 38.3125 30.1875 39.6875 28.4375 39.6875Z" fill="#455A64" stroke="#37474F" stroke-width="0.625" stroke-miterlimit="10" stroke-linecap="round" stroke-linejoin="round"/>
<path id="Vector_2" d="M28.4375 37.1875H4.6875C2.9375 37.1875 1.5625 35.8125 1.5625 34.0625V7.8125C1.5625 6.0625 2.9375 4.6875 4.6875 4.6875H28.4375C30.1875 4.6875 31.5625 6.0625 31.5625 7.8125V34.0625C31.5625 35.8125 30.1875 37.1875 28.4375 37.1875Z" fill="#28A745" stroke="#37474F" stroke-width="0.625" stroke-miterlimit="10" stroke-linecap="round" stroke-linejoin="round"/>
<path id="Vector_3" d="M27.5 34.6875H5.625C4.75 34.6875 4.0625 34 4.0625 33.125V8.75C4.0625 7.875 4.75 7.1875 5.625 7.1875H27.5C28.375 7.1875 29.0625 7.875 29.0625 8.75V33.125C29.0625 34 28.375 34.6875 27.5 34.6875Z" fill="#ECEFF1" stroke="#37474F" stroke-width="0.625" stroke-miterlimit="10" stroke-linecap="round" stroke-linejoin="round"/>
<path id="Vector_4" d="M5.3125 11.25V8.75C5.3125 8.5625 5.4375 8.4375 5.625 8.4375H8.125" stroke="white" stroke-width="0.625" stroke-miterlimit="10" stroke-linecap="round" stroke-linejoin="round"/>
<path id="Vector_5" d="M19.6875 3.4375C19.6875 1.6875 18.3125 0.3125 16.5625 0.3125C14.8125 0.3125 13.4375 1.6875 13.4375 3.4375H11.5625C11.1875 3.4375 10.9375 3.6875 10.9375 4.0625V7.8125C10.9375 8.1875 11.1875 8.4375 11.5625 8.4375H21.5625C21.9375 8.4375 22.1875 8.1875 22.1875 7.8125V4.0625C22.1875 3.6875 21.9375 3.4375 21.5625 3.4375H19.6875ZM16.5625 4.6875C15.875 4.6875 15.3125 4.125 15.3125 3.4375C15.3125 2.75 15.875 2.1875 16.5625 2.1875C17.25 2.1875 17.8125 2.75 17.8125 3.4375C17.8125 4.125 17.25 4.6875 16.5625 4.6875Z" fill="#FFCA28" stroke="#37474F" stroke-width="0.625" stroke-miterlimit="10" stroke-linecap="round" stroke-linejoin="round"/>
<path id="Vector_6" d="M15.9375 13.4375H22.8125" stroke="#37474F" stroke-width="0.625" stroke-miterlimit="10" stroke-linecap="round" stroke-linejoin="round"/>
<path id="Vector_7" d="M15.9375 21.5625H21.5625" stroke="#37474F" stroke-width="0.625" stroke-miterlimit="10" stroke-linecap="round" stroke-linejoin="round"/>
</g>
<g id="Group_3">
<path id="Vector_8" d="M11.25 16.25H8.75C7.875 16.25 7.1875 15.5625 7.1875 14.6875V12.1875C7.1875 11.3125 7.875 10.625 8.75 10.625H11.25C12.125 10.625 12.8125 11.3125 12.8125 12.1875V14.6875C12.8125 15.5625 12.125 16.25 11.25 16.25Z" stroke="#37474F" stroke-width="0.625" stroke-miterlimit="10" stroke-linecap="round" stroke-linejoin="round"/>
</g>
<g id="Group_4">
<path id="Vector_9" d="M11.25 23.75H8.75C7.875 23.75 7.1875 23.0625 7.1875 22.1875V19.6875C7.1875 18.8125 7.875 18.125 8.75 18.125H11.25C12.125 18.125 12.8125 18.8125 12.8125 19.6875V22.1875C12.8125 23.0625 12.125 23.75 11.25 23.75Z" stroke="#37474F" stroke-width="0.625" stroke-miterlimit="10" stroke-linecap="round" stroke-linejoin="round"/>
</g>
<g id="Group_5">
<path id="Vector_10" d="M11.25 31.25H8.75C7.875 31.25 7.1875 30.5625 7.1875 29.6875V27.1875C7.1875 26.3125 7.875 25.625 8.75 25.625H11.25C12.125 25.625 12.8125 26.3125 12.8125 27.1875V29.6875C12.8125 30.5625 12.125 31.25 11.25 31.25Z" stroke="#37474F" stroke-width="0.625" stroke-miterlimit="10" stroke-linecap="round" stroke-linejoin="round"/>
</g>
<path id="Vector_11" d="M28.75 33.125V19.6875C23.0625 19.875 18.4375 24.5625 18.4375 30.3125C18.4375 31.75 18.75 33.125 19.25 34.375H27.5C28.1875 34.375 28.75 33.8125 28.75 33.125Z" fill="#B0BEC5"/>
<g id="Group_6">
<path id="Vector_12" d="M28.4375 37.5H21.25C21.9375 38.25 22.6875 38.875 23.5625 39.375H28.4375C30 39.375 31.25 38.125 31.25 36.5625V36.0625C30.625 36.9375 29.625 37.5 28.4375 37.5Z" fill="#37474F"/>
<path id="Vector_13" d="M31.25 34.0625V19.9375C30.625 19.8125 30 19.75 29.375 19.75V33.125C29.375 34.1875 28.5625 35 27.5 35H19.5625C19.875 35.6875 20.3125 36.3125 20.75 36.875H28.4375C30 36.875 31.25 35.625 31.25 34.0625Z" fill="#455A64"/>
</g>
<path id="Vector_14" d="M29.0625 39.6875C34.2402 39.6875 38.4375 35.4902 38.4375 30.3125C38.4375 25.1348 34.2402 20.9375 29.0625 20.9375C23.8848 20.9375 19.6875 25.1348 19.6875 30.3125C19.6875 35.4902 23.8848 39.6875 29.0625 39.6875Z" fill="#9CCC65" stroke="#37474F" stroke-width="0.625" stroke-miterlimit="10" stroke-linecap="round" stroke-linejoin="round"/>
<path id="Vector_15" d="M20.9375 30.3125C20.9375 25.8125 24.5625 22.1875 29.0625 22.1875" stroke="#C5E1A5" stroke-width="0.625" stroke-miterlimit="10" stroke-linecap="round" stroke-linejoin="round"/>
<g id="Group_7">
<path id="Vector_16" d="M23.6246 31.0625L26.6871 34.125C27.0621 34.5 27.6246 34.5 27.9996 34.125L34.4371 27.6875C34.8121 27.3125 34.8121 26.75 34.4371 26.375C34.0621 26 33.4996 26 33.1246 26.375L27.3746 32.125L24.9996 29.75C24.6246 29.375 24.0621 29.375 23.6871 29.75C23.3121 30.125 23.3121 30.75 23.6246 31.0625Z" fill="#ECEFF1" stroke="#37474F" stroke-width="0.625" stroke-miterlimit="10" stroke-linecap="round" stroke-linejoin="round"/>
</g>
</g>
</g>
</svg>
