<svg width="41" height="41" viewBox="0 0 41 41" fill="none" xmlns="http://www.w3.org/2000/svg">
<circle cx="20.5" cy="20.1" r="20" fill="#3CD856"/>
<g clip-path="url(#clip0_20_2319)">
<path fill-rule="evenodd" clip-rule="evenodd" d="M20.0001 10.428C25.2891 10.428 29.5756 14.7147 29.5756 19.998C29.5756 25.2868 25.2891 29.573 20.0001 29.573C14.711 29.573 10.4244 25.2868 10.4244 19.998C10.4244 14.7147 14.711 10.428 20.0001 10.428ZM28.3254 12.0758V12.0817H28.3193V12.0877C28.3081 12.0989 28.302 12.1103 28.2965 12.1163C28.2847 12.1278 28.2791 12.1336 28.2735 12.1395C28.2618 12.145 28.2562 12.1563 28.2446 12.1625H28.2389V12.168C28.1927 12.1971 28.1352 12.2142 28.0777 12.2142H26.4755C26.3143 12.2142 26.1821 12.0816 26.1821 11.9202C26.1821 11.7592 26.3143 11.6266 26.4755 11.6266H27.3341C25.4329 9.95565 23.0765 9.0338 20.6741 8.88994C18.0413 8.72837 15.3502 9.50063 13.1322 11.2347C10.9197 12.9746 9.52565 15.4001 9.04757 17.9926C8.57502 20.5854 9.01302 23.351 10.4706 25.7594C10.5571 25.8972 10.5109 26.0761 10.3725 26.1567C10.2344 26.243 10.0557 26.1968 9.96922 26.0584C8.43674 23.5233 7.97591 20.62 8.47719 17.889C8.97257 15.1583 10.4419 12.6058 12.7752 10.7795C15.1086 8.95332 17.9376 8.13516 20.7085 8.30776C23.261 8.45785 25.7671 9.44869 27.7837 11.2461V10.3187C27.7837 10.1573 27.916 10.0248 28.0777 10.0248C28.2389 10.0248 28.3711 10.1572 28.3711 10.3187V11.9203C28.3712 11.9779 28.3539 12.0298 28.3254 12.0758ZM11.6748 27.9257V27.9196H11.6807V27.9139C11.6919 27.9022 11.6979 27.8911 11.7036 27.8852L11.7091 27.8796C11.715 27.8735 11.7209 27.8677 11.7265 27.8621C11.7382 27.8506 11.7438 27.8448 11.7554 27.8389H11.7613V27.8331C11.8073 27.8044 11.8648 27.7871 11.9222 27.7871H13.5241C13.6856 27.7871 13.8178 27.9196 13.8178 28.0813C13.8178 28.2425 13.6856 28.369 13.5241 28.369H12.6659C14.5726 30.0458 16.9235 30.9677 19.3258 31.1117C21.9648 31.2729 24.6497 30.5011 26.8678 28.7667C29.0803 27.0268 30.4744 24.6013 30.9524 22.0085C31.425 19.4161 30.987 16.6507 29.5294 14.2422C29.4487 14.1043 29.4891 13.9254 29.6275 13.8391C29.7658 13.7584 29.9444 13.8043 30.0308 13.9428C31.5632 16.4776 32.024 19.3813 31.5228 22.1123C31.0272 24.8434 29.5583 27.3955 27.2248 29.222C24.8914 31.0481 22.0625 31.8605 19.2972 31.6935C16.7391 31.5382 14.2329 30.553 12.2163 28.7552V29.683C12.2163 29.8442 12.084 29.9705 11.9223 29.9705C11.7613 29.9705 11.6286 29.8442 11.6286 29.683V28.0813C11.6286 28.0233 11.6461 27.9717 11.6748 27.9257ZM15.3676 12.5597C15.2872 12.4217 15.3333 12.2431 15.4713 12.1625C15.6156 12.0816 15.7943 12.1278 15.8747 12.2661L16.0821 12.6291C16.163 12.7676 16.1167 12.9515 15.9784 13.0321C15.8344 13.113 15.6559 13.0612 15.5751 12.923L15.3676 12.5597ZM24.1253 12.2717C24.2057 12.1278 24.3845 12.0817 24.5226 12.1625C24.6667 12.2432 24.7128 12.4217 24.6319 12.5597L24.4247 12.923C24.3441 13.0612 24.1656 13.1071 24.0272 13.0322C23.8888 12.9515 23.837 12.773 23.9178 12.6349L24.1253 12.2717ZM19.7063 11.2408C19.7063 11.0791 19.8387 10.9467 20.0001 10.9467C20.1613 10.9467 20.294 11.0791 20.294 11.2408V11.661C20.294 11.8223 20.1613 11.9549 20.0001 11.9549C19.8388 11.9549 19.7063 11.8224 19.7063 11.661V11.2408ZM27.7319 24.1286C27.8702 24.2095 27.9221 24.3878 27.8413 24.5264C27.7606 24.6645 27.5818 24.7106 27.4438 24.6361L27.0808 24.4226C26.9369 24.3417 26.8906 24.1632 26.9715 24.0249C27.0518 23.8865 27.2306 23.8406 27.3687 23.9155L27.7319 24.1286ZM28.7575 19.7097C28.9185 19.7097 29.0512 19.8423 29.0512 19.998C29.0512 20.1593 28.9184 20.2918 28.7575 20.2918H28.3427C28.1812 20.2918 28.0488 20.1593 28.0488 19.998C28.0488 19.8423 28.1812 19.7097 28.3427 19.7097H28.7575ZM27.4379 15.3656C27.5818 15.2852 27.7606 15.337 27.8413 15.4752C27.9221 15.6134 27.8702 15.792 27.7319 15.8728L27.3687 16.0801C27.2306 16.1664 27.0519 16.1147 26.9715 15.9765C26.8906 15.8378 26.9369 15.6597 27.075 15.5788L27.4379 15.3656ZM11.2428 20.2918C11.0813 20.2918 10.9488 20.1593 10.9488 19.998C10.9488 19.8367 11.0813 19.7097 11.2428 19.7097H11.6576C11.8188 19.7097 11.9513 19.8367 11.9513 19.998C11.9513 20.1593 11.8188 20.2918 11.6576 20.2918H11.2428ZM12.5621 24.6301C12.4182 24.7164 12.2394 24.6645 12.1588 24.5264C12.0779 24.3878 12.1298 24.2095 12.2682 24.1286L12.6313 23.9155C12.7696 23.8346 12.9482 23.8865 13.0286 24.0249C13.1094 24.1632 13.0631 24.3418 12.9248 24.4226L12.5621 24.6301ZM15.8747 27.7295C15.7943 27.8734 15.6156 27.9196 15.4772 27.8389C15.3333 27.7583 15.2873 27.5798 15.3677 27.4415L15.5752 27.0785C15.656 26.9402 15.8346 26.8886 15.9729 26.9689C16.1168 27.0497 16.1631 27.2283 16.0822 27.3664L15.8747 27.7295ZM20.294 28.7611C20.294 28.9221 20.1613 29.0551 20.0001 29.0551C19.8388 29.0551 19.7063 28.922 19.7063 28.7611V28.3404C19.7063 28.1787 19.8387 28.0523 20.0001 28.0523C20.1613 28.0523 20.294 28.1786 20.294 28.3404V28.7611ZM24.6319 27.4415C24.7128 27.5798 24.6667 27.7584 24.5284 27.8389C24.3845 27.9196 24.2057 27.8735 24.1253 27.7355L23.9178 27.3723C23.8369 27.2284 23.8832 27.0497 24.0215 26.969C24.1655 26.8886 24.344 26.9402 24.4246 27.0786L24.6319 27.4415ZM12.2681 15.8728C12.1297 15.792 12.0839 15.6134 12.1588 15.4752C12.2393 15.337 12.4181 15.2852 12.5563 15.3656L12.9247 15.5788C13.063 15.6597 13.1093 15.8378 13.0285 15.9765C12.9481 16.1147 12.7696 16.1609 12.6313 16.0801L12.2681 15.8728ZM19.4527 20.8449L25.3869 14.7491L19.7063 23.0456L16.5602 19.9748L19.4527 20.8449Z" fill="white"/>
</g>
<defs>
<clipPath id="clip0_20_2319">
<rect width="24" height="24" fill="white" transform="translate(8 8)"/>
</clipPath>
</defs>
</svg>
