<svg width="24" height="24" viewBox="0 0 24 24" fill="none" xmlns="http://www.w3.org/2000/svg">
<g id="project-management 1" clip-path="url(#clip0_1703_2271)">
<g id="project management">
<path id="Vector" d="M6.74972 13.113C7.36441 13.113 7.86272 12.6147 7.86272 12C7.86272 11.3853 7.36441 10.887 6.74972 10.887C6.13503 10.887 5.63672 11.3853 5.63672 12C5.63672 12.6147 6.13503 13.113 6.74972 13.113Z" fill="white"/>
<path id="Vector_2" d="M12.6292 10.3967L12.0099 10.2419C11.9276 9.99606 11.8283 9.75632 11.7125 9.5244L12.0407 8.9769C12.1728 8.75701 12.2276 8.4992 12.1963 8.24456C12.165 7.98991 12.0493 7.75308 11.8678 7.57178L11.1778 6.88178C10.9965 6.70049 10.7599 6.58505 10.5054 6.55386C10.251 6.52266 9.99343 6.57751 9.77378 6.70965L9.22628 7.03778C8.99436 6.92203 8.75463 6.82266 8.50883 6.7404L8.35395 6.12188C8.29227 5.87258 8.14873 5.65117 7.94632 5.4931C7.74391 5.33503 7.49432 5.24943 7.2375 5.25H6.2625C6.00594 5.24953 5.75662 5.33505 5.55436 5.4929C5.35211 5.65075 5.20859 5.87183 5.14673 6.12083L4.99185 6.7401C4.74606 6.82236 4.50632 6.92173 4.2744 7.03748L3.7269 6.70935C3.50702 6.57722 3.24926 6.52242 2.99464 6.55368C2.74002 6.58494 2.50317 6.70046 2.32178 6.88185L1.63178 7.57185C1.45044 7.75306 1.33495 7.98973 1.30369 8.24418C1.27243 8.49862 1.3272 8.75621 1.45928 8.97593L1.7874 9.52343C1.67166 9.75535 1.57229 9.99508 1.49003 10.2409L0.871504 10.3958C0.622222 10.4575 0.400867 10.6011 0.242865 10.8036C0.0848622 11.0061 -0.000653277 11.2557 3.758e-06 11.5125V12.4875C-0.000405038 12.744 0.0851446 12.9933 0.242993 13.1955C0.400841 13.3977 0.621884 13.5411 0.870829 13.603L1.4901 13.7579C1.57236 14.0036 1.67173 14.2434 1.78748 14.4753L1.45935 15.0228C1.32713 15.2427 1.27228 15.5004 1.30354 15.7551C1.3348 16.0097 1.45038 16.2466 1.63185 16.4279L2.32185 17.1179C2.50288 17.2996 2.73958 17.4153 2.99412 17.4465C3.24865 17.4778 3.50631 17.4228 3.72593 17.2904L4.27343 16.9623C4.50535 17.078 4.74508 17.1774 4.99088 17.2597L5.14575 17.8782C5.20747 18.1275 5.35105 18.349 5.55352 18.507C5.75599 18.6651 6.00564 18.7506 6.2625 18.75H7.2375C7.49402 18.7504 7.74327 18.6649 7.94546 18.507C8.14766 18.3492 8.29113 18.1281 8.35298 17.8792L8.50785 17.2599C8.75365 17.1776 8.99339 17.0783 9.2253 16.9625L9.7728 17.2907C9.99282 17.4224 10.2505 17.477 10.5051 17.4457C10.7596 17.4144 10.9964 17.299 11.1779 17.1178L11.8679 16.4278C12.0493 16.2466 12.1648 16.0099 12.196 15.7555C12.2273 15.5011 12.1725 15.2435 12.0404 15.0238L11.7123 14.4759C11.828 14.244 11.9274 14.0042 12.0097 13.7585L12.6282 13.6036C12.8774 13.5419 13.0988 13.3984 13.2568 13.1961C13.4149 12.9937 13.5005 12.7442 13.5 12.4875V11.5125C13.5005 11.2559 13.415 11.0066 13.2571 10.8044C13.0993 10.6021 12.8782 10.4586 12.6292 10.3967ZM6.75 14.6133C6.23314 14.6133 5.72789 14.46 5.29813 14.1729C4.86838 13.8857 4.53342 13.4776 4.33563 13.0001C4.13784 12.5226 4.08608 11.9971 4.18692 11.4902C4.28775 10.9832 4.53665 10.5176 4.90212 10.1521C5.2676 9.78664 5.73324 9.53775 6.24017 9.43692C6.7471 9.33608 7.27255 9.38783 7.75007 9.58563C8.22759 9.78342 8.63573 10.1184 8.92288 10.5481C9.21004 10.9779 9.3633 11.4831 9.3633 12C9.36255 12.6929 9.08698 13.3571 8.59705 13.8471C8.10713 14.337 7.44286 14.6125 6.75 14.6133Z" fill="white"/>
<path id="Vector_3" d="M22.5 0H19.5C18.6716 0 18 0.671573 18 1.5V4.5C18 5.32843 18.6716 6 19.5 6H22.5C23.3284 6 24 5.32843 24 4.5V1.5C24 0.671573 23.3284 0 22.5 0Z" fill="white"/>
<path id="Vector_4" d="M22.5 9H19.5C18.6716 9 18 9.67157 18 10.5V13.5C18 14.3284 18.6716 15 19.5 15H22.5C23.3284 15 24 14.3284 24 13.5V10.5C24 9.67157 23.3284 9 22.5 9Z" fill="white"/>
<path id="Vector_5" d="M22.5 18H19.5C18.6716 18 18 18.6716 18 19.5V22.5C18 23.3284 18.6716 24 19.5 24H22.5C23.3284 24 24 23.3284 24 22.5V19.5C24 18.6716 23.3284 18 22.5 18Z" fill="white"/>
<path id="Vector_6" d="M18.75 12.75H12.75C12.5511 12.75 12.3603 12.671 12.2197 12.5303C12.079 12.3897 12 12.1989 12 12C12 11.8011 12.079 11.6103 12.2197 11.4697C12.3603 11.329 12.5511 11.25 12.75 11.25H18.75C18.9489 11.25 19.1397 11.329 19.2803 11.4697C19.421 11.6103 19.5 11.8011 19.5 12C19.5 12.1989 19.421 12.3897 19.2803 12.5303C19.1397 12.671 18.9489 12.75 18.75 12.75Z" fill="white"/>
<path id="Vector_7" d="M15.75 12.75C15.5511 12.75 15.3603 12.671 15.2197 12.5303C15.079 12.3897 15 12.1989 15 12V3.75C15.0004 3.3523 15.1586 2.971 15.4398 2.68978C15.721 2.40856 16.1023 2.2504 16.5 2.25H18.75C18.9489 2.25 19.1397 2.32902 19.2803 2.46967C19.421 2.61032 19.5 2.80109 19.5 3C19.5 3.19891 19.421 3.38968 19.2803 3.53033C19.1397 3.67098 18.9489 3.75 18.75 3.75H16.5V12C16.5 12.1989 16.421 12.3897 16.2803 12.5303C16.1397 12.671 15.9489 12.75 15.75 12.75Z" fill="white"/>
<path id="Vector_8" d="M18.75 21.75H16.5C16.1023 21.7496 15.721 21.5914 15.4398 21.3102C15.1586 21.029 15.0004 20.6477 15 20.25V12C15 11.8011 15.079 11.6103 15.2197 11.4697C15.3603 11.329 15.5511 11.25 15.75 11.25C15.9489 11.25 16.1397 11.329 16.2803 11.4697C16.421 11.6103 16.5 11.8011 16.5 12V20.25H18.75C18.9489 20.25 19.1397 20.329 19.2803 20.4697C19.421 20.6103 19.5 20.8011 19.5 21C19.5 21.1989 19.421 21.3897 19.2803 21.5303C19.1397 21.671 18.9489 21.75 18.75 21.75Z" fill="white"/>
</g>
</g>
<defs>
<clipPath id="clip0_1703_2271">
<rect width="24" height="24" fill="white"/>
</clipPath>
</defs>
</svg>
