<svg width="30" height="30" viewBox="0 0 30 30" fill="none" xmlns="http://www.w3.org/2000/svg">
<g id="Group">
<g id="Group_2">
<path id="Vector" d="M0.537109 0.9375H28.6621V11.6225H0.537109V0.9375Z" fill="#FD3A69"/>
<path id="Vector_2" d="M1.47461 26.9619H4.29086C4.5395 26.9619 4.77796 27.0606 4.95377 27.2364C5.12959 27.4123 5.22836 27.6507 5.22836 27.8994V29.0625H0.53711V27.9C0.537027 27.7768 0.561216 27.6548 0.608293 27.541C0.65537 27.4272 0.724413 27.3238 0.811476 27.2367C0.898539 27.1495 1.00192 27.0804 1.1157 27.0333C1.22948 26.9861 1.35144 26.9619 1.47461 26.9619Z" fill="#FC852D"/>
<path id="Vector_3" d="M1.89062 11.6225H3.87656V26.9619H1.89062V11.6225Z" fill="#FECD1A"/>
<path id="Vector_4" d="M24.9079 26.9619H27.7247C27.9734 26.9619 28.2118 27.0606 28.3876 27.2364C28.5635 27.4123 28.6622 27.6507 28.6622 27.8994V29.0625H23.9697V27.9C23.9696 27.7768 23.9939 27.6547 24.041 27.5409C24.0881 27.427 24.1572 27.3236 24.2443 27.2364C24.3314 27.1493 24.4349 27.0802 24.5488 27.0331C24.6626 26.986 24.7846 26.9618 24.9079 26.9619Z" fill="#FC852D"/>
<path id="Vector_5" d="M25.3232 11.6225H27.3092V26.9619H25.3232V11.6225Z" fill="#FECD1A"/>
<g id="Group_3">
<path id="Vector_6" d="M15.1936 3.71029C15.1555 3.60439 15.0856 3.51285 14.9935 3.44813C14.9014 3.38342 14.7916 3.34869 14.6791 3.34869C14.5665 3.34869 14.4567 3.38342 14.3646 3.44813C14.2726 3.51285 14.2027 3.60439 14.1646 3.71029L12.4499 8.47935C12.424 8.54727 12.4119 8.61966 12.4144 8.6923C12.4168 8.76494 12.4337 8.83636 12.464 8.9024C12.4944 8.96843 12.5376 9.02776 12.5912 9.0769C12.6447 9.12604 12.7075 9.16402 12.7759 9.18861C12.8443 9.2132 12.9169 9.22391 12.9895 9.22011C13.0621 9.21632 13.1332 9.1981 13.1986 9.16651C13.2641 9.13492 13.3226 9.09061 13.3707 9.03615C13.4188 8.98169 13.4556 8.91819 13.4789 8.84935L13.7055 8.21997H15.6539L15.8805 8.84935C15.9038 8.91819 15.9406 8.98169 15.9887 9.03615C16.0369 9.09061 16.0954 9.13492 16.1608 9.16651C16.2263 9.1981 16.2974 9.21632 16.3699 9.22011C16.4425 9.22391 16.5151 9.2132 16.5835 9.18861C16.6519 9.16402 16.7147 9.12604 16.7683 9.0769C16.8218 9.02776 16.865 8.96843 16.8954 8.9024C16.9257 8.83636 16.9426 8.76494 16.9451 8.6923C16.9475 8.61966 16.9354 8.54727 16.9096 8.47935L15.1936 3.71029ZM14.0999 7.12497L14.6805 5.50997L15.2605 7.12497H14.0999Z" fill="#FFF8CD"/>
<path id="Vector_7" d="M4.73662 4.44244H6.73443C6.87947 4.44244 7.01857 4.38483 7.12113 4.28227C7.22369 4.17971 7.2813 4.04061 7.2813 3.89557C7.2813 3.75053 7.22369 3.61143 7.12113 3.50887C7.01857 3.40631 6.87947 3.34869 6.73443 3.34869H4.73662C4.38149 3.34859 4.03687 3.46918 3.75928 3.69068C3.48169 3.91218 3.28762 4.22144 3.20889 4.56773C3.13017 4.91403 3.17146 5.27679 3.326 5.59653C3.48055 5.91627 3.73916 6.174 4.05943 6.32744L5.91943 7.21869C6.01595 7.26504 6.09387 7.3428 6.14042 7.43923C6.18696 7.53566 6.19938 7.64503 6.17563 7.74944C6.15188 7.85384 6.09337 7.94709 6.00969 8.01389C5.92601 8.08069 5.82213 8.1171 5.71505 8.11713H3.71724C3.5722 8.11713 3.4331 8.17475 3.33054 8.27731C3.22798 8.37987 3.17037 8.51897 3.17037 8.66401C3.17037 8.80905 3.22798 8.94815 3.33054 9.05071C3.4331 9.15326 3.5722 9.21088 3.71724 9.21088H5.71505C6.07016 9.21091 6.41473 9.09027 6.69226 8.86875C6.96979 8.64722 7.16381 8.33797 7.2425 7.99169C7.32119 7.64542 7.27987 7.28268 7.12532 6.96297C6.97077 6.64327 6.71217 6.38556 6.39193 6.23213L4.53224 5.34057C4.43572 5.29422 4.3578 5.21646 4.31126 5.12004C4.26471 5.02361 4.25229 4.91423 4.27604 4.80983C4.29979 4.70542 4.3583 4.61218 4.44198 4.54537C4.52566 4.47857 4.62954 4.44248 4.73662 4.44244Z" fill="#FFF8CD"/>
<path id="Vector_8" d="M11.6384 3.34869H8.56836C8.42332 3.34869 8.28422 3.40631 8.18166 3.50887C8.0791 3.61143 8.02148 3.75053 8.02148 3.89557C8.02148 4.04061 8.0791 4.17971 8.18166 4.28227C8.28422 4.38483 8.42332 4.44244 8.56836 4.44244H9.55586V8.66432C9.55586 8.80936 9.61348 8.94846 9.71604 9.05102C9.81859 9.15358 9.95769 9.21119 10.1027 9.21119C10.2478 9.21119 10.3869 9.15358 10.4894 9.05102C10.592 8.94846 10.6496 8.80936 10.6496 8.66432V4.44244H11.6371C11.7821 4.44244 11.9213 4.38483 12.0238 4.28227C12.1264 4.17971 12.184 4.04061 12.184 3.89557C12.184 3.75053 12.1264 3.61143 12.0238 3.50887C11.9213 3.40631 11.7821 3.34869 11.6371 3.34869H11.6384Z" fill="#FFF8CD"/>
<path id="Vector_9" d="M26.3152 3.34869H23.2461C23.1011 3.34869 22.962 3.40631 22.8594 3.50887C22.7568 3.61143 22.6992 3.75053 22.6992 3.89557C22.6992 4.04061 22.7568 4.17971 22.8594 4.28227C22.962 4.38483 23.1011 4.44244 23.2461 4.44244H24.2339V8.66432C24.2339 8.80936 24.2915 8.94846 24.3941 9.05102C24.4966 9.15358 24.6357 9.21119 24.7808 9.21119C24.9258 9.21119 25.0649 9.15358 25.1675 9.05102C25.27 8.94846 25.3277 8.80936 25.3277 8.66432V4.44244H26.3152C26.4602 4.44244 26.5993 4.38483 26.7019 4.28227C26.8044 4.17971 26.862 4.04061 26.862 3.89557C26.862 3.75053 26.8044 3.61143 26.7019 3.50887C26.5993 3.40631 26.4602 3.34869 26.3152 3.34869Z" fill="#FFF8CD"/>
<path id="Vector_10" d="M21.8139 5.33776C21.8133 4.8104 21.6035 4.30481 21.2306 3.93192C20.8577 3.55902 20.3522 3.34927 19.8248 3.34869H18.5342C18.4624 3.34865 18.3912 3.36277 18.3249 3.39024C18.2585 3.41771 18.1982 3.45799 18.1474 3.50878C18.0966 3.55957 18.0563 3.61987 18.0289 3.68624C18.0014 3.75261 17.9873 3.82374 17.9873 3.89557V8.66432C17.9873 8.80936 18.0449 8.94846 18.1475 9.05102C18.25 9.15358 18.3891 9.21119 18.5342 9.21119C18.6792 9.21119 18.8183 9.15358 18.9209 9.05102C19.0234 8.94846 19.0811 8.80936 19.0811 8.66432V7.32713H19.8248C19.9038 7.32662 19.9827 7.32151 20.0611 7.31182L20.7682 8.88807C20.7968 8.9549 20.8383 9.01538 20.8905 9.06598C20.9426 9.11658 21.0043 9.15627 21.072 9.18275C21.1396 9.20923 21.2119 9.22196 21.2845 9.22019C21.3572 9.21843 21.4287 9.2022 21.495 9.17247C21.5613 9.14273 21.6211 9.10009 21.6707 9.04702C21.7203 8.99395 21.7589 8.93152 21.7841 8.86338C21.8093 8.79524 21.8207 8.72275 21.8176 8.65016C21.8145 8.57756 21.797 8.50631 21.7661 8.44057L21.0686 6.88713C21.301 6.70124 21.4886 6.46548 21.6176 6.19729C21.7466 5.92911 21.8137 5.63536 21.8139 5.33776ZM19.8248 6.23338H19.0811V4.44244H19.8248C20.0594 4.44683 20.2829 4.5431 20.4473 4.71055C20.6116 4.87801 20.7037 5.10328 20.7037 5.33791C20.7037 5.57255 20.6116 5.79782 20.4473 5.96527C20.2829 6.13273 20.0594 6.229 19.8248 6.23338Z" fill="#FFF8CD"/>
</g>
</g>
<g id="Group_4">
<path id="Vector_11" d="M28.6621 12.1694C28.8071 12.1693 28.9462 12.1116 29.0487 12.0091C29.1513 11.9066 29.2089 11.7675 29.209 11.6225V0.9375C29.2089 0.792485 29.1513 0.653433 29.0487 0.550892C28.9462 0.448351 28.8071 0.390708 28.6621 0.390625H22.1593C22.0143 0.390625 21.8752 0.448242 21.7726 0.550801C21.67 0.65336 21.6124 0.79246 21.6124 0.9375C21.6124 1.08254 21.67 1.22164 21.7726 1.3242C21.8752 1.42676 22.0143 1.48438 22.1593 1.48438H28.1152V11.0756H1.08398V1.48438H14.9084C15.0534 1.48438 15.1925 1.42676 15.2951 1.3242C15.3976 1.22164 15.4552 1.08254 15.4552 0.9375C15.4552 0.79246 15.3976 0.65336 15.2951 0.550801C15.1925 0.448242 15.0534 0.390625 14.9084 0.390625H0.537109C0.392094 0.390708 0.253043 0.448351 0.150502 0.550892C0.0479607 0.653433 -0.00968283 0.792485 -0.00976562 0.9375V11.6225C-0.00968283 11.7675 0.0479607 11.9066 0.150502 12.0091C0.253043 12.1116 0.392094 12.1693 0.537109 12.1694H1.34367V26.4281C0.975069 26.4603 0.631815 26.6291 0.381373 26.9015C0.13093 27.1738 -0.0085897 27.53 -0.00976562 27.9V29.0625C-0.00968283 29.2075 0.0479607 29.3466 0.150502 29.4491C0.253043 29.5516 0.392094 29.6093 0.537109 29.6094H5.22961C5.37462 29.6093 5.51368 29.5516 5.61622 29.4491C5.71876 29.3466 5.7764 29.2075 5.77648 29.0625V27.9C5.77531 27.53 5.63579 27.1738 5.38535 26.9015C5.1349 26.6291 4.79165 26.4603 4.42305 26.4281V12.1694H24.7759V26.4281C24.4073 26.4603 24.0641 26.6292 23.8138 26.9016C23.5634 27.1739 23.4239 27.5301 23.4227 27.9V29.0625C23.4228 29.2075 23.4805 29.3466 23.583 29.4491C23.6855 29.5516 23.8246 29.6093 23.9696 29.6094H28.6621C28.8071 29.6093 28.9462 29.5516 29.0487 29.4491C29.1513 29.3466 29.2089 29.2075 29.209 29.0625V27.9C29.2078 27.53 29.0683 27.1738 28.8178 26.9015C28.5674 26.6291 28.2241 26.4603 27.8555 26.4281V12.1694H28.6621ZM4.68273 27.9V28.5156H1.08398V27.9C1.08407 27.7964 1.12523 27.697 1.19845 27.6237C1.27167 27.5503 1.37098 27.509 1.47461 27.5088H4.29086C4.34228 27.5087 4.39321 27.5188 4.44073 27.5384C4.48825 27.5581 4.53144 27.5869 4.56783 27.6232C4.60422 27.6595 4.63309 27.7027 4.65281 27.7502C4.67252 27.7977 4.68269 27.8486 4.68273 27.9ZM3.3293 26.415H2.43742V12.1694H3.3293V26.415ZM28.1152 27.9V28.5156H24.5165V27.9C24.5166 27.7963 24.5578 27.6968 24.6312 27.6234C24.7045 27.5501 24.804 27.5088 24.9077 27.5088H27.7246C27.8282 27.509 27.9275 27.5503 28.0008 27.6237C28.074 27.697 28.1152 27.7964 28.1152 27.9ZM26.7618 26.415H25.8696V12.1694H26.7618V26.415Z" fill="#0C2468"/>
<path id="Vector_12" d="M17.7559 1.48438H19.3093C19.4543 1.48438 19.5934 1.42676 19.696 1.3242C19.7986 1.22164 19.8562 1.08254 19.8562 0.9375C19.8562 0.79246 19.7986 0.65336 19.696 0.550801C19.5934 0.448242 19.4543 0.390625 19.3093 0.390625H17.7559C17.6108 0.390625 17.4717 0.448242 17.3692 0.550801C17.2666 0.65336 17.209 0.79246 17.209 0.9375C17.209 1.08254 17.2666 1.22164 17.3692 1.3242C17.4717 1.42676 17.6108 1.48438 17.7559 1.48438Z" fill="#0C2468"/>
<g id="Group_5">
<path id="Vector_13" d="M15.1936 3.71029C15.1555 3.60439 15.0856 3.51285 14.9935 3.44813C14.9014 3.38342 14.7916 3.34869 14.6791 3.34869C14.5665 3.34869 14.4567 3.38342 14.3646 3.44813C14.2726 3.51285 14.2027 3.60439 14.1646 3.71029L12.4499 8.47935C12.424 8.54727 12.4119 8.61966 12.4144 8.6923C12.4168 8.76494 12.4337 8.83636 12.464 8.9024C12.4944 8.96843 12.5376 9.02776 12.5912 9.0769C12.6447 9.12604 12.7075 9.16402 12.7759 9.18861C12.8443 9.2132 12.9169 9.22391 12.9895 9.22011C13.0621 9.21632 13.1332 9.1981 13.1986 9.16651C13.2641 9.13492 13.3226 9.09061 13.3707 9.03615C13.4188 8.98169 13.4556 8.91819 13.4789 8.84935L13.7055 8.21997H15.6539L15.8805 8.84935C15.9038 8.91819 15.9406 8.98169 15.9887 9.03615C16.0369 9.09061 16.0954 9.13492 16.1608 9.16651C16.2263 9.1981 16.2974 9.21632 16.3699 9.22011C16.4425 9.22391 16.5151 9.2132 16.5835 9.18861C16.6519 9.16402 16.7147 9.12604 16.7683 9.0769C16.8218 9.02776 16.865 8.96843 16.8954 8.9024C16.9257 8.83636 16.9426 8.76494 16.9451 8.6923C16.9475 8.61966 16.9354 8.54727 16.9096 8.47935L15.1936 3.71029ZM14.0999 7.12497L14.6805 5.50997L15.2605 7.12497H14.0999Z" fill="#0C2468"/>
<path id="Vector_14" d="M4.73662 4.44244H6.73443C6.87947 4.44244 7.01857 4.38483 7.12113 4.28227C7.22369 4.17971 7.2813 4.04061 7.2813 3.89557C7.2813 3.75053 7.22369 3.61143 7.12113 3.50887C7.01857 3.40631 6.87947 3.34869 6.73443 3.34869H4.73662C4.38149 3.34859 4.03687 3.46918 3.75928 3.69068C3.48169 3.91218 3.28762 4.22144 3.20889 4.56773C3.13017 4.91403 3.17146 5.27679 3.326 5.59653C3.48055 5.91627 3.73916 6.174 4.05943 6.32744L5.91943 7.21869C6.01595 7.26504 6.09387 7.3428 6.14042 7.43923C6.18696 7.53566 6.19938 7.64503 6.17563 7.74944C6.15188 7.85384 6.09337 7.94709 6.00969 8.01389C5.92601 8.08069 5.82213 8.1171 5.71505 8.11713H3.71724C3.5722 8.11713 3.4331 8.17475 3.33054 8.27731C3.22798 8.37987 3.17037 8.51897 3.17037 8.66401C3.17037 8.80905 3.22798 8.94815 3.33054 9.05071C3.4331 9.15326 3.5722 9.21088 3.71724 9.21088H5.71505C6.07016 9.21091 6.41473 9.09027 6.69226 8.86875C6.96979 8.64722 7.16381 8.33797 7.2425 7.99169C7.32119 7.64542 7.27987 7.28268 7.12532 6.96297C6.97077 6.64327 6.71217 6.38556 6.39193 6.23213L4.53224 5.34057C4.43572 5.29422 4.3578 5.21646 4.31126 5.12004C4.26471 5.02361 4.25229 4.91423 4.27604 4.80983C4.29979 4.70542 4.3583 4.61218 4.44198 4.54537C4.52566 4.47857 4.62954 4.44248 4.73662 4.44244Z" fill="#0C2468"/>
<path id="Vector_15" d="M11.6384 3.34869H8.56836C8.42332 3.34869 8.28422 3.40631 8.18166 3.50887C8.0791 3.61143 8.02148 3.75053 8.02148 3.89557C8.02148 4.04061 8.0791 4.17971 8.18166 4.28227C8.28422 4.38483 8.42332 4.44244 8.56836 4.44244H9.55586V8.66432C9.55586 8.80936 9.61348 8.94846 9.71604 9.05102C9.81859 9.15358 9.95769 9.21119 10.1027 9.21119C10.2478 9.21119 10.3869 9.15358 10.4894 9.05102C10.592 8.94846 10.6496 8.80936 10.6496 8.66432V4.44244H11.6371C11.7821 4.44244 11.9213 4.38483 12.0238 4.28227C12.1264 4.17971 12.184 4.04061 12.184 3.89557C12.184 3.75053 12.1264 3.61143 12.0238 3.50887C11.9213 3.40631 11.7821 3.34869 11.6371 3.34869H11.6384Z" fill="#0C2468"/>
<path id="Vector_16" d="M26.3152 3.34869H23.2461C23.1011 3.34869 22.962 3.40631 22.8594 3.50887C22.7568 3.61143 22.6992 3.75053 22.6992 3.89557C22.6992 4.04061 22.7568 4.17971 22.8594 4.28227C22.962 4.38483 23.1011 4.44244 23.2461 4.44244H24.2339V8.66432C24.2339 8.80936 24.2915 8.94846 24.3941 9.05102C24.4966 9.15358 24.6357 9.21119 24.7808 9.21119C24.9258 9.21119 25.0649 9.15358 25.1675 9.05102C25.27 8.94846 25.3277 8.80936 25.3277 8.66432V4.44244H26.3152C26.4602 4.44244 26.5993 4.38483 26.7019 4.28227C26.8044 4.17971 26.862 4.04061 26.862 3.89557C26.862 3.75053 26.8044 3.61143 26.7019 3.50887C26.5993 3.40631 26.4602 3.34869 26.3152 3.34869Z" fill="#0C2468"/>
<path id="Vector_17" d="M21.8139 5.33776C21.8133 4.8104 21.6035 4.30481 21.2306 3.93192C20.8577 3.55902 20.3522 3.34927 19.8248 3.34869H18.5342C18.4624 3.34865 18.3912 3.36277 18.3249 3.39024C18.2585 3.41771 18.1982 3.45799 18.1474 3.50878C18.0966 3.55957 18.0563 3.61987 18.0289 3.68624C18.0014 3.75261 17.9873 3.82374 17.9873 3.89557V8.66432C17.9873 8.80936 18.0449 8.94846 18.1475 9.05102C18.25 9.15358 18.3891 9.21119 18.5342 9.21119C18.6792 9.21119 18.8183 9.15358 18.9209 9.05102C19.0234 8.94846 19.0811 8.80936 19.0811 8.66432V7.32713H19.8248C19.9038 7.32662 19.9827 7.32151 20.0611 7.31182L20.7682 8.88807C20.7968 8.9549 20.8383 9.01538 20.8905 9.06598C20.9426 9.11658 21.0043 9.15627 21.072 9.18275C21.1396 9.20923 21.2119 9.22196 21.2845 9.22019C21.3572 9.21843 21.4287 9.2022 21.495 9.17247C21.5613 9.14273 21.6211 9.10009 21.6707 9.04702C21.7203 8.99395 21.7589 8.93152 21.7841 8.86338C21.8093 8.79524 21.8207 8.72275 21.8176 8.65016C21.8145 8.57756 21.797 8.50631 21.7661 8.44057L21.0686 6.88713C21.301 6.70124 21.4886 6.46548 21.6176 6.19729C21.7466 5.92911 21.8137 5.63536 21.8139 5.33776ZM19.8248 6.23338H19.0811V4.44244H19.8248C20.0594 4.44683 20.2829 4.5431 20.4473 4.71055C20.6116 4.87801 20.7037 5.10328 20.7037 5.33791C20.7037 5.57255 20.6116 5.79782 20.4473 5.96527C20.2829 6.13273 20.0594 6.229 19.8248 6.23338Z" fill="#0C2468"/>
</g>
</g>
</g>
</svg>
