<svg id="Layer_1" height="512" viewBox="0 0 500 500" width="512" xmlns="http://www.w3.org/2000/svg" xmlns:xlink="http://www.w3.org/1999/xlink" data-name="Layer 1"><linearGradient id="linear-gradient" gradientTransform="matrix(333.33 0 0 -406.25 52.08 203197.92)" gradientUnits="userSpaceOnUse" x1=".5" x2=".5" y1="500" y2="499.01"><stop offset="0" stop-color="#eaecf7"/><stop offset="1" stop-color="#cdd3f1"/></linearGradient><linearGradient id="linear-gradient-2" gradientTransform="matrix(333.33 0 0 -62.5 52.08 31666.67)" gradientUnits="userSpaceOnUse" x1=".5" x2=".5" y1="500" y2="499.01"><stop offset="0" stop-color="#e2e5f4" stop-opacity="0"/><stop offset="1" stop-color="#9aa6e2"/></linearGradient><linearGradient id="linear-gradient-3" gradientTransform="matrix(187.5 0 0 -72.92 125 36479.17)" gradientUnits="userSpaceOnUse" x1=".5" x2=".5" y1="499.95" y2="499.02"><stop offset="0" stop-color="#e28b5a"/><stop offset="1" stop-color="#b35e3e"/></linearGradient><linearGradient id="linear-gradient-4" gradientTransform="matrix(187.5 0 0 -187.5 260.42 94041.67)" gradientUnits="userSpaceOnUse" x1=".16" x2=".9" y1="499.85" y2="499.09"><stop offset="0" stop-color="#36db39"/><stop offset="1" stop-color="#20b823"/></linearGradient><linearGradient id="linear-gradient-5" gradientTransform="matrix(104.33 0 0 -104.17 302.08 52416.66)" gradientUnits="userSpaceOnUse" x1=".35" x2=".88" y1="499.88" y2="499.07"><stop offset="0" stop-color="#20b823"/><stop offset="1" stop-color="#36db39" stop-opacity="0"/></linearGradient><linearGradient id="linear-gradient-6" gradientTransform="matrix(187.5 0 0 -31.25 125 15687.5)" gradientUnits="userSpaceOnUse" x1=".5" x2=".5" y1="499.75" y2="498.87"><stop offset="0" stop-color="#b35e3e" stop-opacity="0"/><stop offset="1" stop-color="#96492d"/></linearGradient><linearGradient id="linear-gradient-7" gradientTransform="matrix(82.72 0 0 -83.76 312.5 42223.28)" x2=".5" xlink:href="#linear-gradient" y1="499.93" y2="498.98"/><g id="Task_Done" data-name="Task Done"><g id="Group"><path id="Path" d="m364.58 479.17h-291.66a20.89 20.89 0 0 1 -20.83-20.83v-364.59a20.89 20.89 0 0 1 20.83-20.83h291.66a20.89 20.89 0 0 1 20.83 20.83v364.58a20.89 20.89 0 0 1 -20.83 20.84z" fill="url(#linear-gradient)"/><path id="Path-2" d="m364.58 479.17h-291.66a20.89 20.89 0 0 1 -20.83-20.83v-41.67h333.33v41.67a20.89 20.89 0 0 1 -20.84 20.83z" fill="url(#linear-gradient-2)" data-name="Path"/><g fill="#8491c1"><path id="Path-3" d="m208.33 177.08h-83.33c-6.25 0-10.42-4.17-10.42-10.42s4.17-10.42 10.42-10.42h83.33c6.25 0 10.42 4.17 10.42 10.42s-4.17 10.42-10.42 10.42z" data-name="Path"/><path id="Path-4" d="m312.5 229.17h-187.5c-6.25 0-10.42-4.17-10.42-10.42s4.17-10.42 10.42-10.42h187.5c6.25 0 10.42 4.17 10.42 10.42s-4.17 10.42-10.42 10.42z" data-name="Path"/><path id="Path-5" d="m239.58 281.25h-114.58c-6.25 0-10.42-4.17-10.42-10.42s4.17-10.42 10.42-10.42h114.58c6.25 0 10.42 4.17 10.42 10.42s-4.17 10.42-10.42 10.42z" data-name="Path"/></g><path id="Path-6" d="m302.08 52.08h-42.7c-4.17-17.71-20.83-31.25-40.62-31.25s-35.42 13.54-40.63 31.25h-42.71c-6.25 0-10.42 4.17-10.42 10.42v20.83c0 6.25 4.17 10.42 10.42 10.42h166.66c6.25 0 10.42-4.17 10.42-10.42v-20.83c0-6.25-4.17-10.42-10.42-10.42z" fill="url(#linear-gradient-3)" data-name="Path"/><circle id="Oval" cx="354.17" cy="385.42" fill="url(#linear-gradient-4)" r="93.75"/><path id="Path-7" d="m354.17 437.5a20.57 20.57 0 0 1 -14.58-6.25l-31.26-31.25a20.63 20.63 0 1 1 29.17-29.17l10.42 10.42 18.75-36.46c3.13-7.29 10.42-11.46 18.75-11.46 3.13 0 6.25 1 9.38 2.08a20.88 20.88 0 0 1 9.38 28.13l-31.26 62.46a20 20 0 0 1 -15.62 11.46z" fill="url(#linear-gradient-5)" data-name="Path"/><path id="Path-8" d="m125 83.33c0 6.25 4.17 10.42 10.42 10.42h166.66c6.25 0 10.42-4.17 10.42-10.42v-20.83h-187.5z" fill="url(#linear-gradient-6)" data-name="Path"/><path id="Path-9" d="m354.17 427.08a9.46 9.46 0 0 1 -7.29-3.12l-31.25-31.25a10.31 10.31 0 0 1 14.58-14.58l20.79 20.87 25-50c2.08-5.21 8.33-7.29 13.54-4.17 5.21 2.08 7.29 8.33 4.17 13.54l-31.25 62.5a7.83 7.83 0 0 1 -7.29 5.21c.04 1 .04 1-1 1z" fill="url(#linear-gradient-7)" data-name="Path"/></g></g></svg>