<svg width="41" height="40" viewBox="0 0 41 40" fill="none" xmlns="http://www.w3.org/2000/svg">
<g id="Group">
<path id="Vector" d="M40.7998 20C40.7998 31.0457 31.8455 40 20.7998 40C19.5729 40 18.3719 39.8895 17.2061 39.678C16.9431 39.6302 16.5029 38.9957 16.2436 38.9378C11.2707 37.8275 7.83457 35.0914 5.0202 31.0389C4.86168 30.8106 4.04855 30.9346 3.89949 30.6996C1.93652 27.6055 0.799805 23.9355 0.799805 20C0.799805 8.9543 9.7541 0 20.7998 0C31.8455 0 40.7998 8.9543 40.7998 20Z" fill="#2740B1"/>
<path id="Vector_2" d="M35.9929 21.066C35.9929 28.7527 29.7617 34.9839 22.075 34.9839C14.3884 34.9839 8.15723 28.7527 8.15723 21.066C8.15723 13.3794 14.3885 7.14813 22.075 7.14813C29.7616 7.14813 35.9929 13.3794 35.9929 21.066Z" fill="#314DCA"/>
<path id="Vector_3" d="M25.7872 33.8012C26.2187 33.8012 26.5685 34.1509 26.5685 34.5824V36.0917C26.5685 36.5232 26.2187 36.873 25.7872 36.873C25.3557 36.873 25.006 36.5232 25.006 36.0917V34.5824C25.006 34.1509 25.3557 33.8012 25.7872 33.8012ZM27.5085 34.179L28.5757 35.2463C28.8808 35.5513 29.3755 35.5513 29.6806 35.2463C29.9856 34.9412 29.9856 34.4465 29.6806 34.1414L28.6133 33.0741C28.3082 32.7691 27.8135 32.7691 27.5085 33.0741C27.2034 33.3792 27.2034 33.8739 27.5085 34.179ZM21.8938 35.2463C22.1989 35.5513 22.6936 35.5513 22.9987 35.2463L24.066 34.179C24.371 33.8739 24.371 33.3792 24.066 33.0741C23.7609 32.7691 23.2662 32.7691 22.9611 33.0741L21.8938 34.1414C21.5888 34.4465 21.5888 34.9411 21.8938 35.2463Z" fill="#6C7FD9"/>
<path id="Vector_4" d="M17.2063 31.25V39.678C11.523 38.6468 6.67617 35.2139 3.75547 30.4688H16.4251C16.8566 30.4688 17.2063 30.8185 17.2063 31.25ZM16.4251 4.6875H3.7207C3.28922 4.6875 2.93945 5.03734 2.93945 5.46875V18.1732C2.93945 18.6047 3.28922 18.9545 3.7207 18.9545H16.4251C16.8566 18.9545 17.2063 18.6047 17.2063 18.1732V5.46875C17.2063 5.03727 16.8566 4.6875 16.4251 4.6875Z" fill="#FF3980"/>
<path id="Vector_5" d="M7.3166 31.8712L4.61152 32.4949C4.19105 32.5919 3.77167 32.3296 3.67472 31.9092L0.819955 19.5296C0.723002 19.1092 0.985267 18.6898 1.40566 18.5928L4.11074 17.9691C4.53121 17.8721 4.95058 18.1344 5.04753 18.5548L7.90222 30.9343C7.99925 31.3548 7.73706 31.7741 7.3166 31.8712Z" fill="#FF3980"/>
<path id="Vector_6" d="M16.9911 29.6402L6.71984 32.0087C6.29937 32.1057 5.87999 31.8434 5.78304 31.423L2.92835 19.0434C2.8314 18.623 3.09367 18.2036 3.51406 18.1066L13.7853 15.7381C14.2058 15.6412 14.6252 15.9034 14.7221 16.3238L17.5768 28.7033C17.6737 29.1238 17.4116 29.5433 16.9911 29.6402Z" fill="#FF5E95"/>
<path id="Vector_7" d="M5.40918 8.0838C5.40918 7.65232 5.75895 7.30255 6.19043 7.30255H13.0654C13.4969 7.30255 13.8467 7.65232 13.8467 8.0838C13.8467 8.51529 13.4969 8.86505 13.0654 8.86505H6.19043C5.75895 8.86505 5.40918 8.51529 5.40918 8.0838ZM13.0654 10.4276H6.19043C5.75895 10.4276 5.40918 10.7773 5.40918 11.2088C5.40918 11.6403 5.75895 11.9901 6.19043 11.9901H13.0654C13.4969 11.9901 13.8467 11.6403 13.8467 11.2088C13.8467 10.7773 13.4969 10.4276 13.0654 10.4276ZM9.26855 13.5526H6.19043C5.75895 13.5526 5.40918 13.9023 5.40918 14.3338C5.40918 14.7653 5.75895 15.1151 6.19043 15.1151H9.26855C9.70004 15.1151 10.0498 14.7653 10.0498 14.3338C10.0498 13.9023 9.70004 13.5526 9.26855 13.5526Z" fill="#FFA2C3"/>
<path id="Vector_8" d="M23.2782 5.46875V18.1732C23.2782 18.6047 22.9284 18.9545 22.4969 18.9545H19.5498C19.1183 18.9545 18.7686 18.6047 18.7686 18.1732V5.46875C18.7686 5.03734 19.1183 4.6875 19.5498 4.6875H22.4969C22.9283 4.6875 23.2782 5.03734 23.2782 5.46875Z" fill="#FFAA00"/>
<path id="Vector_9" d="M33.0358 5.46875V18.1732C33.0358 18.6047 32.6861 18.9545 32.2546 18.9545H21.9854C21.5539 18.9545 21.2041 18.6047 21.2041 18.1732V5.46875C21.2041 5.03727 21.5539 4.6875 21.9854 4.6875H32.2547C32.6861 4.6875 33.0358 5.03727 33.0358 5.46875Z" fill="#FFB509"/>
<path id="Vector_10" d="M25.462 17.3951L23.9608 30.0106C23.9097 30.439 23.5211 30.745 23.0926 30.6941L20.1548 30.3445C19.7264 30.2934 19.4204 29.9049 19.4714 29.4763L20.9726 16.8609C21.0236 16.4324 21.4122 16.1264 21.8408 16.1774L24.7786 16.527C25.207 16.578 25.513 16.9667 25.462 17.3951Z" fill="#FFC143"/>
<path id="Vector_11" d="M35.1389 18.5467L33.6376 31.1622C33.5866 31.5906 33.198 31.8967 32.7695 31.8457L22.7798 30.6569C22.3514 30.6059 22.0454 30.2173 22.0964 29.7888L23.5976 17.1734C23.6486 16.7449 24.0372 16.4389 24.4658 16.4899L34.4555 17.6787C34.8839 17.7296 35.1899 18.1184 35.1389 18.5467Z" fill="#FFCD6B"/>
<path id="Vector_12" d="M26.9122 24.5946C26.8773 25.0246 26.5002 25.3449 26.0702 25.3099L23.0022 25.0606C22.5721 25.0257 22.2519 24.6487 22.2868 24.2186C22.3217 23.7886 22.6987 23.4683 23.1287 23.5032L26.1968 23.7525C26.6269 23.7874 26.9472 24.1645 26.9122 24.5946ZM30.2344 20.9454L23.3819 20.3885C22.9519 20.3535 22.5749 20.6739 22.54 21.1039C22.5051 21.534 22.8253 21.911 23.2554 21.9459L30.1078 22.5028C30.5379 22.5378 30.9148 22.2175 30.9498 21.7874C30.9847 21.3574 30.6644 20.9803 30.2344 20.9454Z" fill="#FF9500"/>
<path id="Vector_13" d="M29.1159 4.1019L28.0868 16.7646C28.0519 17.1947 27.6748 17.5149 27.2448 17.48L24.4084 17.2495C23.9783 17.2146 23.6581 16.8376 23.693 16.4075L24.7222 3.74479C24.7571 3.31479 25.1341 2.99448 25.5641 3.0294L28.4005 3.25995C28.8305 3.29487 29.1508 3.6719 29.1159 4.1019Z" fill="#009B5E"/>
<path id="Vector_14" d="M38.9425 4.90056L37.9133 17.5633C37.8783 17.9934 37.5013 18.3136 37.0713 18.2787L27.1076 17.4688C26.6776 17.4339 26.3573 17.057 26.3923 16.6269L27.4214 3.96415C27.4563 3.53407 27.8333 3.21384 28.2633 3.24876L38.2271 4.0586C38.6571 4.09353 38.9774 4.47048 38.9425 4.90056Z" fill="#00B972"/>
<path id="Vector_15" d="M31.318 0.78125V13.4857C31.318 13.9172 30.9683 14.267 30.5368 14.267H27.3145C26.883 14.267 26.5332 13.9172 26.5332 13.4857V0.78125C26.5332 0.349844 26.883 0 27.3145 0H30.5368C30.9683 0 31.318 0.349844 31.318 0.78125Z" fill="#00D683"/>
<path id="Vector_16" d="M40.7999 0.78125V13.4857C40.7999 13.9172 40.4501 14.267 40.0186 14.267H29.9072C29.4757 14.267 29.126 13.9172 29.126 13.4857V0.78125C29.126 0.349766 29.4757 0 29.9072 0H40.0186C40.4501 0 40.7999 0.349766 40.7999 0.78125Z" fill="#00E294"/>
<path id="Vector_17" d="M39.0081 4.71203L33.3239 10.3961C33.1713 10.5487 32.9714 10.6249 32.7715 10.6249C32.5716 10.6249 32.3717 10.5486 32.2191 10.3961L28.5677 6.74468C28.2626 6.4396 28.2626 5.94492 28.5677 5.63984C28.8728 5.33476 29.3674 5.33476 29.6726 5.63984L32.7716 8.73882L37.9033 3.6071C38.2085 3.30203 38.703 3.30203 39.0082 3.6071C39.3132 3.91234 39.3132 4.40695 39.0081 4.71203Z" fill="#007E4B"/>
<path id="Vector_18" d="M10.6242 27.9598C10.6914 28.3107 10.4615 28.6496 10.1106 28.7168C9.75978 28.784 9.42088 28.5541 9.35361 28.2032C9.28635 27.8523 9.51635 27.5134 9.86721 27.4462C10.2181 27.3791 10.557 27.609 10.6242 27.9598ZM11.4067 21.3225C11.0746 19.9723 9.74033 19.0984 8.36853 19.3324C7.0365 19.5599 6.08353 20.7475 6.15189 22.0944C6.15807 22.2177 6.17307 22.3421 6.19642 22.4642C6.25736 22.782 6.56447 22.9904 6.88213 22.9295C7.19994 22.8686 7.40822 22.5616 7.34736 22.2437C7.33416 22.1748 7.32572 22.1048 7.32221 22.0354C7.28392 21.2806 7.81861 20.6152 8.5658 20.4876C9.33525 20.3562 10.0826 20.8459 10.2686 21.6023C10.3679 22.0061 10.2995 22.4205 10.0757 22.7694C9.85189 23.1185 9.50463 23.3537 9.09799 23.4316C8.94533 23.4609 8.81056 23.5495 8.72338 23.678C8.63611 23.8066 8.60353 23.9646 8.63275 24.1173L9.04236 26.2553C9.09611 26.5359 9.34166 26.7312 9.61721 26.7311C9.65377 26.7311 9.6908 26.7277 9.72807 26.7205C10.0459 26.6597 10.2542 26.3527 10.1933 26.0348L9.88158 24.4076C10.3615 24.1976 10.776 23.8482 11.0621 23.4019C11.4611 22.7799 11.5834 22.0414 11.4067 21.3225Z" fill="#FFF5F5"/>
</g>
</svg>
