<svg id="Flat" viewBox="0 0 64 64" xmlns="http://www.w3.org/2000/svg"><path d="m47.3652 6.7048-4.1204-2.4096c-.3118-.1824-.6978-.1824-1.0096 0l-4.1199 2.4093c-.3121.1825-.6984.1824-1.0104-.0004l-4.1094-2.4079c-.3122-.1829-.6989-.1829-1.0111 0l-4.1089 2.4076c-.3122.1829-.6989.1829-1.0111 0l-4.1094-2.4079c-.3119-.1828-.6983-.1829-1.0104-.0004l-4.1194 2.409c-.3121.1825-.6984.1824-1.0104-.0004l-3.1094-1.8219c-.6666-.3906-1.5055.0901-1.5055.8628v38.255h-4v16h41c2.2091 0 4-1.7909 4-4v-50.2568c0-.7723-.8382-1.2531-1.5048-.8632l-3.1204 1.8248c-.3118.1824-.6978.1824-1.0096 0z" fill="#eceff1"/><g fill="#cfd8dc"><path d="m46.5 22.75h-28c-.4141 0-.75-.3359-.75-.75s.3359-.75.75-.75h28c.4141 0 .75.3359.75.75s-.3359.75-.75.75z"/><path d="m46.5 15.75h-28c-.4141 0-.75-.3359-.75-.75s.3359-.75.75-.75h28c.4141 0 .75.3359.75.75s-.3359.75-.75.75z"/><path d="m46.5 29.75h-28c-.4141 0-.75-.3359-.75-.75s.3359-.75.75-.75h28c.4141 0 .75.3359.75.75s-.3359.75-.75.75z"/><path d="m46.5 36.75h-28c-.4141 0-.75-.3359-.75-.75s.3359-.75.75-.75h28c.4141 0 .75.3359.75.75s-.3359.75-.75.75z"/><path d="m46.5 43.75h-28c-.4141 0-.75-.3359-.75-.75s.3359-.75.75-.75h28c.4141 0 .75.3359.75.75s-.3359.75-.75.75z"/><path d="m46.5 50.75h-28c-.4141 0-.75-.3359-.75-.75s.3359-.75.75-.75h28c.4141 0 .75.3359.75.75s-.3359.75-.75.75z"/></g><g><circle cx="43" cy="43" fill="#388e3c" r="17"/><path d="m40.8789 48.9917c-.4482 0-.8965-.1704-1.2373-.5117l-6.3643-6.3638c-.293-.293-.293-.7676 0-1.0605s.7676-.293 1.0605 0l6.3643 6.3638c.0977.0977.2559.0977.3535 0l10.6064-10.6064c.293-.293.7676-.293 1.0605 0s.293.7676 0 1.0605l-10.6064 10.6064c-.3408.3413-.7891.5117-1.2373.5117z" fill="#eceff1"/></g><path d="m4 44h8v12c0 2.2077-1.7923 4-4 4-2.2077 0-4-1.7923-4-4z" fill="#cfd8dc"/></svg>