<svg width="40" height="41" viewBox="0 0 40 41" fill="none" xmlns="http://www.w3.org/2000/svg">
<g id="Icon">
<circle id="Ellipse 3" cx="20" cy="20.1" r="20" fill="#FA5A7D"/>
<g id="Sales Icon">
<g id="Group 916">
<path id="Subtract" fill-rule="evenodd" clip-rule="evenodd" d="M13 11.1C11.8954 11.1 11 11.9954 11 13.1V27.1C11 28.2045 11.8954 29.1 13 29.1H27C28.1046 29.1 29 28.2045 29 27.1V13.1C29 11.9954 28.1046 11.1 27 11.1H13ZM16 21.1C16 20.5477 15.5523 20.1 15 20.1C14.4477 20.1 14 20.5477 14 21.1V25.1C14 25.6523 14.4477 26.1 15 26.1C15.5523 26.1 16 25.6523 16 25.1V21.1ZM20 17.1C20.5523 17.1 21 17.5477 21 18.1V25.1C21 25.6523 20.5523 26.1 20 26.1C19.4477 26.1 19 25.6523 19 25.1V18.1C19 17.5477 19.4477 17.1 20 17.1ZM26 15.1C26 14.5477 25.5523 14.1 25 14.1C24.4477 14.1 24 14.5477 24 15.1V25.1C24 25.6523 24.4477 26.1 25 26.1C25.5523 26.1 26 25.6523 26 25.1V15.1Z" fill="white"/>
</g>
</g>
</g>
</svg>
