<svg width="23" height="23" viewBox="0 0 23 23" fill="none" xmlns="http://www.w3.org/2000/svg">
<g id="dashboard 1">
<path id="Vector" d="M9.09359 1.00006H2.53118C1.68684 1.00006 1 1.6869 1 2.53124V6.46869C1 7.31318 1.68684 8.00003 2.53118 8.00003H9.09359C9.93809 8.00003 10.6249 7.31318 10.6249 6.46869V2.53124C10.6249 1.6869 9.93809 1.00006 9.09359 1.00006Z" fill="white"/>
<path id="Vector_2" d="M9.09359 9.75006H2.53118C1.68684 9.75006 1 10.4369 1 11.2814V20.4688C1 21.3131 1.68684 22 2.53118 22H9.09359C9.93809 22 10.6249 21.3131 10.6249 20.4688V11.2814C10.6249 10.4369 9.93809 9.75006 9.09359 9.75006Z" fill="white"/>
<path id="Vector_3" d="M20.4688 15.0001H13.9063C13.0618 15.0001 12.375 15.6869 12.375 16.5314V20.4688C12.375 21.3132 13.0618 22 13.9063 22H20.4688C21.3131 22 21.9999 21.3132 21.9999 20.4688V16.5314C21.9999 15.6869 21.3131 15.0001 20.4688 15.0001Z" fill="white"/>
<path id="Vector_4" d="M20.4688 1.00006H13.9063C13.0618 1.00006 12.375 1.6869 12.375 2.53124V11.7186C12.375 12.5631 13.0618 13.25 13.9063 13.25H20.4688C21.3131 13.25 21.9999 12.5631 21.9999 11.7186V2.53124C21.9999 1.6869 21.3131 1.00006 20.4688 1.00006Z" fill="white"/>
</g>
</svg>
