<svg width="40" height="41" viewBox="0 0 40 41" fill="none" xmlns="http://www.w3.org/2000/svg">
<circle cx="20" cy="20.1" r="20" fill="#BF83FF"/>
<g clip-path="url(#clip0_20_2368)">
<path d="M28.5358 20.8119H26.6797C26.8689 21.3299 26.9722 21.8888 26.9722 22.4715V29.4863C26.9722 29.7292 26.93 29.9624 26.853 30.1792H29.9215C31.0678 30.1792 32.0002 29.2467 32.0002 28.1005V24.2764C32.0003 22.3661 30.4461 20.8119 28.5358 20.8119Z" fill="white"/>
<path d="M13.0281 22.4715C13.0281 21.8889 13.1314 21.3299 13.3206 20.812H11.4645C9.55419 20.812 8 22.3661 8 24.2765V28.1006C8 29.2468 8.93249 30.1793 10.0787 30.1793H13.1473C13.0703 29.9624 13.0281 29.7293 13.0281 29.4864V22.4715Z" fill="white"/>
<path d="M22.1218 19.007H17.8786C15.9683 19.007 14.4141 20.5611 14.4141 22.4715V29.4864C14.4141 29.869 14.7243 30.1793 15.107 30.1793H24.8935C25.2761 30.1793 25.5864 29.869 25.5864 29.4864V22.4715C25.5864 20.5611 24.0322 19.007 22.1218 19.007Z" fill="white"/>
<path d="M20 9.82062C17.7026 9.82062 15.8335 11.6897 15.8335 13.9872C15.8335 15.5456 16.6936 16.9066 17.9638 17.6211C18.5663 17.9601 19.2609 18.1537 20 18.1537C20.7392 18.1537 21.4338 17.9601 22.0362 17.6211C23.3065 16.9066 24.1666 15.5455 24.1666 13.9872C24.1666 11.6898 22.2975 9.82062 20 9.82062Z" fill="white"/>
<path d="M12.6839 13.7042C10.9657 13.7042 9.56787 15.102 9.56787 16.8202C9.56787 18.5384 10.9657 19.9362 12.6839 19.9362C13.1197 19.9362 13.5348 19.8459 13.9118 19.6836C14.5636 19.403 15.1011 18.9062 15.4337 18.284C15.6671 17.8472 15.7999 17.349 15.7999 16.8202C15.7999 15.102 14.4021 13.7042 12.6839 13.7042Z" fill="white"/>
<path d="M27.3162 13.7042C25.598 13.7042 24.2002 15.102 24.2002 16.8202C24.2002 17.349 24.333 17.8473 24.5664 18.284C24.899 18.9063 25.4365 19.403 26.0883 19.6836C26.4653 19.8459 26.8804 19.9362 27.3162 19.9362C29.0344 19.9362 30.4322 18.5384 30.4322 16.8202C30.4322 15.102 29.0344 13.7042 27.3162 13.7042Z" fill="white"/>
</g>
<defs>
<clipPath id="clip0_20_2368">
<rect width="24" height="24" fill="white" transform="translate(8 8)"/>
</clipPath>
</defs>
</svg>
