<svg width="41" height="41" viewBox="0 0 41 41" fill="none" xmlns="http://www.w3.org/2000/svg">
<circle cx="20.5" cy="20.1" r="20" fill="#FF947A"/>
<path d="M25.19 10H16.81C13.17 10 11 12.17 11 15.81V24.19C11 27.83 13.17 30 16.81 30H25.19C28.83 30 31 27.83 31 24.19V15.81C31 12.17 28.83 10 25.19 10ZM18.97 22.9L16.72 25.15C16.57 25.3 16.38 25.37 16.19 25.37C16 25.37 15.8 25.3 15.66 25.15L14.91 24.4C14.61 24.11 14.61 23.63 14.91 23.34C15.2 23.05 15.67 23.05 15.97 23.34L16.19 23.56L17.91 21.84C18.2 21.55 18.67 21.55 18.97 21.84C19.26 22.13 19.26 22.61 18.97 22.9ZM18.97 15.9L16.72 18.15C16.57 18.3 16.38 18.37 16.19 18.37C16 18.37 15.8 18.3 15.66 18.15L14.91 17.4C14.61 17.11 14.61 16.63 14.91 16.34C15.2 16.05 15.67 16.05 15.97 16.34L16.19 16.56L17.91 14.84C18.2 14.55 18.67 14.55 18.97 14.84C19.26 15.13 19.26 15.61 18.97 15.9ZM26.56 24.62H21.31C20.9 24.62 20.56 24.28 20.56 23.87C20.56 23.46 20.9 23.12 21.31 23.12H26.56C26.98 23.12 27.31 23.46 27.31 23.87C27.31 24.28 26.98 24.62 26.56 24.62ZM26.56 17.62H21.31C20.9 17.62 20.56 17.28 20.56 16.87C20.56 16.46 20.9 16.12 21.31 16.12H26.56C26.98 16.12 27.31 16.46 27.31 16.87C27.31 17.28 26.98 17.62 26.56 17.62Z" fill="white"/>
</svg>
