<svg width="41" height="40" viewBox="0 0 41 40" fill="none" xmlns="http://www.w3.org/2000/svg">
<g id="Component 3" clip-path="url(#clip0_1726_2039)">
<path id="Vector" d="M27.8278 3.16681H5.69525C3.22729 3.16681 1.22656 5.16754 1.22656 7.6355V34.9164C1.22656 37.3843 3.22729 39.3851 5.69525 39.3851H27.8278C30.2958 39.3851 32.2965 37.3843 32.2965 34.9164V7.6355C32.2965 5.16754 30.2958 3.16681 27.8278 3.16681Z" fill="#5B5B68"/>
<path id="Vector_2" d="M5.69562 35.947C5.12738 35.947 4.66504 35.4846 4.66504 34.9164V7.6355C4.66504 7.06726 5.12738 6.60492 5.69562 6.60492H27.8282C28.3967 6.60492 28.8591 7.06726 28.8591 7.6355V34.9164C28.8591 35.4846 28.3967 35.947 27.8282 35.947H5.69562Z" fill="#D5E8EC"/>
<path id="Vector_3" d="M23.1017 7.96356H10.4211C9.36273 7.96356 8.50488 7.10571 8.50488 6.04736V2.50977C8.50488 1.45172 9.36304 0.593872 10.4211 0.593872H23.1017C24.1601 0.593872 25.0179 1.45172 25.0179 2.50977V6.04736C25.0179 7.10571 24.1601 7.96356 23.1017 7.96356Z" fill="#FED563"/>
<path id="Vector_4" d="M14.9159 4.25659C14.9159 5.21851 14.1362 5.99823 13.1743 5.99823C12.2123 5.99823 11.4326 5.21851 11.4326 4.25659C11.4326 3.29468 12.2123 2.51495 13.1743 2.51495C14.1362 2.51495 14.9159 3.29468 14.9159 4.25659Z" fill="#5B5B68"/>
<path id="Vector_5" d="M22.0907 4.25659C22.0907 5.21851 21.311 5.99823 20.3491 5.99823C19.3871 5.99823 18.6074 5.21851 18.6074 4.25659C18.6074 3.29468 19.3871 2.51495 20.3491 2.51495C21.311 2.51495 22.0907 3.29468 22.0907 4.25659Z" fill="#5B5B68"/>
<path id="Vector_6" d="M39.7203 27.6501C39.7203 34.1428 34.4569 39.4061 27.9643 39.4061C21.4714 39.4061 16.208 34.1428 16.208 27.6501C16.208 21.1575 21.4714 15.8942 27.9643 15.8942C34.4569 15.8942 39.7203 21.1575 39.7203 27.6501Z" fill="#55C7F3"/>
<path id="Vector_7" d="M36.5458 27.6501C36.5458 32.3898 32.7037 36.2326 27.964 36.2326C27.5477 36.2326 27.1376 36.2033 26.7372 36.1447C22.5786 35.5502 19.3818 31.9733 19.3818 27.6501C19.3818 23.327 22.5786 19.7501 26.7372 19.1556C27.1376 19.097 27.5477 19.0677 27.964 19.0677C32.7037 19.0677 36.5458 22.9105 36.5458 27.6501Z" fill="#DAFDFD"/>
<path id="Vector_8" d="M34.0916 27.6501C34.0916 31.9733 30.8955 35.5502 26.7372 36.1447C22.5786 35.5502 19.3818 31.9733 19.3818 27.6501C19.3818 23.327 22.5786 19.7501 26.7372 19.1556C30.8955 19.7501 34.0916 23.327 34.0916 27.6501Z" fill="#56D8D8"/>
<path id="Vector_9" d="M31.0909 28.8376H27.9638C27.308 28.8376 26.7764 28.306 26.7764 27.6501V22.3065C26.7764 21.6507 27.308 21.1191 27.9638 21.1191C28.6196 21.1191 29.1512 21.6507 29.1512 22.3065V26.4627H31.0909C31.7468 26.4627 32.2784 26.9943 32.2784 27.6501C32.2784 28.306 31.7468 28.8376 31.0909 28.8376Z" fill="#5B5B68"/>
<path id="Vector_10" d="M10.3904 19.1278C10.1026 19.1278 9.83041 18.9895 9.66073 18.7536L7.20437 15.3387C6.91446 14.9356 7.00631 14.3741 7.40915 14.0841C7.81228 13.7942 8.37381 13.8861 8.66372 14.2892L10.2476 16.4911L12.3411 12.2586C12.5611 11.8136 13.1001 11.6314 13.545 11.8515C13.99 12.0715 14.1721 12.6104 13.9521 13.0554L11.1961 18.6273C11.0563 18.9102 10.7786 19.0988 10.4643 19.1247C10.4395 19.1266 10.4148 19.1278 10.3904 19.1278Z" fill="#FC315F"/>
<path id="Vector_11" d="M10.3904 30.1941C10.1026 30.1941 9.83041 30.0559 9.66073 29.82L7.20437 26.4051C6.91446 26.0019 7.00631 25.4404 7.40915 25.1505C7.81228 24.8606 8.37381 24.9524 8.66372 25.3553L10.2476 27.5574L12.3411 23.3249C12.5611 22.88 13.1001 22.6978 13.545 22.9178C13.99 23.1378 14.1721 23.6768 13.9521 24.1217L11.1961 29.6936C11.0563 29.9765 10.7786 30.1651 10.4643 30.1911C10.4395 30.1932 10.4148 30.1941 10.3904 30.1941Z" fill="#FC315F"/>
<path id="Vector_12" d="M13.1744 6.5921C14.4619 6.5921 15.5096 5.54443 15.5096 4.25659C15.5096 2.96906 14.4619 1.92139 13.1744 1.92139C11.8865 1.92139 10.8389 2.96906 10.8389 4.25659C10.8389 5.54443 11.8865 6.5921 13.1744 6.5921ZM13.1744 3.10883C13.8073 3.10883 14.3221 3.62366 14.3221 4.25659C14.3221 4.88953 13.8073 5.40466 13.1744 5.40466C12.5414 5.40466 12.0263 4.88953 12.0263 4.25659C12.0263 3.62366 12.5414 3.10883 13.1744 3.10883Z" fill="black"/>
<path id="Vector_13" d="M20.3492 6.5921C21.6367 6.5921 22.6844 5.54443 22.6844 4.25659C22.6844 2.96906 21.6367 1.92139 20.3492 1.92139C19.0613 1.92139 18.0137 2.96906 18.0137 4.25659C18.0137 5.54443 19.0613 6.5921 20.3492 6.5921ZM20.3492 3.10883C20.9821 3.10883 21.4969 3.62366 21.4969 4.25659C21.4969 4.88953 20.9821 5.40466 20.3492 5.40466C19.7162 5.40466 19.2011 4.88953 19.2011 4.25659C19.2011 3.62366 19.7162 3.10883 20.3492 3.10883Z" fill="black"/>
<path id="Vector_14" d="M37.8591 20.2594C37.6629 19.9969 37.2906 19.9432 37.0281 20.1395C36.7654 20.336 36.712 20.708 36.9082 20.9708C38.3593 22.9105 39.1265 25.2203 39.1265 27.6501C39.1265 33.8052 34.1189 38.8126 27.9641 38.8126C21.809 38.8126 16.8017 33.8052 16.8017 27.6501C16.8017 21.4951 21.809 16.4877 27.9641 16.4877C30.6796 16.4877 33.2968 17.4744 35.3332 19.2657C35.5795 19.4824 35.9545 19.4583 36.1712 19.212C36.3879 18.9661 36.3638 18.5907 36.1175 18.3743C35.147 17.5204 34.0569 16.8323 32.8909 16.3251V7.6355C32.8909 4.84406 30.6198 2.57294 27.828 2.57294H25.6121V2.50977C25.6121 1.12579 24.486 0 23.1021 0H10.4214C9.03741 0 7.91162 1.12579 7.91162 2.50977V2.57294H5.69574C2.9046 2.57294 0.633789 4.84406 0.633789 7.6355V34.9161C0.633789 37.7075 2.9046 39.9786 5.69574 39.9786H27.2463C27.4838 39.9924 27.723 40 27.9638 40C34.7738 40 40.3137 34.4598 40.3137 27.6501C40.314 24.9619 39.465 22.4063 37.8591 20.2594ZM27.828 3.76038C29.9648 3.76038 31.7031 5.49866 31.7031 7.6355V15.8798C30.9725 15.6479 30.2194 15.4837 29.4525 15.3906V7.6355C29.4525 6.73981 28.724 6.01105 27.828 6.01105H25.6121V3.76038H27.828ZM9.09906 2.50977C9.09906 1.7807 9.69232 1.18744 10.4214 1.18744H23.1024C23.8314 1.18744 24.4247 1.7807 24.4247 2.50977V6.04736C24.4247 6.77673 23.8314 7.36969 23.1024 7.36969H10.4214C9.69232 7.36969 9.09906 6.77673 9.09906 6.04736V2.50977ZM5.69574 38.7912C3.55951 38.7912 1.82123 37.0526 1.82123 34.9161V7.6355C1.82123 5.49866 3.55951 3.76038 5.69574 3.76038H7.91162V6.01105H5.69574C4.80005 6.01105 4.07129 6.7395 4.07129 7.63519V8.63739C4.07129 8.96515 4.3371 9.23096 4.66516 9.23096C4.99292 9.23096 5.25903 8.96515 5.25903 8.63739V7.63519C5.25903 7.39441 5.45496 7.19849 5.69574 7.19849H8.19208C8.61017 8.00476 9.45215 8.55713 10.4214 8.55713H23.1024C24.0713 8.55713 24.9136 8.00476 25.3314 7.19849H27.8283C28.0691 7.19849 28.2653 7.39441 28.2653 7.6355V15.3043C28.1649 15.3018 28.0645 15.3003 27.9641 15.3003C21.1544 15.3003 15.6143 20.8405 15.6143 27.6501C15.6143 30.5612 16.6271 33.2394 18.3184 35.3531H5.69574C5.45465 35.3531 5.25873 35.1569 5.25873 34.9161V11.2161C5.25873 10.8884 4.99292 10.6223 4.66486 10.6223C4.3371 10.6223 4.07129 10.8884 4.07129 11.2161V34.9161C4.07129 35.8118 4.80005 36.5405 5.69574 36.5405H19.4012C20.3478 37.4527 21.4395 38.2159 22.6379 38.7912H5.69574Z" fill="black"/>
<path id="Vector_15" d="M27.9641 18.4744C22.9046 18.4744 18.7881 22.5906 18.7881 27.6501C18.7881 32.7097 22.9046 36.8259 27.9641 36.8259C33.0236 36.8259 37.1398 32.7097 37.1398 27.6501C37.1398 22.5906 33.0236 18.4744 27.9641 18.4744ZM27.9641 35.6384C23.5592 35.6384 19.9758 32.0551 19.9758 27.6501C19.9758 23.2452 23.5592 19.6619 27.9641 19.6619C32.3687 19.6619 35.9524 23.2452 35.9524 27.6501C35.9524 32.0551 32.3687 35.6384 27.9641 35.6384Z" fill="black"/>
<path id="Vector_16" d="M31.0911 25.8688H29.7449V22.3065C29.7449 21.3245 28.946 20.5252 27.9639 20.5252C26.9816 20.5252 26.1826 21.3245 26.1826 22.3065V27.6501C26.1826 28.6322 26.9816 29.4315 27.9639 29.4315H31.0911C32.0734 29.4315 32.8724 28.6322 32.8724 27.6501C32.8724 26.6681 32.0734 25.8688 31.0911 25.8688ZM31.0911 28.244H27.9639C27.6365 28.244 27.3701 27.9776 27.3701 27.6501V22.3065C27.3701 21.9791 27.6365 21.7126 27.9639 21.7126C28.2914 21.7126 28.5575 21.9791 28.5575 22.3065V26.4627C28.5575 26.7905 28.8233 27.0563 29.1514 27.0563H31.0911C31.4185 27.0563 31.6849 27.3227 31.6849 27.6501C31.6849 27.9776 31.4185 28.244 31.0911 28.244Z" fill="black"/>
<path id="Vector_17" d="M9.17823 19.1004C9.45777 19.4892 9.91065 19.7214 10.3898 19.7214C10.4304 19.7214 10.4713 19.7199 10.5122 19.7165C11.0313 19.6738 11.497 19.3573 11.7277 18.8907L14.4837 13.3185C14.8484 12.5809 14.5454 11.684 13.8074 11.319C13.0701 10.9543 12.1729 11.2577 11.8082 11.9953L10.1523 15.3427L9.14496 13.9423C8.66431 13.2743 7.72986 13.122 7.06183 13.6023C6.73835 13.8352 6.52472 14.18 6.46033 14.5734C6.39594 14.9671 6.48902 15.362 6.72187 15.6855L9.17823 19.1004ZM7.63221 14.7647C7.64533 14.6845 7.68897 14.614 7.75519 14.5664C7.8089 14.5276 7.87116 14.509 7.93311 14.509C8.02802 14.509 8.1214 14.5529 8.18091 14.6356L9.76478 16.8378C9.88654 17.0069 10.088 17.0999 10.2958 17.0829C10.5033 17.0658 10.6867 16.9409 10.7792 16.7542L12.8724 12.5217C12.9468 12.3712 13.1303 12.309 13.281 12.3838C13.4318 12.4582 13.4937 12.6416 13.4193 12.7924L10.6632 18.3643C10.6162 18.4595 10.521 18.5242 10.4148 18.533C10.308 18.5416 10.2042 18.4934 10.1423 18.407L7.68592 14.9921C7.63831 14.9259 7.61908 14.845 7.63221 14.7647Z" fill="black"/>
<path id="Vector_18" d="M9.17823 30.1667C9.45777 30.5558 9.91065 30.7877 10.3898 30.7877C10.4304 30.7877 10.4713 30.7862 10.5122 30.7828C11.0313 30.7401 11.497 30.4236 11.7277 29.957L14.4837 24.3851C14.8484 23.6475 14.5454 22.7506 13.8074 22.3856C13.0701 22.0209 12.1729 22.3242 11.8082 23.0619L10.1523 26.4093L9.14496 25.0089C8.66431 24.3408 7.72986 24.1883 7.06183 24.6686C6.73835 24.9015 6.52472 25.2463 6.46033 25.64C6.39594 26.0334 6.48902 26.4282 6.72187 26.7517L9.17823 30.1667ZM7.63221 25.831C7.64533 25.7505 7.68897 25.6803 7.75519 25.6327C7.8089 25.5939 7.87116 25.5753 7.93281 25.5753C8.02771 25.5753 8.1214 25.6192 8.18091 25.7022L9.76478 27.9041C9.88654 28.0731 10.088 28.1662 10.2955 28.1491C10.5033 28.132 10.6867 28.0072 10.7789 27.8205L12.8724 23.5883C12.9468 23.4375 13.1299 23.3756 13.281 23.45C13.4318 23.5245 13.4937 23.7079 13.4193 23.8587L10.6632 29.4306C10.6159 29.5261 10.521 29.5905 10.4148 29.5993C10.308 29.6082 10.2042 29.5597 10.1423 29.4736L7.68561 26.0584C7.63831 25.9922 7.61908 25.9116 7.63221 25.831Z" fill="black"/>
<path id="Vector_19" d="M16.1776 15.563H22.946C23.2741 15.563 23.5399 15.2972 23.5399 14.9695C23.5399 14.6414 23.2741 14.3756 22.946 14.3756H16.1776C15.8498 14.3756 15.584 14.6414 15.584 14.9695C15.584 15.2972 15.8498 15.563 16.1776 15.563Z" fill="black"/>
</g>
<defs>
<clipPath id="clip0_1726_2039">
<rect width="40" height="40" fill="white" transform="translate(0.399414)"/>
</clipPath>
</defs>
</svg>
