<svg width="41" height="40" viewBox="0 0 41 40" fill="none" xmlns="http://www.w3.org/2000/svg">
<g id="Group">
<path id="Vector" d="M37.5623 8.95133H2.83789V4.68969C2.83789 3.81797 3.54453 3.11133 4.41625 3.11133H35.9838C36.8555 3.11133 37.5622 3.81797 37.5622 4.68969V8.95133H37.5623Z" fill="#FD8087"/>
<path id="Vector_2" d="M35.9838 3.11133H33.6162C34.4879 3.11133 35.1946 3.81797 35.1946 4.68969V8.95133H37.5621V4.68969C37.5621 3.81797 36.8554 3.11133 35.9838 3.11133Z" fill="#FE646F"/>
<path id="Vector_3" d="M35.9839 39.4141H4.41625C3.54453 39.4141 2.83789 38.7074 2.83789 37.8357V8.95135H37.5623V37.8357C37.5623 38.7074 36.8555 39.4141 35.9839 39.4141Z" fill="#DFF6FD"/>
<path id="Vector_4" d="M35.1946 8.95135V37.8357C35.1946 38.7074 34.4879 39.4141 33.6162 39.4141H35.9838C36.8555 39.4141 37.5621 38.7074 37.5621 37.8357V8.95135H35.1946Z" fill="#C8EFFE"/>
<path id="Vector_5" d="M0.786133 17.9306H39.6143V29.6456H0.786133V17.9306Z" fill="#FEA713"/>
<path id="Vector_6" d="M26.2981 17.9306C24.9988 21.9265 22.6538 25.9898 19.3496 29.6456H39.6145V17.9306H26.2981Z" fill="#FE9901"/>
<g id="Group_2">
<path id="Vector_7" d="M22.7256 5.63672C22.0283 5.63672 21.4629 5.07141 21.4629 4.37398V1.84867C21.4629 1.15133 22.0282 0.585938 22.7256 0.585938C23.423 0.585938 23.9884 1.15125 23.9884 1.84867V4.37406C23.9884 5.07141 23.423 5.63672 22.7256 5.63672Z" fill="#BFBFBF"/>
<path id="Vector_8" d="M27.7764 5.63672C27.0791 5.63672 26.5137 5.07141 26.5137 4.37398V1.84867C26.5137 1.15133 27.079 0.585938 27.7764 0.585938C28.4738 0.585938 29.0391 1.15125 29.0391 1.84867V4.37406C29.0391 5.07141 28.4738 5.63672 27.7764 5.63672Z" fill="#BFBFBF"/>
<path id="Vector_9" d="M32.8272 5.63672C32.1298 5.63672 31.5645 5.07141 31.5645 4.37398V1.84867C31.5645 1.15133 32.1298 0.585938 32.8272 0.585938C33.5245 0.585938 34.0899 1.15125 34.0899 1.84867V4.37406C34.0899 5.07141 33.5245 5.63672 32.8272 5.63672Z" fill="#BFBFBF"/>
<path id="Vector_10" d="M17.6748 5.63672C18.3722 5.63672 18.9376 5.07141 18.9376 4.37398V1.84867C18.9376 1.15133 18.3723 0.585938 17.6748 0.585938C16.9775 0.585938 16.4121 1.15125 16.4121 1.84867V4.37406C16.4121 5.07141 16.9774 5.63672 17.6748 5.63672Z" fill="#BFBFBF"/>
<path id="Vector_11" d="M12.6241 5.63672C13.3214 5.63672 13.8868 5.07141 13.8868 4.37398V1.84867C13.8868 1.15133 13.3215 0.585938 12.6241 0.585938C11.9267 0.585938 11.3613 1.15125 11.3613 1.84867V4.37406C11.3614 5.07141 11.9267 5.63672 12.6241 5.63672Z" fill="#BFBFBF"/>
<path id="Vector_12" d="M7.57328 5.63672C8.27062 5.63672 8.83602 5.07141 8.83602 4.37398V1.84867C8.83602 1.15133 8.2707 0.585938 7.57328 0.585938C6.87594 0.585938 6.31055 1.15125 6.31055 1.84867V4.37406C6.31055 5.07141 6.87594 5.63672 7.57328 5.63672Z" fill="#BFBFBF"/>
</g>
<g id="Group_3">
<path id="Vector_13" d="M2.83789 12.8195C3.16156 12.8195 3.42383 12.5572 3.42383 12.2336V9.53727H36.9766V17.3445H28.5086C28.1849 17.3445 27.9227 17.6069 27.9227 17.9305C27.9227 18.2541 28.1849 18.5164 28.5086 18.5164H39.6145C39.9381 18.5164 40.2004 18.2541 40.2004 17.9305C40.2004 17.6069 39.9381 17.3445 39.6145 17.3445H38.1484V4.68969C38.1484 3.49633 37.1775 2.52539 35.9841 2.52539H34.6761V1.84859C34.6761 0.829297 33.8468 0 32.8274 0C31.8081 0 30.9788 0.829297 30.9788 1.84867V2.52547H29.6253V1.84867C29.6253 0.829297 28.7959 0 27.7766 0C26.7573 0 25.928 0.829297 25.928 1.84867V2.52547H24.5745V1.84867C24.5745 0.829297 23.7452 0 22.7258 0C21.7065 0 20.8772 0.829297 20.8772 1.84867V2.52547H19.5236V1.84867C19.5236 0.829297 18.6943 0 17.675 0C16.6556 0 15.8263 0.829297 15.8263 1.84867V2.52547H14.4728V1.84867C14.4728 0.829297 13.6434 0 12.6241 0C11.6048 0 10.7755 0.829297 10.7755 1.84867V2.52547H9.42195V1.84867C9.42195 0.829297 8.59266 0 7.57336 0C6.55398 0 5.72469 0.829297 5.72469 1.84867V2.52547H4.41664C3.22328 2.52547 2.25234 3.49641 2.25234 4.68977L2.25195 12.2336C2.25195 12.5572 2.51422 12.8195 2.83789 12.8195ZM32.1507 1.84867C32.1507 1.47555 32.4543 1.17188 32.8274 1.17188C33.2005 1.17188 33.5042 1.47547 33.5042 1.84867V4.37406C33.5042 4.74719 33.2005 5.05086 32.8274 5.05086C32.4543 5.05086 32.1507 4.74727 32.1507 4.37406V1.84867ZM27.0998 1.84867C27.0998 1.47555 27.4034 1.17188 27.7766 1.17188C28.1497 1.17188 28.4534 1.47547 28.4534 1.84867V4.37406C28.4534 4.74719 28.1497 5.05086 27.7766 5.05086C27.4034 5.05086 27.0998 4.74727 27.0998 4.37406V1.84867ZM22.0491 1.84867C22.0491 1.47555 22.3527 1.17188 22.7258 1.17188C23.0989 1.17188 23.4026 1.47547 23.4026 1.84867V4.37406C23.4026 4.74719 23.0989 5.05086 22.7258 5.05086C22.3527 5.05086 22.0491 4.74727 22.0491 4.37406V1.84867ZM16.9982 1.84867C16.9982 1.47555 17.3019 1.17188 17.675 1.17188C18.0481 1.17188 18.3517 1.47547 18.3517 1.84867V4.37406C18.3517 4.74719 18.0481 5.05086 17.675 5.05086C17.3019 5.05086 16.9982 4.74727 16.9982 4.37406V1.84867ZM11.9473 1.84867C11.9473 1.47555 12.251 1.17188 12.6241 1.17188C12.9973 1.17188 13.3009 1.47547 13.3009 1.84867V4.37406C13.3009 4.74719 12.9973 5.05086 12.6241 5.05086C12.251 5.05086 11.9473 4.74727 11.9473 4.37406V1.84867ZM6.89656 1.84867C6.89656 1.47555 7.20023 1.17188 7.57336 1.17188C7.94648 1.17188 8.25008 1.47547 8.25008 1.84867V4.37406C8.25008 4.74719 7.94648 5.05086 7.57336 5.05086C7.20023 5.05086 6.89656 4.74727 6.89656 4.37406V1.84867ZM3.42422 4.68969C3.42422 4.1425 3.86937 3.69727 4.41664 3.69727H5.72469V4.37406C5.72469 5.39344 6.55398 6.22273 7.57336 6.22273C8.59266 6.22273 9.42195 5.39344 9.42195 4.37406V3.69727H10.7755V4.37406C10.7755 5.39344 11.6048 6.22273 12.6241 6.22273C13.6434 6.22273 14.4727 5.39344 14.4727 4.37406V3.69727H15.8263V4.37406C15.8263 5.39344 16.6555 6.22273 17.6749 6.22273C18.6942 6.22273 19.5235 5.39344 19.5235 4.37406V3.69727H20.8771V4.37406C20.8771 5.39344 21.7064 6.22273 22.7257 6.22273C23.7451 6.22273 24.5744 5.39344 24.5744 4.37406V3.69727H25.9279V4.37406C25.9279 5.39344 26.7572 6.22273 27.7765 6.22273C28.7959 6.22273 29.6252 5.39344 29.6252 4.37406V3.69727H30.9787V4.37406C30.9787 5.39344 31.808 6.22273 32.8273 6.22273C33.8466 6.22273 34.6759 5.39344 34.6759 4.37406V3.69727H35.984C36.5312 3.69727 36.9764 4.1425 36.9764 4.68969V8.36539H3.42422V4.68969Z" fill="black"/>
<path id="Vector_14" d="M22.8314 22.4912C22.8314 21.3941 21.9032 20.5014 20.7622 20.5014H19.3269C19.0034 20.5014 18.7412 20.7635 18.741 21.087L18.7393 26.4889C18.7393 26.8125 19.0015 27.0748 19.3252 27.0748C19.6489 27.0748 19.9111 26.8125 19.9111 26.4889V24.7234L21.8057 26.876C21.9214 27.0077 22.0832 27.0748 22.2457 27.0748C22.3832 27.0748 22.5213 27.0267 22.6326 26.9287C22.8755 26.715 22.8991 26.3447 22.6854 26.1018L21.2157 24.4321C22.1392 24.2327 22.8314 23.4384 22.8314 22.4912ZM20.7621 23.309C20.5666 23.309 20.2171 23.3105 19.9114 23.312L19.9124 21.6733H20.7621C21.2486 21.6733 21.6594 22.0478 21.6594 22.4912C21.6594 22.9345 21.2486 23.309 20.7621 23.309Z" fill="black"/>
<path id="Vector_15" d="M11.3903 20.9125L10.0576 24.9242L8.65911 20.8952C8.55302 20.5895 8.21888 20.4278 7.91349 20.5338C7.60778 20.6399 7.44599 20.9738 7.55208 21.2795L9.4002 26.6039C9.50044 26.8861 9.7681 27.0748 10.0672 27.0748H10.072C10.3731 27.0728 10.6404 26.88 10.7387 26.5909L12.5023 21.2819C12.6044 20.9748 12.4381 20.6432 12.131 20.5411C11.8242 20.4391 11.4922 20.6054 11.3903 20.9125Z" fill="black"/>
<path id="Vector_16" d="M3.48684 27.0748C5.2991 27.0748 6.77356 25.6004 6.77356 23.7881C6.77356 21.9759 5.2991 20.5014 3.48684 20.5014C1.67457 20.5014 0.200195 21.9759 0.200195 23.7881C0.200195 25.6004 1.67457 27.0748 3.48684 27.0748ZM3.48684 21.6733C4.65301 21.6733 5.60168 22.622 5.60168 23.7881C5.60168 24.9542 4.65293 25.903 3.48684 25.903C2.32074 25.903 1.37207 24.9542 1.37207 23.7881C1.37207 22.622 2.32082 21.6733 3.48684 21.6733Z" fill="black"/>
<path id="Vector_17" d="M16.7829 21.6733C17.1065 21.6733 17.3688 21.4109 17.3688 21.0873C17.3688 20.7637 17.1065 20.5014 16.7829 20.5014H14.5068C14.1832 20.5014 13.9209 20.7637 13.9209 21.0873V26.4889C13.9209 26.8125 14.1832 27.0748 14.5068 27.0748H16.7829C17.1065 27.0748 17.3688 26.8125 17.3688 26.4889C17.3688 26.1653 17.1065 25.903 16.7829 25.903H15.0928V24.3741H16.615C16.9386 24.3741 17.2009 24.1117 17.2009 23.7881C17.2009 23.4645 16.9386 23.2022 16.615 23.2022H15.0928V21.6733H16.7829Z" fill="black"/>
<path id="Vector_18" d="M39.6139 21.6733C39.9376 21.6733 40.1998 21.4109 40.1998 21.0873C40.1998 20.7637 39.9376 20.5014 39.6139 20.5014H37.3379C37.0142 20.5014 36.752 20.7637 36.752 21.0873V26.4889C36.752 26.8125 37.0142 27.0748 37.3379 27.0748H39.6139C39.9376 27.0748 40.1998 26.8125 40.1998 26.4889C40.1998 26.1653 39.9376 25.903 39.6139 25.903H37.9238V24.3741H39.446C39.7697 24.3741 40.032 24.1117 40.032 23.7881C40.032 23.4645 39.7697 23.2022 39.446 23.2022H37.9238V21.6733H39.6139Z" fill="black"/>
<path id="Vector_19" d="M26.3267 20.5014H24.7969C24.6413 20.5014 24.4921 20.5633 24.3821 20.6734C24.2721 20.7836 24.2106 20.9329 24.2109 21.0885L24.222 26.4901C24.2223 26.6457 24.2845 26.7947 24.3948 26.9045C24.5046 27.0136 24.6531 27.0748 24.8079 27.0748H24.8101C24.8563 27.0747 25.9465 27.0705 26.3817 27.0629C27.9533 27.0354 29.094 25.6582 29.094 23.7881C29.094 21.8223 27.9819 20.5014 26.3267 20.5014ZM26.3613 25.8911C26.1402 25.895 25.7343 25.898 25.3926 25.9L25.3841 21.6732H26.3267C27.503 21.6732 27.9221 22.7656 27.9221 23.788C27.9221 24.7879 27.4337 25.8724 26.3613 25.8911Z" fill="black"/>
<path id="Vector_20" d="M31.0498 20.5014C30.7261 20.5014 30.4639 20.7637 30.4639 21.0873V24.8042C30.4639 25.5979 30.8296 26.2173 31.5818 26.6979C31.9721 26.9473 32.4131 27.0741 32.8921 27.0748H32.8958C33.3093 27.0748 33.6971 26.9851 34.0486 26.808C35.1565 26.2502 35.389 25.4083 35.389 24.8003V21.0874C35.389 20.7638 35.1268 20.5015 34.8031 20.5015C34.4794 20.5015 34.2171 20.7638 34.2171 21.0874V24.8003C34.2171 25.0847 34.1381 25.4509 33.5216 25.7614C33.335 25.8554 33.1245 25.903 32.8958 25.903C32.8951 25.903 32.8943 25.903 32.8937 25.903C32.6378 25.9027 32.415 25.8396 32.2127 25.7104C31.8029 25.4486 31.6357 25.1861 31.6357 24.8042V21.0873C31.6357 20.7637 31.3735 20.5014 31.0498 20.5014Z" fill="black"/>
<path id="Vector_21" d="M0.786133 18.5164H25.774C26.0977 18.5164 26.36 18.254 26.36 17.9305C26.36 17.6069 26.0977 17.3445 25.774 17.3445H3.42363V14.968C3.42363 14.6444 3.16137 14.382 2.8377 14.382C2.51402 14.382 2.25176 14.6444 2.25176 14.968V17.3445H0.786133C0.462461 17.3445 0.200195 17.6069 0.200195 17.9305C0.200195 18.254 0.462461 18.5164 0.786133 18.5164Z" fill="black"/>
<path id="Vector_22" d="M39.6143 29.0597H0.786133C0.462461 29.0597 0.200195 29.322 0.200195 29.6456C0.200195 29.9692 0.462461 30.2316 0.786133 30.2316H2.25176V37.8359C2.25176 39.0292 3.22293 40 4.4166 40H35.9838C37.1775 40 38.1486 39.0292 38.1486 37.8359V35.2016C38.1486 34.878 37.8864 34.6156 37.5627 34.6156C37.239 34.6156 36.9768 34.878 36.9768 35.2016V37.8359C36.9768 38.3831 36.5313 38.8281 35.9838 38.8281H4.4166C3.8691 38.8281 3.42363 38.3831 3.42363 37.8359V30.2316H36.9768V32.4672C36.9768 32.7908 37.239 33.0531 37.5627 33.0531C37.8864 33.0531 38.1486 32.7908 38.1486 32.4672V30.2316H39.6143C39.9379 30.2316 40.2002 29.9692 40.2002 29.6456C40.2002 29.322 39.9379 29.0597 39.6143 29.0597Z" fill="black"/>
</g>
</g>
</svg>
