<svg id="icons" height="512" viewBox="0 0 60 60" width="512" xmlns="http://www.w3.org/2000/svg"><path d="m49.13 40.64a26 26 0 1 0 -22.13 12.36h.16z" fill="#2970e2"/><path d="m46.71 36.76a21.775 21.775 0 0 0 2.29-9.76 22 22 0 1 0 -22 22 20.976 20.976 0 0 0 2.76-.18z" fill="#e9f2f2"/><g fill="#37404f"><path d="m27 11a1 1 0 0 0 1-1v-1a1 1 0 0 0 -2 0v1a1 1 0 0 0 1 1z"/><path d="m18.866 10.912a1 1 0 0 0 -1.732 1l.5.865a1 1 0 1 0 1.732-1z"/><path d="m12.777 17.634-.866-.5a1 1 0 0 0 -1 1.732l.866.5a1 1 0 1 0 1-1.732z"/><path d="m11 27a1 1 0 0 0 -1-1h-1a1 1 0 0 0 0 2h1a1 1 0 0 0 1-1z"/><path d="m11.777 34.634-.866.5a1 1 0 1 0 1 1.732l.866-.5a1 1 0 1 0 -1-1.732z"/><path d="m19 40.856a1 1 0 0 0 -1.366.367l-.5.866a1 1 0 1 0 1.732 1l.5-.866a1 1 0 0 0 -.366-1.367z"/><path d="m27 43a1 1 0 0 0 -1 1v1a1 1 0 0 0 2 0v-1a1 1 0 0 0 -1-1z"/><path d="m45 26h-1a1 1 0 0 0 0 2h1a1 1 0 0 0 0-2z"/><path d="m43.455 17.5a1 1 0 0 0 -1.366-.366l-.866.5a1 1 0 1 0 1 1.732l.866-.5a1 1 0 0 0 .366-1.366z"/><path d="m36.5 10.546a1 1 0 0 0 -1.366.366l-.5.865a1 1 0 1 0 1.732 1l.5-.865a1 1 0 0 0 -.366-1.366z"/><path d="m33.55 30.17-5.55-3.7v-12.47a1 1 0 0 0 -2 0v13a1.01 1.01 0 0 0 .45.84l6 3.99a.939.939 0 0 0 .55.17 1 1 0 0 0 .55-1.83z"/></g><path d="m27 50a23 23 0 1 1 23-23 23.025 23.025 0 0 1 -23 23zm0-44a21 21 0 1 0 21 21 21.024 21.024 0 0 0 -21-21z" fill="#2060bc"/><circle cx="27" cy="27" fill="#e25959" r="3"/><path d="m40.3 31.939-15 24.029a1.986 1.986 0 0 0 1.7 3.032h30a1.986 1.986 0 0 0 1.7-3.032l-15-24.029a2.007 2.007 0 0 0 -3.4 0z" fill="#efa543"/><circle cx="42" cy="53" fill="#fff" r="2"/><rect fill="#fff" height="10" rx="2" width="4" x="40" y="37"/></svg>