<svg width="288" height="96" viewBox="0 0 288 96" fill="none" xmlns="http://www.w3.org/2000/svg">
<g filter="url(#filter0_d_31_867)">
<rect x="9.40039" y="9" width="268.8" height="78" rx="10" fill="white" shape-rendering="crispEdges"/>
<path d="M30.8884 37.098C28.1444 37.098 25.9184 35.04 25.9184 32.114C25.9184 29.202 28.1444 27.144 30.8884 27.144C33.6604 27.144 35.8584 29.202 35.8584 32.114C35.8584 35.04 33.6604 37.098 30.8884 37.098ZM30.8884 35.712C32.8204 35.712 34.2204 34.312 34.2204 32.114C34.2204 29.916 32.8204 28.544 30.8884 28.544C28.9564 28.544 27.5564 29.916 27.5564 32.114C27.5564 34.312 28.9564 35.712 30.8884 35.712ZM38.2269 29.286L40.4109 35.572L42.5949 29.286H44.2889L41.3489 37H39.4449L36.5189 29.286H38.2269ZM48.7433 30.504C47.6653 30.504 46.7973 31.232 46.6293 32.45H50.8993C50.8713 31.26 49.9333 30.504 48.7433 30.504ZM52.3553 34.704C51.9213 36.048 50.7033 37.126 48.8133 37.126C46.6013 37.126 44.9633 35.558 44.9633 33.136C44.9633 30.714 46.5313 29.16 48.8133 29.16C51.0113 29.16 52.5653 30.686 52.5653 32.954C52.5653 33.22 52.5513 33.472 52.5093 33.738H46.6153C46.7273 35.012 47.6373 35.782 48.8133 35.782C49.7933 35.782 50.3393 35.306 50.6333 34.704H52.3553ZM55.7319 32.94V37H54.1359V29.286H55.7319V30.406C56.1799 29.636 56.9499 29.16 58.0419 29.16V30.812H57.6359C56.4599 30.812 55.7319 31.302 55.7319 32.94ZM58.977 33.108C58.977 30.728 60.587 29.16 62.631 29.16C63.639 29.16 64.703 29.636 65.291 30.364V26.64H66.901V37H65.291V35.838C64.801 36.538 63.877 37.126 62.617 37.126C60.587 37.126 58.977 35.488 58.977 33.108ZM65.291 33.136C65.291 31.484 64.157 30.546 62.953 30.546C61.763 30.546 60.615 31.442 60.615 33.108C60.615 34.774 61.763 35.74 62.953 35.74C64.157 35.74 65.291 34.802 65.291 33.136ZM75.9833 37H74.3873V36.076C73.8833 36.734 73.0153 37.112 72.1053 37.112C70.2993 37.112 68.9273 35.978 68.9273 33.822V29.286H70.5093V33.584C70.5093 34.998 71.2793 35.726 72.4413 35.726C73.6173 35.726 74.3873 34.998 74.3873 33.584V29.286H75.9833V37ZM81.3371 30.504C80.2591 30.504 79.3911 31.232 79.2231 32.45H83.4931C83.4651 31.26 82.5271 30.504 81.3371 30.504ZM84.9491 34.704C84.5151 36.048 83.2971 37.126 81.4071 37.126C79.1951 37.126 77.5571 35.558 77.5571 33.136C77.5571 30.714 79.1251 29.16 81.4071 29.16C83.6051 29.16 85.1591 30.686 85.1591 32.954C85.1591 33.22 85.1451 33.472 85.1031 33.738H79.2091C79.3211 35.012 80.2311 35.782 81.4071 35.782C82.3871 35.782 82.9331 35.306 83.2271 34.704H84.9491Z" fill="#7E7E98"/>
<path d="M28.6164 51.64H26.3124V49.648H30.8244V67H28.6164V51.64ZM34.5759 58.144C34.5759 53.176 35.8239 49.384 40.6239 49.384C45.3999 49.384 46.6479 53.176 46.6479 58.144C46.6479 63.184 45.3999 67 40.6239 67C35.8239 67 34.5759 63.184 34.5759 58.144ZM44.4879 58.144C44.4879 54.544 44.0319 51.376 40.6239 51.376C37.1919 51.376 36.7359 54.544 36.7359 58.144C36.7359 61.888 37.1919 65.008 40.6239 65.008C44.0319 65.008 44.4879 61.888 44.4879 58.144ZM49.6462 58.144C49.6462 53.176 50.8942 49.384 55.6942 49.384C60.4702 49.384 61.7182 53.176 61.7182 58.144C61.7182 63.184 60.4702 67 55.6942 67C50.8942 67 49.6462 63.184 49.6462 58.144ZM59.5582 58.144C59.5582 54.544 59.1022 51.376 55.6942 51.376C52.2622 51.376 51.8062 54.544 51.8062 58.144C51.8062 61.888 52.2622 65.008 55.6942 65.008C59.1022 65.008 59.5582 61.888 59.5582 58.144Z" fill="#A71D2A"/>
<g clip-path="url(#clip0_31_867)">
<path d="M259.562 36.9513H224.838V32.6897C224.838 31.818 225.545 31.1113 226.416 31.1113H257.984C258.856 31.1113 259.562 31.818 259.562 32.6897V36.9513H259.562Z" fill="#FD8087"/>
<path d="M257.984 31.1113H255.616C256.488 31.1113 257.195 31.818 257.195 32.6897V36.9513H259.562V32.6897C259.562 31.818 258.855 31.1113 257.984 31.1113Z" fill="#FE646F"/>
<path d="M257.984 67.4141H226.416C225.545 67.4141 224.838 66.7074 224.838 65.8357V36.9514H259.562V65.8357C259.562 66.7074 258.856 67.4141 257.984 67.4141Z" fill="#DFF6FD"/>
<path d="M257.195 36.9514V65.8357C257.195 66.7074 256.488 67.4141 255.616 67.4141H257.984C258.856 67.4141 259.562 66.7074 259.562 65.8357V36.9514H257.195Z" fill="#C8EFFE"/>
<path d="M222.786 45.9306H261.614V57.6456H222.786V45.9306Z" fill="#FEA713"/>
<path d="M248.298 45.9306C246.999 49.9265 244.654 53.9898 241.35 57.6456H261.615V45.9306H248.298Z" fill="#FE9901"/>
<path d="M244.726 33.6367C244.028 33.6367 243.463 33.0714 243.463 32.374V29.8487C243.463 29.1513 244.028 28.5859 244.726 28.5859C245.423 28.5859 245.988 29.1513 245.988 29.8487V32.3741C245.988 33.0714 245.423 33.6367 244.726 33.6367Z" fill="#BFBFBF"/>
<path d="M249.776 33.6367C249.079 33.6367 248.514 33.0714 248.514 32.374V29.8487C248.514 29.1513 249.079 28.5859 249.776 28.5859C250.474 28.5859 251.039 29.1513 251.039 29.8487V32.3741C251.039 33.0714 250.474 33.6367 249.776 33.6367Z" fill="#BFBFBF"/>
<path d="M254.827 33.6367C254.13 33.6367 253.564 33.0714 253.564 32.374V29.8487C253.564 29.1513 254.13 28.5859 254.827 28.5859C255.525 28.5859 256.09 29.1513 256.09 29.8487V32.3741C256.09 33.0714 255.525 33.6367 254.827 33.6367Z" fill="#BFBFBF"/>
<path d="M239.675 33.6367C240.372 33.6367 240.938 33.0714 240.938 32.374V29.8487C240.938 29.1513 240.372 28.5859 239.675 28.5859C238.978 28.5859 238.412 29.1513 238.412 29.8487V32.3741C238.412 33.0714 238.977 33.6367 239.675 33.6367Z" fill="#BFBFBF"/>
<path d="M234.624 33.6367C235.321 33.6367 235.887 33.0714 235.887 32.374V29.8487C235.887 29.1513 235.321 28.5859 234.624 28.5859C233.927 28.5859 233.361 29.1513 233.361 29.8487V32.3741C233.361 33.0714 233.927 33.6367 234.624 33.6367Z" fill="#BFBFBF"/>
<path d="M229.573 33.6367C230.271 33.6367 230.836 33.0714 230.836 32.374V29.8487C230.836 29.1513 230.271 28.5859 229.573 28.5859C228.876 28.5859 228.311 29.1513 228.311 29.8487V32.3741C228.311 33.0714 228.876 33.6367 229.573 33.6367Z" fill="#BFBFBF"/>
<path d="M224.838 40.8195C225.162 40.8195 225.424 40.5572 225.424 40.2336V37.5373H258.977V45.3445H250.509C250.185 45.3445 249.923 45.6069 249.923 45.9305C249.923 46.2541 250.185 46.5164 250.509 46.5164H261.614C261.938 46.5164 262.2 46.2541 262.2 45.9305C262.2 45.6069 261.938 45.3445 261.614 45.3445H260.148V32.6897C260.148 31.4963 259.178 30.5254 257.984 30.5254H256.676V29.8486C256.676 28.8293 255.847 28 254.827 28C253.808 28 252.979 28.8293 252.979 29.8487V30.5255H251.625V29.8487C251.625 28.8293 250.796 28 249.777 28C248.757 28 247.928 28.8293 247.928 29.8487V30.5255H246.575V29.8487C246.574 28.8293 245.745 28 244.726 28C243.706 28 242.877 28.8293 242.877 29.8487V30.5255H241.524V29.8487C241.524 28.8293 240.694 28 239.675 28C238.656 28 237.826 28.8293 237.826 29.8487V30.5255H236.473V29.8487C236.473 28.8293 235.643 28 234.624 28C233.605 28 232.775 28.8293 232.775 29.8487V30.5255H231.422V29.8487C231.422 28.8293 230.593 28 229.573 28C228.554 28 227.725 28.8293 227.725 29.8487V30.5255H226.417C225.223 30.5255 224.252 31.4964 224.252 32.6898L224.252 40.2336C224.252 40.5572 224.514 40.8195 224.838 40.8195ZM254.151 29.8487C254.151 29.4755 254.454 29.1719 254.827 29.1719C255.201 29.1719 255.504 29.4755 255.504 29.8487V32.3741C255.504 32.7472 255.201 33.0509 254.827 33.0509C254.454 33.0509 254.151 32.7473 254.151 32.3741V29.8487ZM249.1 29.8487C249.1 29.4755 249.403 29.1719 249.777 29.1719C250.15 29.1719 250.453 29.4755 250.453 29.8487V32.3741C250.453 32.7472 250.15 33.0509 249.777 33.0509C249.403 33.0509 249.1 32.7473 249.1 32.3741V29.8487ZM244.049 29.8487C244.049 29.4755 244.353 29.1719 244.726 29.1719C245.099 29.1719 245.403 29.4755 245.403 29.8487V32.3741C245.403 32.7472 245.099 33.0509 244.726 33.0509C244.353 33.0509 244.049 32.7473 244.049 32.3741V29.8487ZM238.998 29.8487C238.998 29.4755 239.302 29.1719 239.675 29.1719C240.048 29.1719 240.352 29.4755 240.352 29.8487V32.3741C240.352 32.7472 240.048 33.0509 239.675 33.0509C239.302 33.0509 238.998 32.7473 238.998 32.3741V29.8487ZM233.947 29.8487C233.947 29.4755 234.251 29.1719 234.624 29.1719C234.997 29.1719 235.301 29.4755 235.301 29.8487V32.3741C235.301 32.7472 234.997 33.0509 234.624 33.0509C234.251 33.0509 233.947 32.7473 233.947 32.3741V29.8487ZM228.897 29.8487C228.897 29.4755 229.2 29.1719 229.573 29.1719C229.946 29.1719 230.25 29.4755 230.25 29.8487V32.3741C230.25 32.7472 229.946 33.0509 229.573 33.0509C229.2 33.0509 228.897 32.7473 228.897 32.3741V29.8487ZM225.424 32.6897C225.424 32.1425 225.869 31.6973 226.417 31.6973H227.725V32.3741C227.725 33.3934 228.554 34.2227 229.573 34.2227C230.593 34.2227 231.422 33.3934 231.422 32.3741V31.6973H232.775V32.3741C232.775 33.3934 233.605 34.2227 234.624 34.2227C235.643 34.2227 236.473 33.3934 236.473 32.3741V31.6973H237.826V32.3741C237.826 33.3934 238.656 34.2227 239.675 34.2227C240.694 34.2227 241.524 33.3934 241.524 32.3741V31.6973H242.877V32.3741C242.877 33.3934 243.706 34.2227 244.726 34.2227C245.745 34.2227 246.574 33.3934 246.574 32.3741V31.6973H247.928V32.3741C247.928 33.3934 248.757 34.2227 249.776 34.2227C250.796 34.2227 251.625 33.3934 251.625 32.3741V31.6973H252.979V32.3741C252.979 33.3934 253.808 34.2227 254.827 34.2227C255.847 34.2227 256.676 33.3934 256.676 32.3741V31.6973H257.984C258.531 31.6973 258.976 32.1425 258.976 32.6897V36.3654H225.424V32.6897Z" fill="black"/>
<path d="M244.831 50.4912C244.831 49.3941 243.903 48.5014 242.762 48.5014H241.327C241.003 48.5014 240.741 48.7635 240.741 49.087L240.739 54.4889C240.739 54.8125 241.002 55.0748 241.325 55.0748C241.649 55.0748 241.911 54.8125 241.911 54.4889V52.7234L243.806 54.876C243.921 55.0077 244.083 55.0748 244.246 55.0748C244.383 55.0748 244.521 55.0267 244.633 54.9287C244.876 54.715 244.899 54.3447 244.685 54.1018L243.216 52.4321C244.139 52.2327 244.831 51.4384 244.831 50.4912ZM242.762 51.309C242.567 51.309 242.217 51.3105 241.911 51.312L241.912 49.6733H242.762C243.249 49.6733 243.659 50.0478 243.659 50.4912C243.659 50.9345 243.249 51.309 242.762 51.309Z" fill="black"/>
<path d="M233.39 48.9125L232.058 52.9242L230.659 48.8952C230.553 48.5895 230.219 48.4278 229.913 48.5338C229.608 48.6399 229.446 48.9738 229.552 49.2795L231.4 54.6039C231.5 54.8861 231.768 55.0748 232.067 55.0748H232.072C232.373 55.0728 232.64 54.88 232.739 54.5909L234.502 49.2819C234.604 48.9748 234.438 48.6432 234.131 48.5411C233.824 48.4391 233.492 48.6054 233.39 48.9125Z" fill="black"/>
<path d="M225.487 55.0748C227.299 55.0748 228.774 53.6004 228.774 51.7881C228.774 49.9759 227.299 48.5014 225.487 48.5014C223.675 48.5014 222.2 49.9759 222.2 51.7881C222.2 53.6004 223.675 55.0748 225.487 55.0748ZM225.487 49.6733C226.653 49.6733 227.602 50.622 227.602 51.7881C227.602 52.9542 226.653 53.903 225.487 53.903C224.321 53.903 223.372 52.9542 223.372 51.7881C223.372 50.622 224.321 49.6733 225.487 49.6733Z" fill="black"/>
<path d="M238.783 49.6733C239.107 49.6733 239.369 49.4109 239.369 49.0873C239.369 48.7637 239.107 48.5014 238.783 48.5014H236.507C236.183 48.5014 235.921 48.7637 235.921 49.0873V54.4889C235.921 54.8125 236.183 55.0748 236.507 55.0748H238.783C239.107 55.0748 239.369 54.8125 239.369 54.4889C239.369 54.1653 239.107 53.903 238.783 53.903H237.093V52.3741H238.615C238.939 52.3741 239.201 52.1117 239.201 51.7881C239.201 51.4645 238.939 51.2022 238.615 51.2022H237.093V49.6733H238.783Z" fill="black"/>
<path d="M261.614 49.6733C261.938 49.6733 262.2 49.4109 262.2 49.0873C262.2 48.7637 261.938 48.5014 261.614 48.5014H259.338C259.014 48.5014 258.752 48.7637 258.752 49.0873V54.4889C258.752 54.8125 259.014 55.0748 259.338 55.0748H261.614C261.938 55.0748 262.2 54.8125 262.2 54.4889C262.2 54.1653 261.938 53.903 261.614 53.903H259.924V52.3741H261.446C261.77 52.3741 262.032 52.1117 262.032 51.7881C262.032 51.4645 261.77 51.2022 261.446 51.2022H259.924V49.6733H261.614Z" fill="black"/>
<path d="M248.327 48.5014H246.797C246.641 48.5014 246.492 48.5633 246.382 48.6734C246.272 48.7836 246.211 48.9329 246.211 49.0885L246.222 54.4901C246.222 54.6457 246.284 54.7947 246.395 54.9045C246.505 55.0136 246.653 55.0748 246.808 55.0748H246.81C246.856 55.0747 247.946 55.0705 248.382 55.0629C249.953 55.0354 251.094 53.6582 251.094 51.7881C251.094 49.8223 249.982 48.5014 248.327 48.5014ZM248.361 53.8911C248.14 53.895 247.734 53.898 247.393 53.9L247.384 49.6732H248.327C249.503 49.6732 249.922 50.7656 249.922 51.788C249.922 52.7879 249.434 53.8724 248.361 53.8911Z" fill="black"/>
<path d="M253.05 48.5014C252.726 48.5014 252.464 48.7637 252.464 49.0873V52.8042C252.464 53.5979 252.83 54.2173 253.582 54.6979C253.972 54.9473 254.413 55.0741 254.892 55.0748H254.896C255.309 55.0748 255.697 54.9851 256.049 54.808C257.157 54.2502 257.389 53.4083 257.389 52.8003V49.0874C257.389 48.7638 257.127 48.5015 256.803 48.5015C256.479 48.5015 256.217 48.7638 256.217 49.0874V52.8003C256.217 53.0847 256.138 53.4509 255.522 53.7614C255.335 53.8554 255.124 53.903 254.896 53.903C254.895 53.903 254.894 53.903 254.894 53.903C254.638 53.9027 254.415 53.8396 254.213 53.7104C253.803 53.4486 253.636 53.1861 253.636 52.8042V49.0873C253.636 48.7637 253.373 48.5014 253.05 48.5014Z" fill="black"/>
<path d="M222.786 46.5164H247.774C248.098 46.5164 248.36 46.254 248.36 45.9305C248.36 45.6069 248.098 45.3445 247.774 45.3445H225.424V42.968C225.424 42.6444 225.161 42.382 224.838 42.382C224.514 42.382 224.252 42.6444 224.252 42.968V45.3445H222.786C222.462 45.3445 222.2 45.6069 222.2 45.9305C222.2 46.254 222.462 46.5164 222.786 46.5164Z" fill="black"/>
<path d="M261.614 57.0597H222.786C222.462 57.0597 222.2 57.322 222.2 57.6456C222.2 57.9692 222.462 58.2316 222.786 58.2316H224.252V65.8359C224.252 67.0292 225.223 68 226.417 68H257.984C259.177 68 260.149 67.0292 260.149 65.8359V63.2016C260.149 62.878 259.886 62.6156 259.563 62.6156C259.239 62.6156 258.977 62.878 258.977 63.2016V65.8359C258.977 66.3831 258.531 66.8281 257.984 66.8281H226.417C225.869 66.8281 225.424 66.3831 225.424 65.8359V58.2316H258.977V60.4672C258.977 60.7908 259.239 61.0531 259.563 61.0531C259.886 61.0531 260.149 60.7908 260.149 60.4672V58.2316H261.614C261.938 58.2316 262.2 57.9692 262.2 57.6456C262.2 57.322 261.938 57.0597 261.614 57.0597Z" fill="black"/>
</g>
</g>
<defs>
<filter id="filter0_d_31_867" x="0.400391" y="0" width="286.8" height="96" filterUnits="userSpaceOnUse" color-interpolation-filters="sRGB">
<feFlood flood-opacity="0" result="BackgroundImageFix"/>
<feColorMatrix in="SourceAlpha" type="matrix" values="0 0 0 0 0 0 0 0 0 0 0 0 0 0 0 0 0 0 127 0" result="hardAlpha"/>
<feOffset/>
<feGaussianBlur stdDeviation="4.5"/>
<feComposite in2="hardAlpha" operator="out"/>
<feColorMatrix type="matrix" values="0 0 0 0 0 0 0 0 0 0 0 0 0 0 0 0 0 0 0.14 0"/>
<feBlend mode="normal" in2="BackgroundImageFix" result="effect1_dropShadow_31_867"/>
<feBlend mode="normal" in="SourceGraphic" in2="effect1_dropShadow_31_867" result="shape"/>
</filter>
<clipPath id="clip0_31_867">
<rect width="40" height="40" fill="white" transform="translate(222.2 28)"/>
</clipPath>
</defs>
</svg>
