<svg width="287" height="96" viewBox="0 0 287 96" fill="none" xmlns="http://www.w3.org/2000/svg">
<g filter="url(#filter0_d_31_870)">
<rect x="9" y="9" width="268.8" height="78" rx="10" fill="white" shape-rendering="crispEdges"/>
<path d="M25.546 27.27H32.336V28.572H29.746V37H28.15V28.572H25.546V27.27ZM37.2983 37.126C35.1003 37.126 33.4343 35.558 33.4343 33.136C33.4343 30.714 35.1703 29.16 37.3683 29.16C39.5663 29.16 41.3023 30.714 41.3023 33.136C41.3023 35.558 39.5103 37.126 37.2983 37.126ZM37.2983 35.74C38.4883 35.74 39.6643 34.886 39.6643 33.136C39.6643 31.386 38.5303 30.546 37.3403 30.546C36.1363 30.546 35.0583 31.386 35.0583 33.136C35.0583 34.886 36.0943 35.74 37.2983 35.74ZM43.1321 27.368H44.7421V29.286H46.6181V30.588H44.7421V34.858C44.7421 35.432 44.9661 35.67 45.6381 35.67H46.6181V37H45.3581C43.9861 37 43.1321 36.426 43.1321 34.858V30.588H42.2221V29.286H43.1321V27.368ZM47.5571 33.108C47.5571 30.728 49.1671 29.16 51.1971 29.16C52.4991 29.16 53.3951 29.776 53.8711 30.406V29.286H55.4811V37H53.8711V35.852C53.3811 36.51 52.4571 37.126 51.1691 37.126C49.1671 37.126 47.5571 35.488 47.5571 33.108ZM53.8711 33.136C53.8711 31.484 52.7371 30.546 51.5331 30.546C50.3431 30.546 49.1951 31.442 49.1951 33.108C49.1951 34.774 50.3431 35.74 51.5331 35.74C52.7371 35.74 53.8711 34.802 53.8711 33.136ZM57.5773 26.64H59.1733V37H57.5773V26.64ZM64.4015 27.27H71.1915V28.572H68.6015V37H67.0055V28.572H64.4015V27.27ZM72.2758 33.108C72.2758 30.728 73.8858 29.16 75.9158 29.16C77.2178 29.16 78.1138 29.776 78.5898 30.406V29.286H80.1998V37H78.5898V35.852C78.0998 36.51 77.1758 37.126 75.8878 37.126C73.8858 37.126 72.2758 35.488 72.2758 33.108ZM78.5898 33.136C78.5898 31.484 77.4558 30.546 76.2518 30.546C75.0618 30.546 73.9138 31.442 73.9138 33.108C73.9138 34.774 75.0618 35.74 76.2518 35.74C77.4558 35.74 78.5898 34.802 78.5898 33.136ZM85.0961 37.126C83.2481 37.126 81.9461 36.034 81.8761 34.634H83.5281C83.5841 35.264 84.1861 35.782 85.0681 35.782C85.9921 35.782 86.4821 35.39 86.4821 34.858C86.4821 33.346 82.0021 34.214 82.0021 31.386C82.0021 30.154 83.1501 29.16 84.9701 29.16C86.7201 29.16 87.8681 30.098 87.9521 31.638H86.3561C86.3001 30.966 85.7821 30.504 84.9141 30.504C84.0601 30.504 83.6121 30.854 83.6121 31.372C83.6121 32.926 87.9661 32.058 88.0501 34.844C88.0501 36.146 86.9161 37.126 85.0961 37.126ZM89.7746 26.64H91.3706V32.66L94.1706 29.286H96.3826L92.8266 33.15L96.3826 37H94.2266L91.3706 33.682V37H89.7746V26.64ZM100.327 37.126C98.4786 37.126 97.1766 36.034 97.1066 34.634H98.7586C98.8146 35.264 99.4166 35.782 100.299 35.782C101.223 35.782 101.713 35.39 101.713 34.858C101.713 33.346 97.2326 34.214 97.2326 31.386C97.2326 30.154 98.3806 29.16 100.201 29.16C101.951 29.16 103.099 30.098 103.183 31.638H101.587C101.531 30.966 101.013 30.504 100.145 30.504C99.2906 30.504 98.8426 30.854 98.8426 31.372C98.8426 32.926 103.197 32.058 103.281 34.844C103.281 36.146 102.147 37.126 100.327 37.126Z" fill="#7E7E98"/>
<path d="M28.216 51.64H25.912V49.648H30.424V67H28.216V51.64ZM34.1755 58.144C34.1755 53.176 35.4235 49.384 40.2235 49.384C44.9995 49.384 46.2475 53.176 46.2475 58.144C46.2475 63.184 44.9995 67 40.2235 67C35.4235 67 34.1755 63.184 34.1755 58.144ZM44.0875 58.144C44.0875 54.544 43.6315 51.376 40.2235 51.376C36.7915 51.376 36.3355 54.544 36.3355 58.144C36.3355 61.888 36.7915 65.008 40.2235 65.008C43.6315 65.008 44.0875 61.888 44.0875 58.144ZM49.2458 58.144C49.2458 53.176 50.4938 49.384 55.2938 49.384C60.0698 49.384 61.3178 53.176 61.3178 58.144C61.3178 63.184 60.0698 67 55.2938 67C50.4938 67 49.2458 63.184 49.2458 58.144ZM59.1578 58.144C59.1578 54.544 58.7018 51.376 55.2938 51.376C51.8618 51.376 51.4058 54.544 51.4058 58.144C51.4058 61.888 51.8618 65.008 55.2938 65.008C58.7018 65.008 59.1578 61.888 59.1578 58.144ZM64.3161 58.144C64.3161 53.176 65.5641 49.384 70.3641 49.384C75.1401 49.384 76.3881 53.176 76.3881 58.144C76.3881 63.184 75.1401 67 70.3641 67C65.5641 67 64.3161 63.184 64.3161 58.144ZM74.2281 58.144C74.2281 54.544 73.7721 51.376 70.3641 51.376C66.9321 51.376 66.4761 54.544 66.4761 58.144C66.4761 61.888 66.9321 65.008 70.3641 65.008C73.7721 65.008 74.2281 61.888 74.2281 58.144Z" fill="black"/>
<g clip-path="url(#clip0_31_870)">
<path d="M261.8 48C261.8 59.0457 252.846 68 241.8 68C240.573 68 239.372 67.8895 238.206 67.678C237.943 67.6302 237.503 66.9957 237.244 66.9378C232.271 65.8275 228.835 63.0914 226.02 59.0389C225.862 58.8106 225.049 58.9346 224.899 58.6996C222.937 55.6055 221.8 51.9355 221.8 48C221.8 36.9543 230.754 28 241.8 28C252.846 28 261.8 36.9543 261.8 48Z" fill="#2740B1"/>
<path d="M256.993 49.066C256.993 56.7527 250.762 62.9839 243.075 62.9839C235.388 62.9839 229.157 56.7527 229.157 49.066C229.157 41.3794 235.388 35.1481 243.075 35.1481C250.762 35.1481 256.993 41.3794 256.993 49.066Z" fill="#314DCA"/>
<path d="M246.787 61.8012C247.219 61.8012 247.568 62.1509 247.568 62.5824V64.0917C247.568 64.5232 247.219 64.873 246.787 64.873C246.356 64.873 246.006 64.5232 246.006 64.0917V62.5824C246.006 62.1509 246.356 61.8012 246.787 61.8012ZM248.508 62.179L249.576 63.2463C249.881 63.5513 250.375 63.5513 250.681 63.2463C250.986 62.9412 250.986 62.4465 250.681 62.1414L249.613 61.0741C249.308 60.7691 248.814 60.7691 248.508 61.0741C248.203 61.3792 248.203 61.8739 248.508 62.179ZM242.894 63.2463C243.199 63.5513 243.694 63.5513 243.999 63.2463L245.066 62.179C245.371 61.8739 245.371 61.3792 245.066 61.0741C244.761 60.7691 244.266 60.7691 243.961 61.0741L242.894 62.1414C242.589 62.4465 242.589 62.9411 242.894 63.2463Z" fill="#6C7FD9"/>
<path d="M238.206 59.25V67.678C232.523 66.6468 227.676 63.2139 224.755 58.4688H237.425C237.857 58.4688 238.206 58.8185 238.206 59.25ZM237.425 32.6875H224.721C224.289 32.6875 223.939 33.0373 223.939 33.4688V46.1732C223.939 46.6047 224.289 46.9545 224.721 46.9545H237.425C237.857 46.9545 238.206 46.6047 238.206 46.1732V33.4688C238.206 33.0373 237.857 32.6875 237.425 32.6875Z" fill="#FF3980"/>
<path d="M228.317 59.8712L225.612 60.4949C225.191 60.5919 224.772 60.3296 224.675 59.9092L221.82 47.5296C221.723 47.1092 221.985 46.6898 222.406 46.5928L225.111 45.9691C225.531 45.8721 225.951 46.1344 226.048 46.5548L228.902 58.9343C228.999 59.3548 228.737 59.7741 228.317 59.8712Z" fill="#FF3980"/>
<path d="M237.991 57.6402L227.72 60.0087C227.299 60.1057 226.88 59.8434 226.783 59.423L223.928 47.0434C223.831 46.623 224.094 46.2036 224.514 46.1066L234.785 43.7381C235.206 43.6412 235.625 43.9034 235.722 44.3238L238.577 56.7033C238.674 57.1238 238.412 57.5433 237.991 57.6402Z" fill="#FF5E95"/>
<path d="M226.409 36.0838C226.409 35.6523 226.759 35.3026 227.19 35.3026H234.065C234.497 35.3026 234.847 35.6523 234.847 36.0838C234.847 36.5153 234.497 36.8651 234.065 36.8651H227.19C226.759 36.8651 226.409 36.5153 226.409 36.0838ZM234.065 38.4276H227.19C226.759 38.4276 226.409 38.7773 226.409 39.2088C226.409 39.6403 226.759 39.9901 227.19 39.9901H234.065C234.497 39.9901 234.847 39.6403 234.847 39.2088C234.847 38.7773 234.497 38.4276 234.065 38.4276ZM230.269 41.5526H227.19C226.759 41.5526 226.409 41.9023 226.409 42.3338C226.409 42.7653 226.759 43.1151 227.19 43.1151H230.269C230.7 43.1151 231.05 42.7653 231.05 42.3338C231.05 41.9023 230.7 41.5526 230.269 41.5526Z" fill="#FFA2C3"/>
<path d="M244.278 33.4688V46.1732C244.278 46.6047 243.928 46.9545 243.497 46.9545H240.55C240.118 46.9545 239.769 46.6047 239.769 46.1732V33.4688C239.769 33.0373 240.118 32.6875 240.55 32.6875H243.497C243.928 32.6875 244.278 33.0373 244.278 33.4688Z" fill="#FFAA00"/>
<path d="M254.036 33.4688V46.1732C254.036 46.6047 253.686 46.9545 253.255 46.9545H242.985C242.554 46.9545 242.204 46.6047 242.204 46.1732V33.4688C242.204 33.0373 242.554 32.6875 242.985 32.6875H253.255C253.686 32.6875 254.036 33.0373 254.036 33.4688Z" fill="#FFB509"/>
<path d="M246.462 45.3951L244.961 58.0106C244.91 58.439 244.521 58.745 244.093 58.6941L241.155 58.3445C240.726 58.2934 240.42 57.9049 240.471 57.4763L241.973 44.8609C242.024 44.4324 242.412 44.1264 242.841 44.1774L245.779 44.527C246.207 44.578 246.513 44.9667 246.462 45.3951Z" fill="#FFC143"/>
<path d="M256.139 46.5467L254.638 59.1622C254.587 59.5906 254.198 59.8967 253.77 59.8457L243.78 58.6569C243.351 58.6059 243.045 58.2173 243.096 57.7888L244.598 45.1734C244.649 44.7449 245.037 44.4389 245.466 44.4899L255.456 45.6787C255.884 45.7296 256.19 46.1184 256.139 46.5467Z" fill="#FFCD6B"/>
<path d="M247.912 52.5946C247.877 53.0246 247.5 53.3449 247.07 53.3099L244.002 53.0606C243.572 53.0257 243.252 52.6487 243.287 52.2186C243.322 51.7886 243.699 51.4683 244.129 51.5032L247.197 51.7525C247.627 51.7874 247.947 52.1645 247.912 52.5946ZM251.234 48.9454L244.382 48.3885C243.952 48.3535 243.575 48.6739 243.54 49.1039C243.505 49.534 243.825 49.911 244.255 49.9459L251.108 50.5028C251.538 50.5378 251.915 50.2175 251.95 49.7874C251.985 49.3574 251.664 48.9803 251.234 48.9454Z" fill="#FF9500"/>
<path d="M250.116 32.1019L249.087 44.7646C249.052 45.1947 248.675 45.5149 248.245 45.48L245.408 45.2495C244.978 45.2146 244.658 44.8376 244.693 44.4075L245.722 31.7448C245.757 31.3148 246.134 30.9945 246.564 31.0294L249.401 31.2599C249.831 31.2949 250.151 31.6719 250.116 32.1019Z" fill="#009B5E"/>
<path d="M259.942 32.9006L258.913 45.5633C258.878 45.9934 258.501 46.3136 258.071 46.2787L248.108 45.4688C247.678 45.4339 247.357 45.057 247.392 44.6269L248.421 31.9642C248.456 31.5341 248.833 31.2138 249.263 31.2488L259.227 32.0586C259.657 32.0935 259.977 32.4705 259.942 32.9006Z" fill="#00B972"/>
<path d="M252.318 28.7812V41.4857C252.318 41.9172 251.968 42.267 251.537 42.267H248.314C247.883 42.267 247.533 41.9172 247.533 41.4857V28.7812C247.533 28.3498 247.883 28 248.314 28H251.537C251.968 28 252.318 28.3498 252.318 28.7812Z" fill="#00D683"/>
<path d="M261.8 28.7812V41.4857C261.8 41.9172 261.45 42.267 261.019 42.267H250.907C250.476 42.267 250.126 41.9172 250.126 41.4857V28.7812C250.126 28.3498 250.476 28 250.907 28H261.019C261.45 28 261.8 28.3498 261.8 28.7812Z" fill="#00E294"/>
<path d="M260.008 32.712L254.324 38.3961C254.171 38.5487 253.971 38.6249 253.772 38.6249C253.572 38.6249 253.372 38.5486 253.219 38.3961L249.568 34.7447C249.263 34.4396 249.263 33.9449 249.568 33.6398C249.873 33.3348 250.367 33.3348 250.673 33.6398L253.772 36.7388L258.903 31.6071C259.208 31.302 259.703 31.302 260.008 31.6071C260.313 31.9123 260.313 32.4069 260.008 32.712Z" fill="#007E4B"/>
<path d="M231.624 55.9598C231.691 56.3107 231.462 56.6496 231.111 56.7168C230.76 56.784 230.421 56.5541 230.354 56.2032C230.286 55.8523 230.516 55.5134 230.867 55.4462C231.218 55.3791 231.557 55.609 231.624 55.9598ZM232.407 49.3225C232.075 47.9723 230.74 47.0984 229.369 47.3324C228.037 47.5599 227.084 48.7475 227.152 50.0944C227.158 50.2177 227.173 50.3421 227.196 50.4642C227.257 50.782 227.564 50.9904 227.882 50.9295C228.2 50.8686 228.408 50.5616 228.347 50.2437C228.334 50.1748 228.326 50.1048 228.322 50.0354C228.284 49.2806 228.819 48.6152 229.566 48.4876C230.335 48.3562 231.083 48.8459 231.269 49.6023C231.368 50.0061 231.299 50.4205 231.076 50.7694C230.852 51.1185 230.505 51.3537 230.098 51.4316C229.945 51.4609 229.811 51.5495 229.723 51.678C229.636 51.8066 229.604 51.9646 229.633 52.1173L230.042 54.2553C230.096 54.5359 230.342 54.7312 230.617 54.7311C230.654 54.7311 230.691 54.7277 230.728 54.7205C231.046 54.6597 231.254 54.3527 231.193 54.0348L230.882 52.4076C231.362 52.1976 231.776 51.8482 232.062 51.4019C232.461 50.7799 232.583 50.0414 232.407 49.3225Z" fill="#FFF5F5"/>
</g>
</g>
<defs>
<filter id="filter0_d_31_870" x="0" y="0" width="286.8" height="96" filterUnits="userSpaceOnUse" color-interpolation-filters="sRGB">
<feFlood flood-opacity="0" result="BackgroundImageFix"/>
<feColorMatrix in="SourceAlpha" type="matrix" values="0 0 0 0 0 0 0 0 0 0 0 0 0 0 0 0 0 0 127 0" result="hardAlpha"/>
<feOffset/>
<feGaussianBlur stdDeviation="4.5"/>
<feComposite in2="hardAlpha" operator="out"/>
<feColorMatrix type="matrix" values="0 0 0 0 0 0 0 0 0 0 0 0 0 0 0 0 0 0 0.14 0"/>
<feBlend mode="normal" in2="BackgroundImageFix" result="effect1_dropShadow_31_870"/>
<feBlend mode="normal" in="SourceGraphic" in2="effect1_dropShadow_31_870" result="shape"/>
</filter>
<clipPath id="clip0_31_870">
<rect width="40" height="40" fill="white" transform="translate(221.8 28)"/>
</clipPath>
</defs>
</svg>
