<svg width="288" height="96" viewBox="0 0 288 96" fill="none" xmlns="http://www.w3.org/2000/svg">
<g filter="url(#filter0_d_31_861)">
<rect x="9.59961" y="9" width="268.8" height="78" rx="10" fill="white" shape-rendering="crispEdges"/>
<path d="M26.6496 27.27H28.2456V37H26.6496V27.27ZM35.815 32.688C35.815 31.274 35.045 30.546 33.883 30.546C32.707 30.546 31.937 31.274 31.937 32.688V37H30.341V29.286H31.937V30.168C32.455 29.538 33.309 29.16 34.233 29.16C36.039 29.16 37.397 30.294 37.397 32.45V37H35.815V32.688ZM46.4295 31.75C47.6755 31.75 48.2355 31.148 48.2355 30.168C48.2355 29.16 47.6755 28.572 46.4295 28.572H44.6655V31.75H46.4295ZM49.8735 30.168C49.8735 31.554 48.9635 33.052 46.4295 33.052H44.6655V37H43.0695V27.27H46.4295C48.7395 27.27 49.8735 28.586 49.8735 30.168ZM52.9917 32.94V37H51.3957V29.286H52.9917V30.406C53.4397 29.636 54.2097 29.16 55.3017 29.16V30.812H54.8957C53.7197 30.812 52.9917 31.302 52.9917 32.94ZM60.1148 37.126C57.9168 37.126 56.2508 35.558 56.2508 33.136C56.2508 30.714 57.9868 29.16 60.1848 29.16C62.3828 29.16 64.1188 30.714 64.1188 33.136C64.1188 35.558 62.3268 37.126 60.1148 37.126ZM60.1148 35.74C61.3048 35.74 62.4808 34.886 62.4808 33.136C62.4808 31.386 61.3468 30.546 60.1568 30.546C58.9528 30.546 57.8748 31.386 57.8748 33.136C57.8748 34.886 58.9108 35.74 60.1148 35.74ZM68.8045 29.16C70.0645 29.16 71.0025 29.748 71.4785 30.406V29.286H73.0885V37.126C73.0885 39.226 71.7305 40.808 69.3225 40.808C67.2645 40.808 65.7385 39.786 65.5425 38.078H67.1245C67.3625 38.876 68.2165 39.422 69.3225 39.422C70.5545 39.422 71.4785 38.666 71.4785 37.126V35.838C70.9885 36.496 70.0645 37.126 68.8045 37.126C66.7745 37.126 65.1645 35.488 65.1645 33.108C65.1645 30.728 66.7745 29.16 68.8045 29.16ZM71.4785 33.136C71.4785 31.484 70.3445 30.546 69.1405 30.546C67.9505 30.546 66.8025 31.442 66.8025 33.108C66.8025 34.774 67.9505 35.74 69.1405 35.74C70.3445 35.74 71.4785 34.802 71.4785 33.136ZM76.7808 32.94V37H75.1848V29.286H76.7808V30.406C77.2288 29.636 77.9988 29.16 79.0908 29.16V30.812H78.6848C77.5088 30.812 76.7808 31.302 76.7808 32.94ZM83.8058 30.504C82.7278 30.504 81.8598 31.232 81.6918 32.45H85.9618C85.9338 31.26 84.9958 30.504 83.8058 30.504ZM87.4178 34.704C86.9838 36.048 85.7658 37.126 83.8758 37.126C81.6638 37.126 80.0258 35.558 80.0258 33.136C80.0258 30.714 81.5938 29.16 83.8758 29.16C86.0738 29.16 87.6278 30.686 87.6278 32.954C87.6278 33.22 87.6138 33.472 87.5718 33.738H81.6778C81.7898 35.012 82.6998 35.782 83.8758 35.782C84.8558 35.782 85.4018 35.306 85.6958 34.704H87.4178ZM91.9984 37.126C90.1504 37.126 88.8484 36.034 88.7784 34.634H90.4304C90.4864 35.264 91.0884 35.782 91.9704 35.782C92.8944 35.782 93.3844 35.39 93.3844 34.858C93.3844 33.346 88.9044 34.214 88.9044 31.386C88.9044 30.154 90.0524 29.16 91.8724 29.16C93.6224 29.16 94.7704 30.098 94.8544 31.638H93.2584C93.2024 30.966 92.6844 30.504 91.8164 30.504C90.9624 30.504 90.5144 30.854 90.5144 31.372C90.5144 32.926 94.8684 32.058 94.9524 34.844C94.9524 36.146 93.8184 37.126 91.9984 37.126ZM99.477 37.126C97.629 37.126 96.327 36.034 96.257 34.634H97.909C97.965 35.264 98.567 35.782 99.449 35.782C100.373 35.782 100.863 35.39 100.863 34.858C100.863 33.346 96.383 34.214 96.383 31.386C96.383 30.154 97.531 29.16 99.351 29.16C101.101 29.16 102.249 30.098 102.333 31.638H100.737C100.681 30.966 100.163 30.504 99.295 30.504C98.441 30.504 97.993 30.854 97.993 31.372C97.993 32.926 102.347 32.058 102.431 34.844C102.431 36.146 101.297 37.126 99.477 37.126Z" fill="#7E7E98"/>
<path d="M37.7676 49.696V51.352L31.0956 67H28.8876L35.6556 51.568H26.3916V49.696H37.7676ZM40.1892 58.144C40.1892 53.176 41.4372 49.384 46.2372 49.384C51.0132 49.384 52.2612 53.176 52.2612 58.144C52.2612 63.184 51.0132 67 46.2372 67C41.4372 67 40.1892 63.184 40.1892 58.144ZM50.1012 58.144C50.1012 54.544 49.6452 51.376 46.2372 51.376C42.8052 51.376 42.3492 54.544 42.3492 58.144C42.3492 61.888 42.8052 65.008 46.2372 65.008C49.6452 65.008 50.1012 61.888 50.1012 58.144ZM55.2595 58.144C55.2595 53.176 56.5075 49.384 61.3075 49.384C66.0835 49.384 67.3315 53.176 67.3315 58.144C67.3315 63.184 66.0835 67 61.3075 67C56.5075 67 55.2595 63.184 55.2595 58.144ZM65.1715 58.144C65.1715 54.544 64.7155 51.376 61.3075 51.376C57.8755 51.376 57.4195 54.544 57.4195 58.144C57.4195 61.888 57.8755 65.008 61.3075 65.008C64.7155 65.008 65.1715 61.888 65.1715 58.144Z" fill="#007BFF"/>
<g clip-path="url(#clip0_31_861)">
<path d="M249.828 31.1668H227.695C225.227 31.1668 223.227 33.1675 223.227 35.6355V62.9164C223.227 65.3843 225.227 67.3851 227.695 67.3851H249.828C252.296 67.3851 254.297 65.3843 254.297 62.9164V35.6355C254.297 33.1675 252.296 31.1668 249.828 31.1668Z" fill="#5B5B68"/>
<path d="M227.696 63.947C227.127 63.947 226.665 63.4846 226.665 62.9164V35.6355C226.665 35.0673 227.127 34.6049 227.696 34.6049H249.828C250.397 34.6049 250.859 35.0673 250.859 35.6355V62.9164C250.859 63.4846 250.397 63.947 249.828 63.947H227.696Z" fill="#D5E8EC"/>
<path d="M245.102 35.9636H232.421C231.363 35.9636 230.505 35.1057 230.505 34.0474V30.5098C230.505 29.4517 231.363 28.5939 232.421 28.5939H245.102C246.16 28.5939 247.018 29.4517 247.018 30.5098V34.0474C247.018 35.1057 246.16 35.9636 245.102 35.9636Z" fill="#FED563"/>
<path d="M236.916 32.2566C236.916 33.2185 236.136 33.9982 235.174 33.9982C234.212 33.9982 233.433 33.2185 233.433 32.2566C233.433 31.2947 234.212 30.515 235.174 30.515C236.136 30.515 236.916 31.2947 236.916 32.2566Z" fill="#5B5B68"/>
<path d="M244.091 32.2566C244.091 33.2185 243.311 33.9982 242.349 33.9982C241.387 33.9982 240.607 33.2185 240.607 32.2566C240.607 31.2947 241.387 30.515 242.349 30.515C243.311 30.515 244.091 31.2947 244.091 32.2566Z" fill="#5B5B68"/>
<path d="M261.72 55.6501C261.72 62.1428 256.457 67.4061 249.964 67.4061C243.471 67.4061 238.208 62.1428 238.208 55.6501C238.208 49.1575 243.471 43.8942 249.964 43.8942C256.457 43.8942 261.72 49.1575 261.72 55.6501Z" fill="#55C7F3"/>
<path d="M258.546 55.6501C258.546 60.3898 254.704 64.2326 249.964 64.2326C249.548 64.2326 249.138 64.2033 248.737 64.1447C244.579 63.5502 241.382 59.9733 241.382 55.6501C241.382 51.327 244.579 47.7501 248.737 47.1556C249.138 47.097 249.548 47.0677 249.964 47.0677C254.704 47.0677 258.546 50.9105 258.546 55.6501Z" fill="#DAFDFD"/>
<path d="M256.092 55.6501C256.092 59.9733 252.896 63.5502 248.737 64.1447C244.579 63.5502 241.382 59.9733 241.382 55.6501C241.382 51.327 244.579 47.7501 248.737 47.1556C252.896 47.7501 256.092 51.327 256.092 55.6501Z" fill="#56D8D8"/>
<path d="M253.091 56.8376H249.964C249.308 56.8376 248.776 56.306 248.776 55.6501V50.3065C248.776 49.6507 249.308 49.1191 249.964 49.1191C250.62 49.1191 251.151 49.6507 251.151 50.3065V54.4627H253.091C253.747 54.4627 254.278 54.9943 254.278 55.6501C254.278 56.306 253.747 56.8376 253.091 56.8376Z" fill="#5B5B68"/>
<path d="M232.39 47.1278C232.103 47.1278 231.83 46.9895 231.661 46.7536L229.204 43.3387C228.914 42.9356 229.006 42.3741 229.409 42.0841C229.812 41.7942 230.374 41.8861 230.664 42.2892L232.248 44.4911L234.341 40.2586C234.561 39.8136 235.1 39.6314 235.545 39.8515C235.99 40.0715 236.172 40.6104 235.952 41.0554L233.196 46.6273C233.056 46.9102 232.779 47.0988 232.464 47.1247C232.44 47.1266 232.415 47.1278 232.39 47.1278Z" fill="#FC315F"/>
<path d="M232.39 58.1941C232.103 58.1941 231.83 58.0559 231.661 57.82L229.204 54.4051C228.914 54.0019 229.006 53.4404 229.409 53.1505C229.812 52.8606 230.374 52.9524 230.664 53.3553L232.248 55.5574L234.341 51.3249C234.561 50.88 235.1 50.6978 235.545 50.9178C235.99 51.1378 236.172 51.6768 235.952 52.1217L233.196 57.6936C233.056 57.9765 232.779 58.1651 232.464 58.1911C232.44 58.1932 232.415 58.1941 232.39 58.1941Z" fill="#FC315F"/>
<path d="M235.174 34.5921C236.462 34.5921 237.51 33.5444 237.51 32.2566C237.51 30.9691 236.462 29.9214 235.174 29.9214C233.887 29.9214 232.839 30.9691 232.839 32.2566C232.839 33.5444 233.887 34.5921 235.174 34.5921ZM235.174 31.1088C235.807 31.1088 236.322 31.6237 236.322 32.2566C236.322 32.8895 235.807 33.4047 235.174 33.4047C234.541 33.4047 234.026 32.8895 234.026 32.2566C234.026 31.6237 234.541 31.1088 235.174 31.1088Z" fill="black"/>
<path d="M242.349 34.5921C243.637 34.5921 244.684 33.5444 244.684 32.2566C244.684 30.9691 243.637 29.9214 242.349 29.9214C241.061 29.9214 240.014 30.9691 240.014 32.2566C240.014 33.5444 241.061 34.5921 242.349 34.5921ZM242.349 31.1088C242.982 31.1088 243.497 31.6237 243.497 32.2566C243.497 32.8895 242.982 33.4047 242.349 33.4047C241.716 33.4047 241.201 32.8895 241.201 32.2566C241.201 31.6237 241.716 31.1088 242.349 31.1088Z" fill="black"/>
<path d="M259.859 48.2594C259.663 47.9969 259.291 47.9432 259.028 48.1395C258.765 48.336 258.712 48.708 258.908 48.9708C260.359 50.9105 261.127 53.2203 261.127 55.6501C261.127 61.8052 256.119 66.8126 249.964 66.8126C243.809 66.8126 238.802 61.8052 238.802 55.6501C238.802 49.4951 243.809 44.4877 249.964 44.4877C252.68 44.4877 255.297 45.4744 257.333 47.2657C257.579 47.4824 257.955 47.4583 258.171 47.212C258.388 46.9661 258.364 46.5907 258.117 46.3743C257.147 45.5204 256.057 44.8323 254.891 44.3251V35.6355C254.891 32.8441 252.62 30.5729 249.828 30.5729H247.612V30.5098C247.612 29.1258 246.486 28 245.102 28H232.421C231.037 28 229.912 29.1258 229.912 30.5098V30.5729H227.696C224.905 30.5729 222.634 32.8441 222.634 35.6355V62.9161C222.634 65.7075 224.905 67.9786 227.696 67.9786H249.246C249.484 67.9924 249.723 68 249.964 68C256.774 68 262.314 62.4598 262.314 55.6501C262.314 52.9619 261.465 50.4063 259.859 48.2594ZM249.828 31.7604C251.965 31.7604 253.703 33.4987 253.703 35.6355V43.8798C252.973 43.6479 252.219 43.4837 251.452 43.3906V35.6355C251.452 34.7398 250.724 34.011 249.828 34.011H247.612V31.7604H249.828ZM231.099 30.5098C231.099 29.7807 231.692 29.1874 232.421 29.1874H245.102C245.831 29.1874 246.425 29.7807 246.425 30.5098V34.0474C246.425 34.7767 245.831 35.3697 245.102 35.3697H232.421C231.692 35.3697 231.099 34.7767 231.099 34.0474V30.5098ZM227.696 66.7912C225.56 66.7912 223.821 65.0526 223.821 62.9161V35.6355C223.821 33.4987 225.56 31.7604 227.696 31.7604H229.912V34.011H227.696C226.8 34.011 226.071 34.7395 226.071 35.6352V36.6374C226.071 36.9651 226.337 37.231 226.665 37.231C226.993 37.231 227.259 36.9651 227.259 36.6374V35.6352C227.259 35.3944 227.455 35.1985 227.696 35.1985H230.192C230.61 36.0048 231.452 36.5571 232.421 36.5571H245.102C246.071 36.5571 246.914 36.0048 247.331 35.1985H249.828C250.069 35.1985 250.265 35.3944 250.265 35.6355V43.3043C250.165 43.3018 250.065 43.3003 249.964 43.3003C243.154 43.3003 237.614 48.8405 237.614 55.6501C237.614 58.5612 238.627 61.2394 240.318 63.3531H227.696C227.455 63.3531 227.259 63.1569 227.259 62.9161V39.2161C227.259 38.8884 226.993 38.6223 226.665 38.6223C226.337 38.6223 226.071 38.8884 226.071 39.2161V62.9161C226.071 63.8118 226.8 64.5405 227.696 64.5405H241.401C242.348 65.4527 243.439 66.2159 244.638 66.7912H227.696Z" fill="black"/>
<path d="M249.964 46.4744C244.905 46.4744 240.788 50.5906 240.788 55.6501C240.788 60.7097 244.905 64.8259 249.964 64.8259C255.024 64.8259 259.14 60.7097 259.14 55.6501C259.14 50.5906 255.024 46.4744 249.964 46.4744ZM249.964 63.6384C245.559 63.6384 241.976 60.0551 241.976 55.6501C241.976 51.2452 245.559 47.6619 249.964 47.6619C254.369 47.6619 257.952 51.2452 257.952 55.6501C257.952 60.0551 254.369 63.6384 249.964 63.6384Z" fill="black"/>
<path d="M253.091 53.8688H251.745V50.3065C251.745 49.3245 250.946 48.5252 249.964 48.5252C248.982 48.5252 248.183 49.3245 248.183 50.3065V55.6501C248.183 56.6322 248.982 57.4315 249.964 57.4315H253.091C254.073 57.4315 254.872 56.6322 254.872 55.6501C254.872 54.6681 254.073 53.8688 253.091 53.8688ZM253.091 56.244H249.964C249.636 56.244 249.37 55.9776 249.37 55.6501V50.3065C249.37 49.9791 249.636 49.7126 249.964 49.7126C250.291 49.7126 250.557 49.9791 250.557 50.3065V54.4627C250.557 54.7905 250.823 55.0563 251.151 55.0563H253.091C253.419 55.0563 253.685 55.3227 253.685 55.6501C253.685 55.9776 253.419 56.244 253.091 56.244Z" fill="black"/>
<path d="M231.178 47.1004C231.458 47.4892 231.911 47.7214 232.39 47.7214C232.43 47.7214 232.471 47.7199 232.512 47.7165C233.031 47.6738 233.497 47.3573 233.728 46.8907L236.484 41.3185C236.848 40.5809 236.545 39.684 235.807 39.319C235.07 38.9543 234.173 39.2577 233.808 39.9953L232.152 43.3427L231.145 41.9423C230.664 41.2743 229.73 41.122 229.062 41.6023C228.738 41.8352 228.525 42.18 228.46 42.5734C228.396 42.9671 228.489 43.362 228.722 43.6855L231.178 47.1004ZM229.632 42.7647C229.645 42.6845 229.689 42.614 229.755 42.5664C229.809 42.5276 229.871 42.509 229.933 42.509C230.028 42.509 230.121 42.5529 230.181 42.6356L231.765 44.8378C231.887 45.0069 232.088 45.0999 232.296 45.0829C232.503 45.0658 232.687 44.9409 232.779 44.7542L234.872 40.5217C234.947 40.3712 235.13 40.309 235.281 40.3838C235.432 40.4582 235.494 40.6416 235.419 40.7924L232.663 46.3643C232.616 46.4595 232.521 46.5242 232.415 46.533C232.308 46.5416 232.204 46.4934 232.142 46.407L229.686 42.9921C229.638 42.9259 229.619 42.845 229.632 42.7647Z" fill="black"/>
<path d="M231.178 58.1667C231.458 58.5558 231.911 58.7877 232.39 58.7877C232.43 58.7877 232.471 58.7862 232.512 58.7828C233.031 58.7401 233.497 58.4236 233.728 57.957L236.484 52.3851C236.848 51.6475 236.545 50.7506 235.807 50.3856C235.07 50.0209 234.173 50.3242 233.808 51.0619L232.152 54.4093L231.145 53.0089C230.664 52.3408 229.73 52.1883 229.062 52.6686C228.738 52.9015 228.525 53.2463 228.46 53.64C228.396 54.0334 228.489 54.4282 228.722 54.7517L231.178 58.1667ZM229.632 53.831C229.645 53.7505 229.689 53.6803 229.755 53.6327C229.809 53.5939 229.871 53.5753 229.933 53.5753C230.028 53.5753 230.121 53.6192 230.181 53.7022L231.765 55.9041C231.887 56.0731 232.088 56.1662 232.295 56.1491C232.503 56.132 232.687 56.0072 232.779 55.8205L234.872 51.5883C234.947 51.4375 235.13 51.3756 235.281 51.45C235.432 51.5245 235.494 51.7079 235.419 51.8587L232.663 57.4306C232.616 57.5261 232.521 57.5905 232.415 57.5993C232.308 57.6082 232.204 57.5597 232.142 57.4736L229.686 54.0584C229.638 53.9922 229.619 53.9116 229.632 53.831Z" fill="black"/>
<path d="M238.178 43.563H244.946C245.274 43.563 245.54 43.2972 245.54 42.9695C245.54 42.6414 245.274 42.3756 244.946 42.3756H238.178C237.85 42.3756 237.584 42.6414 237.584 42.9695C237.584 43.2972 237.85 43.563 238.178 43.563Z" fill="black"/>
</g>
</g>
<defs>
<filter id="filter0_d_31_861" x="0.599609" y="0" width="286.8" height="96" filterUnits="userSpaceOnUse" color-interpolation-filters="sRGB">
<feFlood flood-opacity="0" result="BackgroundImageFix"/>
<feColorMatrix in="SourceAlpha" type="matrix" values="0 0 0 0 0 0 0 0 0 0 0 0 0 0 0 0 0 0 127 0" result="hardAlpha"/>
<feOffset/>
<feGaussianBlur stdDeviation="4.5"/>
<feComposite in2="hardAlpha" operator="out"/>
<feColorMatrix type="matrix" values="0 0 0 0 0 0 0 0 0 0 0 0 0 0 0 0 0 0 0.14 0"/>
<feBlend mode="normal" in2="BackgroundImageFix" result="effect1_dropShadow_31_861"/>
<feBlend mode="normal" in="SourceGraphic" in2="effect1_dropShadow_31_861" result="shape"/>
</filter>
<clipPath id="clip0_31_861">
<rect width="40" height="40" fill="white" transform="translate(222.399 28)"/>
</clipPath>
</defs>
</svg>
