<svg width="288" height="96" viewBox="0 0 288 96" fill="none" xmlns="http://www.w3.org/2000/svg">
<g filter="url(#filter0_d_31_858)">
<rect x="9.7998" y="9" width="268.8" height="78" rx="10" fill="white" shape-rendering="crispEdges"/>
<path d="M26.3458 27.27H33.1358V28.572H30.5458V37H28.9498V28.572H26.3458V27.27ZM38.0981 37.126C35.9001 37.126 34.2341 35.558 34.2341 33.136C34.2341 30.714 35.9701 29.16 38.1681 29.16C40.3661 29.16 42.1021 30.714 42.1021 33.136C42.1021 35.558 40.3101 37.126 38.0981 37.126ZM38.0981 35.74C39.2881 35.74 40.4641 34.886 40.4641 33.136C40.4641 31.386 39.3301 30.546 38.1401 30.546C36.9361 30.546 35.8581 31.386 35.8581 33.136C35.8581 34.886 36.8941 35.74 38.0981 35.74ZM50.4946 27.27C53.6166 27.27 55.6606 29.16 55.6606 32.17C55.6606 35.166 53.6166 37 50.4946 37H47.3166V27.27H50.4946ZM50.4946 35.698C52.7906 35.698 54.0226 34.382 54.0226 32.17C54.0226 29.944 52.7906 28.572 50.4946 28.572H48.9126V35.698H50.4946ZM60.5884 37.126C58.3904 37.126 56.7244 35.558 56.7244 33.136C56.7244 30.714 58.4604 29.16 60.6584 29.16C62.8564 29.16 64.5924 30.714 64.5924 33.136C64.5924 35.558 62.8004 37.126 60.5884 37.126ZM60.5884 35.74C61.7784 35.74 62.9544 34.886 62.9544 33.136C62.9544 31.386 61.8204 30.546 60.6304 30.546C59.4264 30.546 58.3484 31.386 58.3484 33.136C58.3484 34.886 59.3844 35.74 60.5884 35.74Z" fill="#7E7E98"/>
<path d="M29.0158 51.64H26.7118V49.648H31.2238V67H29.0158V51.64ZM34.9753 58.144C34.9753 53.176 36.2233 49.384 41.0233 49.384C45.7993 49.384 47.0473 53.176 47.0473 58.144C47.0473 63.184 45.7993 67 41.0233 67C36.2233 67 34.9753 63.184 34.9753 58.144ZM44.8873 58.144C44.8873 54.544 44.4313 51.376 41.0233 51.376C37.5913 51.376 37.1353 54.544 37.1353 58.144C37.1353 61.888 37.5913 65.008 41.0233 65.008C44.4313 65.008 44.8873 61.888 44.8873 58.144ZM50.0456 58.144C50.0456 53.176 51.2936 49.384 56.0936 49.384C60.8696 49.384 62.1176 53.176 62.1176 58.144C62.1176 63.184 60.8696 67 56.0936 67C51.2936 67 50.0456 63.184 50.0456 58.144ZM59.9576 58.144C59.9576 54.544 59.5016 51.376 56.0936 51.376C52.6616 51.376 52.2056 54.544 52.2056 58.144C52.2056 61.888 52.6616 65.008 56.0936 65.008C59.5016 65.008 59.9576 61.888 59.9576 58.144Z" fill="#6F42C1"/>
<path d="M228.537 33.9375H256.662V44.6225H228.537V33.9375Z" fill="#FD3A69"/>
<path d="M229.475 59.9619H232.291C232.539 59.9619 232.778 60.0606 232.954 60.2364C233.13 60.4123 233.228 60.6507 233.228 60.8994V62.0625H228.537V60.9C228.537 60.7768 228.561 60.6548 228.608 60.541C228.655 60.4272 228.724 60.3238 228.811 60.2367C228.899 60.1495 229.002 60.0804 229.116 60.0333C229.229 59.9861 229.351 59.9619 229.475 59.9619Z" fill="#FC852D"/>
<path d="M229.891 44.6225H231.877V59.9619H229.891V44.6225Z" fill="#FECD1A"/>
<path d="M252.908 59.9619H255.725C255.973 59.9619 256.212 60.0606 256.388 60.2364C256.563 60.4123 256.662 60.6507 256.662 60.8994V62.0625H251.97V60.9C251.97 60.7768 251.994 60.6547 252.041 60.5409C252.088 60.427 252.157 60.3236 252.244 60.2364C252.331 60.1493 252.435 60.0802 252.549 60.0331C252.663 59.986 252.785 59.9618 252.908 59.9619Z" fill="#FC852D"/>
<path d="M253.323 44.6225H255.309V59.9619H253.323V44.6225Z" fill="#FECD1A"/>
<path d="M243.194 36.7103C243.155 36.6044 243.086 36.5128 242.994 36.4481C242.901 36.3834 242.792 36.3487 242.679 36.3487C242.567 36.3487 242.457 36.3834 242.365 36.4481C242.273 36.5128 242.203 36.6044 242.165 36.7103L240.45 41.4793C240.424 41.5473 240.412 41.6197 240.414 41.6923C240.417 41.7649 240.434 41.8364 240.464 41.9024C240.494 41.9684 240.538 42.0278 240.591 42.0769C240.645 42.126 240.708 42.164 240.776 42.1886C240.844 42.2132 240.917 42.2239 240.989 42.2201C241.062 42.2163 241.133 42.1981 241.199 42.1665C241.264 42.1349 241.323 42.0906 241.371 42.0362C241.419 41.9817 241.456 41.9182 241.479 41.8493L241.705 41.22H243.654L243.88 41.8493C243.904 41.9182 243.941 41.9817 243.989 42.0362C244.037 42.0906 244.095 42.1349 244.161 42.1665C244.226 42.1981 244.297 42.2163 244.37 42.2201C244.443 42.2239 244.515 42.2132 244.584 42.1886C244.652 42.164 244.715 42.126 244.768 42.0769C244.822 42.0278 244.865 41.9684 244.895 41.9024C244.926 41.8364 244.943 41.7649 244.945 41.6923C244.947 41.6197 244.935 41.5473 244.91 41.4793L243.194 36.7103ZM242.1 40.125L242.68 38.51L243.26 40.125H242.1Z" fill="#FFF8CD"/>
<path d="M232.737 37.4424H234.734C234.879 37.4424 235.019 37.3848 235.121 37.2823C235.224 37.1797 235.281 37.0406 235.281 36.8956C235.281 36.7505 235.224 36.6114 235.121 36.5089C235.019 36.4063 234.879 36.3487 234.734 36.3487H232.737C232.381 36.3486 232.037 36.4692 231.759 36.6907C231.482 36.9122 231.288 37.2214 231.209 37.5677C231.13 37.914 231.171 38.2768 231.326 38.5965C231.481 38.9163 231.739 39.174 232.059 39.3274L233.919 40.2187C234.016 40.265 234.094 40.3428 234.14 40.4392C234.187 40.5357 234.199 40.645 234.176 40.7494C234.152 40.8538 234.093 40.9471 234.01 41.0139C233.926 41.0807 233.822 41.1171 233.715 41.1171H231.717C231.572 41.1171 231.433 41.1747 231.331 41.2773C231.228 41.3799 231.17 41.519 231.17 41.664C231.17 41.809 231.228 41.9481 231.331 42.0507C231.433 42.1533 231.572 42.2109 231.717 42.2109H233.715C234.07 42.2109 234.415 42.0903 234.692 41.8687C234.97 41.6472 235.164 41.338 235.242 40.9917C235.321 40.6454 235.28 40.2827 235.125 39.963C234.971 39.6433 234.712 39.3856 234.392 39.2321L232.532 38.3406C232.436 38.2942 232.358 38.2165 232.311 38.12C232.265 38.0236 232.252 37.9142 232.276 37.8098C232.3 37.7054 232.358 37.6122 232.442 37.5454C232.526 37.4786 232.63 37.4425 232.737 37.4424Z" fill="#FFF8CD"/>
<path d="M239.638 36.3487H236.568C236.423 36.3487 236.284 36.4063 236.182 36.5089C236.079 36.6114 236.021 36.7505 236.021 36.8956C236.021 37.0406 236.079 37.1797 236.182 37.2823C236.284 37.3848 236.423 37.4424 236.568 37.4424H237.556V41.6643C237.556 41.8094 237.613 41.9485 237.716 42.051C237.819 42.1536 237.958 42.2112 238.103 42.2112C238.248 42.2112 238.387 42.1536 238.489 42.051C238.592 41.9485 238.65 41.8094 238.65 41.6643V37.4424H239.637C239.782 37.4424 239.921 37.3848 240.024 37.2823C240.126 37.1797 240.184 37.0406 240.184 36.8956C240.184 36.7505 240.126 36.6114 240.024 36.5089C239.921 36.4063 239.782 36.3487 239.637 36.3487H239.638Z" fill="#FFF8CD"/>
<path d="M254.315 36.3487H251.246C251.101 36.3487 250.962 36.4063 250.859 36.5089C250.757 36.6114 250.699 36.7505 250.699 36.8956C250.699 37.0406 250.757 37.1797 250.859 37.2823C250.962 37.3848 251.101 37.4424 251.246 37.4424H252.234V41.6643C252.234 41.8094 252.292 41.9485 252.394 42.051C252.497 42.1536 252.636 42.2112 252.781 42.2112C252.926 42.2112 253.065 42.1536 253.167 42.051C253.27 41.9485 253.328 41.8094 253.328 41.6643V37.4424H254.315C254.46 37.4424 254.599 37.3848 254.702 37.2823C254.804 37.1797 254.862 37.0406 254.862 36.8956C254.862 36.7505 254.804 36.6114 254.702 36.5089C254.599 36.4063 254.46 36.3487 254.315 36.3487Z" fill="#FFF8CD"/>
<path d="M249.814 38.3378C249.813 37.8104 249.604 37.3048 249.231 36.9319C248.858 36.559 248.352 36.3493 247.825 36.3487H246.534C246.462 36.3487 246.391 36.3628 246.325 36.3902C246.258 36.4177 246.198 36.458 246.147 36.5088C246.097 36.5596 246.056 36.6199 246.029 36.6862C246.001 36.7526 245.987 36.8237 245.987 36.8956V41.6643C245.987 41.8094 246.045 41.9485 246.147 42.051C246.25 42.1536 246.389 42.2112 246.534 42.2112C246.679 42.2112 246.818 42.1536 246.921 42.051C247.023 41.9485 247.081 41.8094 247.081 41.6643V40.3271H247.825C247.904 40.3266 247.983 40.3215 248.061 40.3118L248.768 41.8881C248.797 41.9549 248.838 42.0154 248.89 42.066C248.943 42.1166 249.004 42.1563 249.072 42.1828C249.14 42.2092 249.212 42.222 249.285 42.2202C249.357 42.2184 249.429 42.2022 249.495 42.1725C249.561 42.1427 249.621 42.1001 249.671 42.047C249.72 41.9939 249.759 41.9315 249.784 41.8634C249.809 41.7952 249.821 41.7228 249.818 41.6502C249.815 41.5776 249.797 41.5063 249.766 41.4406L249.069 39.8871C249.301 39.7012 249.489 39.4655 249.618 39.1973C249.747 38.9291 249.814 38.6354 249.814 38.3378ZM247.825 39.2334H247.081V37.4424H247.825C248.059 37.4468 248.283 37.5431 248.447 37.7106C248.612 37.878 248.704 38.1033 248.704 38.3379C248.704 38.5726 248.612 38.7978 248.447 38.9653C248.283 39.1327 248.059 39.229 247.825 39.2334Z" fill="#FFF8CD"/>
<path d="M256.662 45.1694C256.807 45.1693 256.946 45.1116 257.049 45.0091C257.151 44.9066 257.209 44.7675 257.209 44.6225V33.9375C257.209 33.7925 257.151 33.6534 257.049 33.5509C256.946 33.4484 256.807 33.3907 256.662 33.3906H250.159C250.014 33.3906 249.875 33.4482 249.773 33.5508C249.67 33.6534 249.612 33.7925 249.612 33.9375C249.612 34.0825 249.67 34.2216 249.773 34.3242C249.875 34.4268 250.014 34.4844 250.159 34.4844H256.115V44.0756H229.084V34.4844H242.908C243.053 34.4844 243.192 34.4268 243.295 34.3242C243.398 34.2216 243.455 34.0825 243.455 33.9375C243.455 33.7925 243.398 33.6534 243.295 33.5508C243.192 33.4482 243.053 33.3906 242.908 33.3906H228.537C228.392 33.3907 228.253 33.4484 228.151 33.5509C228.048 33.6534 227.99 33.7925 227.99 33.9375V44.6225C227.99 44.7675 228.048 44.9066 228.151 45.0091C228.253 45.1116 228.392 45.1693 228.537 45.1694H229.344V59.4281C228.975 59.4603 228.632 59.6291 228.381 59.9015C228.131 60.1738 227.991 60.53 227.99 60.9V62.0625C227.99 62.2075 228.048 62.3466 228.151 62.4491C228.253 62.5516 228.392 62.6093 228.537 62.6094H233.23C233.375 62.6093 233.514 62.5516 233.616 62.4491C233.719 62.3466 233.776 62.2075 233.776 62.0625V60.9C233.775 60.53 233.636 60.1738 233.385 59.9015C233.135 59.6291 232.792 59.4603 232.423 59.4281V45.1694H252.776V59.4281C252.407 59.4603 252.064 59.6292 251.814 59.9016C251.563 60.1739 251.424 60.5301 251.423 60.9V62.0625C251.423 62.2075 251.48 62.3466 251.583 62.4491C251.686 62.5516 251.825 62.6093 251.97 62.6094H256.662C256.807 62.6093 256.946 62.5516 257.049 62.4491C257.151 62.3466 257.209 62.2075 257.209 62.0625V60.9C257.208 60.53 257.068 60.1738 256.818 59.9015C256.567 59.6291 256.224 59.4603 255.856 59.4281V45.1694H256.662ZM232.683 60.9V61.5156H229.084V60.9C229.084 60.7964 229.125 60.697 229.198 60.6237C229.272 60.5503 229.371 60.509 229.475 60.5088H232.291C232.342 60.5087 232.393 60.5188 232.441 60.5384C232.488 60.5581 232.531 60.5869 232.568 60.6232C232.604 60.6595 232.633 60.7027 232.653 60.7502C232.673 60.7977 232.683 60.8486 232.683 60.9ZM231.329 59.415H230.437V45.1694H231.329V59.415ZM256.115 60.9V61.5156H252.516V60.9C252.517 60.7963 252.558 60.6968 252.631 60.6234C252.705 60.5501 252.804 60.5088 252.908 60.5088H255.725C255.828 60.509 255.928 60.5503 256.001 60.6237C256.074 60.697 256.115 60.7964 256.115 60.9ZM254.762 59.415H253.87V45.1694H254.762V59.415Z" fill="#0C2468"/>
<path d="M245.756 34.4844H247.309C247.454 34.4844 247.593 34.4268 247.696 34.3242C247.799 34.2216 247.856 34.0825 247.856 33.9375C247.856 33.7925 247.799 33.6534 247.696 33.5508C247.593 33.4482 247.454 33.3906 247.309 33.3906H245.756C245.611 33.3906 245.472 33.4482 245.369 33.5508C245.267 33.6534 245.209 33.7925 245.209 33.9375C245.209 34.0825 245.267 34.2216 245.369 34.3242C245.472 34.4268 245.611 34.4844 245.756 34.4844Z" fill="#0C2468"/>
<path d="M243.194 36.7103C243.155 36.6044 243.086 36.5128 242.994 36.4481C242.901 36.3834 242.792 36.3487 242.679 36.3487C242.567 36.3487 242.457 36.3834 242.365 36.4481C242.273 36.5128 242.203 36.6044 242.165 36.7103L240.45 41.4793C240.424 41.5473 240.412 41.6197 240.414 41.6923C240.417 41.7649 240.434 41.8364 240.464 41.9024C240.494 41.9684 240.538 42.0278 240.591 42.0769C240.645 42.126 240.708 42.164 240.776 42.1886C240.844 42.2132 240.917 42.2239 240.989 42.2201C241.062 42.2163 241.133 42.1981 241.199 42.1665C241.264 42.1349 241.323 42.0906 241.371 42.0362C241.419 41.9817 241.456 41.9182 241.479 41.8493L241.705 41.22H243.654L243.88 41.8493C243.904 41.9182 243.941 41.9817 243.989 42.0362C244.037 42.0906 244.095 42.1349 244.161 42.1665C244.226 42.1981 244.297 42.2163 244.37 42.2201C244.443 42.2239 244.515 42.2132 244.584 42.1886C244.652 42.164 244.715 42.126 244.768 42.0769C244.822 42.0278 244.865 41.9684 244.895 41.9024C244.926 41.8364 244.943 41.7649 244.945 41.6923C244.947 41.6197 244.935 41.5473 244.91 41.4793L243.194 36.7103ZM242.1 40.125L242.68 38.51L243.26 40.125H242.1Z" fill="#0C2468"/>
<path d="M232.737 37.4424H234.734C234.879 37.4424 235.019 37.3848 235.121 37.2823C235.224 37.1797 235.281 37.0406 235.281 36.8956C235.281 36.7505 235.224 36.6114 235.121 36.5089C235.019 36.4063 234.879 36.3487 234.734 36.3487H232.737C232.381 36.3486 232.037 36.4692 231.759 36.6907C231.482 36.9122 231.288 37.2214 231.209 37.5677C231.13 37.914 231.171 38.2768 231.326 38.5965C231.481 38.9163 231.739 39.174 232.059 39.3274L233.919 40.2187C234.016 40.265 234.094 40.3428 234.14 40.4392C234.187 40.5357 234.199 40.645 234.176 40.7494C234.152 40.8538 234.093 40.9471 234.01 41.0139C233.926 41.0807 233.822 41.1171 233.715 41.1171H231.717C231.572 41.1171 231.433 41.1747 231.331 41.2773C231.228 41.3799 231.17 41.519 231.17 41.664C231.17 41.809 231.228 41.9481 231.331 42.0507C231.433 42.1533 231.572 42.2109 231.717 42.2109H233.715C234.07 42.2109 234.415 42.0903 234.692 41.8687C234.97 41.6472 235.164 41.338 235.242 40.9917C235.321 40.6454 235.28 40.2827 235.125 39.963C234.971 39.6433 234.712 39.3856 234.392 39.2321L232.532 38.3406C232.436 38.2942 232.358 38.2165 232.311 38.12C232.265 38.0236 232.252 37.9142 232.276 37.8098C232.3 37.7054 232.358 37.6122 232.442 37.5454C232.526 37.4786 232.63 37.4425 232.737 37.4424Z" fill="#0C2468"/>
<path d="M239.638 36.3487H236.568C236.423 36.3487 236.284 36.4063 236.182 36.5089C236.079 36.6114 236.021 36.7505 236.021 36.8956C236.021 37.0406 236.079 37.1797 236.182 37.2823C236.284 37.3848 236.423 37.4424 236.568 37.4424H237.556V41.6643C237.556 41.8094 237.613 41.9485 237.716 42.051C237.819 42.1536 237.958 42.2112 238.103 42.2112C238.248 42.2112 238.387 42.1536 238.489 42.051C238.592 41.9485 238.65 41.8094 238.65 41.6643V37.4424H239.637C239.782 37.4424 239.921 37.3848 240.024 37.2823C240.126 37.1797 240.184 37.0406 240.184 36.8956C240.184 36.7505 240.126 36.6114 240.024 36.5089C239.921 36.4063 239.782 36.3487 239.637 36.3487H239.638Z" fill="#0C2468"/>
<path d="M254.315 36.3487H251.246C251.101 36.3487 250.962 36.4063 250.859 36.5089C250.757 36.6114 250.699 36.7505 250.699 36.8956C250.699 37.0406 250.757 37.1797 250.859 37.2823C250.962 37.3848 251.101 37.4424 251.246 37.4424H252.234V41.6643C252.234 41.8094 252.292 41.9485 252.394 42.051C252.497 42.1536 252.636 42.2112 252.781 42.2112C252.926 42.2112 253.065 42.1536 253.167 42.051C253.27 41.9485 253.328 41.8094 253.328 41.6643V37.4424H254.315C254.46 37.4424 254.599 37.3848 254.702 37.2823C254.804 37.1797 254.862 37.0406 254.862 36.8956C254.862 36.7505 254.804 36.6114 254.702 36.5089C254.599 36.4063 254.46 36.3487 254.315 36.3487Z" fill="#0C2468"/>
<path d="M249.814 38.3378C249.813 37.8104 249.604 37.3048 249.231 36.9319C248.858 36.559 248.352 36.3493 247.825 36.3487H246.534C246.462 36.3487 246.391 36.3628 246.325 36.3902C246.258 36.4177 246.198 36.458 246.147 36.5088C246.097 36.5596 246.056 36.6199 246.029 36.6862C246.001 36.7526 245.987 36.8237 245.987 36.8956V41.6643C245.987 41.8094 246.045 41.9485 246.147 42.051C246.25 42.1536 246.389 42.2112 246.534 42.2112C246.679 42.2112 246.818 42.1536 246.921 42.051C247.023 41.9485 247.081 41.8094 247.081 41.6643V40.3271H247.825C247.904 40.3266 247.983 40.3215 248.061 40.3118L248.768 41.8881C248.797 41.9549 248.838 42.0154 248.89 42.066C248.943 42.1166 249.004 42.1563 249.072 42.1828C249.14 42.2092 249.212 42.222 249.285 42.2202C249.357 42.2184 249.429 42.2022 249.495 42.1725C249.561 42.1427 249.621 42.1001 249.671 42.047C249.72 41.9939 249.759 41.9315 249.784 41.8634C249.809 41.7952 249.821 41.7228 249.818 41.6502C249.815 41.5776 249.797 41.5063 249.766 41.4406L249.069 39.8871C249.301 39.7012 249.489 39.4655 249.618 39.1973C249.747 38.9291 249.814 38.6354 249.814 38.3378ZM247.825 39.2334H247.081V37.4424H247.825C248.059 37.4468 248.283 37.5431 248.447 37.7106C248.612 37.878 248.704 38.1033 248.704 38.3379C248.704 38.5726 248.612 38.7978 248.447 38.9653C248.283 39.1327 248.059 39.229 247.825 39.2334Z" fill="#0C2468"/>
</g>
<defs>
<filter id="filter0_d_31_858" x="0.799805" y="0" width="286.8" height="96" filterUnits="userSpaceOnUse" color-interpolation-filters="sRGB">
<feFlood flood-opacity="0" result="BackgroundImageFix"/>
<feColorMatrix in="SourceAlpha" type="matrix" values="0 0 0 0 0 0 0 0 0 0 0 0 0 0 0 0 0 0 127 0" result="hardAlpha"/>
<feOffset/>
<feGaussianBlur stdDeviation="4.5"/>
<feComposite in2="hardAlpha" operator="out"/>
<feColorMatrix type="matrix" values="0 0 0 0 0 0 0 0 0 0 0 0 0 0 0 0 0 0 0.14 0"/>
<feBlend mode="normal" in2="BackgroundImageFix" result="effect1_dropShadow_31_858"/>
<feBlend mode="normal" in="SourceGraphic" in2="effect1_dropShadow_31_858" result="shape"/>
</filter>
</defs>
</svg>
