<svg height="512" viewBox="0 0 24 24" width="512" xmlns="http://www.w3.org/2000/svg"><g id="Flat_Color" data-name="Flat Color"><rect fill="#edebea" height="18" rx="4" width="20" x="2" y="4"/><g fill="#0b4f6c"><path d="m6 7a1 1 0 0 1 -1-1v-3a1 1 0 0 1 2 0v3a1 1 0 0 1 -1 1z"/><path d="m18 7a1 1 0 0 1 -1-1v-3a1 1 0 0 1 2 0v3a1 1 0 0 1 -1 1z"/><path d="m12 7a1 1 0 0 1 -1-1v-3a1 1 0 0 1 2 0v3a1 1 0 0 1 -1 1z"/></g><path d="m11.23 16.77a1 1 0 0 1 -.7-.28l-2.28-2.24a1 1 0 0 1 0-1.42 1 1 0 0 1 1.41 0l1.58 1.55 4.12-4a1 1 0 0 1 1.4 1.43l-4.81 4.73a1 1 0 0 1 -.72.23z" fill="#20bf55"/></g></svg>