<svg width="24" height="24" viewBox="0 0 24 24" fill="none" xmlns="http://www.w3.org/2000/svg">
<g id="group 1" clip-path="url(#clip0_1703_501)">
<g id="Group">
<g id="Group_2">
<path id="Vector" d="M20.5358 12.8119H18.6797C18.8689 13.3299 18.9722 13.8888 18.9722 14.4715V21.4863C18.9722 21.7292 18.93 21.9624 18.853 22.1792H21.9215C23.0678 22.1792 24.0002 21.2467 24.0002 20.1005V16.2764C24.0003 14.3661 22.4461 12.8119 20.5358 12.8119Z" fill="#5F637D"/>
</g>
</g>
<g id="Group_3">
<g id="Group_4">
<path id="Vector_2" d="M5.02806 14.4715C5.02806 13.8889 5.13142 13.3299 5.3206 12.812H3.46454C1.55419 12.812 0 14.3661 0 16.2765V20.1006C0 21.2468 0.932486 22.1793 2.07872 22.1793H5.14726C5.07034 21.9624 5.02806 21.7293 5.02806 21.4864V14.4715Z" fill="#5F637D"/>
</g>
</g>
<g id="Group_5">
<g id="Group_6">
<path id="Vector_3" d="M14.1218 11.007H9.8786C7.96825 11.007 6.41406 12.5611 6.41406 14.4715V21.4864C6.41406 21.869 6.72428 22.1793 7.10697 22.1793H16.8935C17.2761 22.1793 17.5864 21.869 17.5864 21.4864V14.4715C17.5864 12.5611 16.0322 11.007 14.1218 11.007Z" fill="#5F637D"/>
</g>
</g>
<g id="Group_7">
<g id="Group_8">
<path id="Vector_4" d="M12 1.82062C9.70259 1.82062 7.8335 3.68971 7.8335 5.9872C7.8335 7.54557 8.69361 8.90658 9.96383 9.62115C10.5663 9.96006 11.2609 10.1537 12 10.1537C12.7392 10.1537 13.4338 9.96006 14.0362 9.62115C15.3065 8.90658 16.1666 7.54552 16.1666 5.9872C16.1666 3.68976 14.2975 1.82062 12 1.82062Z" fill="#5F637D"/>
</g>
</g>
<g id="Group_9">
<g id="Group_10">
<path id="Vector_5" d="M4.68389 5.70416C2.96569 5.70416 1.56787 7.10198 1.56787 8.82018C1.56787 10.5384 2.96569 11.9362 4.68389 11.9362C5.11974 11.9362 5.53477 11.8459 5.91179 11.6836C6.56363 11.403 7.1011 10.9062 7.43368 10.284C7.66712 9.84722 7.79992 9.34898 7.79992 8.82018C7.79992 7.10202 6.4021 5.70416 4.68389 5.70416Z" fill="#5F637D"/>
</g>
</g>
<g id="Group_11">
<g id="Group_12">
<path id="Vector_6" d="M19.3162 5.70416C17.598 5.70416 16.2002 7.10198 16.2002 8.82018C16.2002 9.34903 16.333 9.84726 16.5664 10.284C16.899 10.9063 17.4365 11.403 18.0883 11.6836C18.4653 11.8459 18.8804 11.9362 19.3162 11.9362C21.0344 11.9362 22.4322 10.5384 22.4322 8.82018C22.4322 7.10198 21.0344 5.70416 19.3162 5.70416Z" fill="#5F637D"/>
</g>
</g>
</g>
<defs>
<clipPath id="clip0_1703_501">
<rect width="24" height="24" fill="white"/>
</clipPath>
</defs>
</svg>
